<?xml version="1.0" encoding="UTF-8"?><svg xmlns="http://www.w3.org/2000/svg" xmlns:xlink="http://www.w3.org/1999/xlink" width="768" zoomAndPan="magnify" viewBox="0 0 768 767.999994" height="767.999994" preserveAspectRatio="xMidYMid meet" version="1.0"><path fill="rgb(65.879822%, 65.879822%, 65.879822%)" d="M 421.675781 461.136719 L 421.675781 407.464844 L 553.410156 287.519531 C 561.136719 280.484375 561.699219 268.527344 554.667969 260.796875 C 547.636719 253.070312 535.675781 252.507812 527.949219 259.542969 L 397.566406 378.257812 L 322.539062 378.257812 L 192.15625 259.542969 C 184.433594 252.503906 172.476562 253.066406 165.441406 260.796875 C 158.410156 268.523438 158.96875 280.480469 166.695312 287.519531 L 298.433594 407.46875 L 298.433594 462.679688 C 320.101562 469.765625 339.523438 473.09375 358.347656 473.097656 C 379.292969 473.085938 399.644531 469 421.675781 461.136719 Z M 421.675781 461.136719 " fill-opacity="1" fill-rule="nonzero"/><path fill="rgb(65.879822%, 65.879822%, 65.879822%)" d="M 360.054688 364.390625 C 391.261719 364.390625 416.546875 339.089844 416.546875 307.882812 C 416.546875 276.671875 391.261719 251.375 360.054688 251.375 C 328.851562 251.375 303.566406 276.671875 303.566406 307.882812 C 303.566406 339.085938 328.851562 364.390625 360.054688 364.390625 Z M 393.152344 329.492188 C 376.21875 363.226562 337.070312 349.195312 329.949219 330 C 356.066406 342.15625 393.152344 329.492188 393.152344 329.492188 Z M 393.152344 329.492188 " fill-opacity="1" fill-rule="nonzero"/><path fill="rgb(65.879822%, 65.879822%, 65.879822%)" d="M 422.164062 0 L 383.691406 218.949219 L 392.914062 222.867188 L 441.535156 9.238281 Z M 422.164062 0 " fill-opacity="1" fill-rule="nonzero"/><path fill="rgb(65.879822%, 65.879822%, 65.879822%)" d="M 576.132812 91.265625 L 564.332031 73.335938 L 418.15625 240.808594 L 424.027344 248.925781 Z M 576.132812 91.265625 " fill-opacity="1" fill-rule="nonzero"/><path fill="rgb(65.879822%, 65.879822%, 65.879822%)" d="M 340.988281 215.449219 L 287.855469 2.898438 L 266.390625 3.417969 L 331 216.125 Z M 340.988281 215.449219 " fill-opacity="1" fill-rule="nonzero"/><path fill="rgb(65.879822%, 65.879822%, 65.879822%)" d="M 479.6875 444.558594 C 462.285156 453.777344 446.339844 461.445312 431.253906 467.433594 C 405.460938 477.65625 382.296875 483 358.34375 483.003906 C 337.320312 483 315.5625 478.890625 290.746094 469.972656 C 273.71875 463.839844 255.261719 455.429688 234.757812 444.5625 C 212.515625 432.8125 182.78125 427.058594 148.269531 427.03125 C 95.152344 427.054688 30.597656 440.859375 -34.917969 469.773438 C -36.164062 470.320312 -37.402344 470.839844 -38.648438 471.398438 L -33.101562 483.726562 L -33.101562 483.71875 C 32.085938 454.359375 96.511719 440.535156 148.269531 440.550781 C 181.265625 440.527344 209.0625 446.207031 228.433594 456.503906 C 249.351562 467.597656 268.359375 476.273438 286.179688 482.683594 C 290.332031 484.179688 294.402344 485.503906 298.433594 486.753906 L 298.433594 647.808594 C 298.433594 663.289062 310.988281 675.84375 326.46875 675.84375 C 341.945312 675.84375 354.496094 663.289062 354.496094 647.808594 L 354.496094 595.6875 L 365.609375 595.6875 L 365.609375 740.035156 C 365.609375 755.519531 378.164062 768.074219 393.644531 768.074219 C 409.121094 768.074219 421.675781 755.519531 421.675781 740.035156 L 421.675781 485.304688 C 426.484375 483.679688 431.320312 481.949219 436.238281 479.996094 C 451.960938 473.753906 468.332031 465.871094 486.007812 456.507812 C 507.464844 445.101562 535.675781 440.546875 565.925781 440.574219 C 611.296875 440.558594 661.027344 450.683594 699.253906 460.863281 C 718.371094 465.957031 734.628906 471.042969 746.085938 474.859375 C 757.539062 478.671875 764.105469 481.175781 764.125 481.175781 L 768.929688 468.546875 C 768.890625 468.539062 767.734375 468.101562 765.617188 467.335938 C 746.8125 460.523438 650.917969 427.140625 565.925781 427.0625 C 534.378906 427.082031 504.160156 431.636719 479.6875 444.558594 Z M 479.6875 444.558594 " fill-opacity="1" fill-rule="nonzero"/><path fill="rgb(65.879822%, 65.879822%, 65.879822%)" d="M 678.824219 144.234375 L 682.773438 150.671875 C 628.75 152.832031 617.914062 225.375 562.710938 225.601562 C 578.546875 251.421875 594.386719 277.230469 610.222656 303.042969 C 665.425781 302.816406 676.257812 230.269531 730.277344 228.109375 L 825.105469 382.664062 L 834.882812 376.660156 L 688.601562 138.230469 Z M 678.824219 144.234375 " fill-opacity="1" fill-rule="nonzero"/></svg>