<?xml version="1.0" encoding="UTF-8"?><svg xmlns="http://www.w3.org/2000/svg" xmlns:xlink="http://www.w3.org/1999/xlink" width="768" zoomAndPan="magnify" viewBox="0 0 768 767.999994" height="767.999994" preserveAspectRatio="xMidYMid meet" version="1.0"><defs><clipPath id="clip-0"><path d="M 125 601 L 241 601 L 241 767.910156 L 125 767.910156 Z M 125 601 " clip-rule="nonzero"/></clipPath></defs><path fill="rgb(65.879822%, 65.879822%, 65.879822%)" d="M 574.804688 506.476562 C 574.804688 508.222656 574.71875 509.964844 574.550781 511.703125 C 574.378906 513.441406 574.121094 515.167969 573.78125 516.882812 C 573.441406 518.597656 573.015625 520.289062 572.507812 521.960938 C 572 523.632812 571.414062 525.277344 570.746094 526.890625 C 570.074219 528.507812 569.328125 530.085938 568.503906 531.625 C 567.679688 533.167969 566.785156 534.664062 565.8125 536.117188 C 564.84375 537.570312 563.800781 538.972656 562.695312 540.320312 C 561.585938 541.671875 560.414062 542.964844 559.175781 544.203125 C 557.941406 545.4375 556.648438 546.609375 555.296875 547.71875 C 553.945312 548.828125 552.542969 549.867188 551.089844 550.835938 C 549.636719 551.808594 548.140625 552.703125 546.597656 553.527344 C 545.058594 554.351562 543.480469 555.097656 541.863281 555.765625 C 540.25 556.4375 538.605469 557.023438 536.933594 557.53125 C 535.261719 558.039062 533.570312 558.460938 531.855469 558.804688 C 530.140625 559.144531 528.414062 559.398438 526.675781 559.570312 C 524.933594 559.742188 523.191406 559.828125 521.445312 559.828125 C 519.695312 559.828125 517.953125 559.742188 516.214844 559.570312 C 514.476562 559.398438 512.75 559.144531 511.035156 558.804688 C 509.320312 558.460938 507.625 558.039062 505.953125 557.53125 C 504.28125 557.023438 502.636719 556.4375 501.023438 555.765625 C 499.410156 555.097656 497.832031 554.351562 496.289062 553.527344 C 494.75 552.703125 493.25 551.808594 491.796875 550.835938 C 490.34375 549.867188 488.941406 548.828125 487.59375 547.71875 C 486.242188 546.609375 484.949219 545.4375 483.710938 544.203125 C 482.476562 542.964844 481.304688 541.671875 480.195312 540.320312 C 479.085938 538.972656 478.046875 537.570312 477.074219 536.117188 C 476.105469 534.664062 475.207031 533.167969 474.382812 531.625 C 473.558594 530.085938 472.8125 528.507812 472.144531 526.890625 C 471.476562 525.277344 470.886719 523.632812 470.378906 521.960938 C 469.871094 520.289062 469.449219 518.597656 469.109375 516.882812 C 468.765625 515.167969 468.511719 513.441406 468.339844 511.703125 C 468.167969 509.964844 468.082031 508.222656 468.082031 506.476562 C 468.082031 504.726562 468.167969 502.984375 468.339844 501.246094 C 468.511719 499.507812 468.765625 497.78125 469.109375 496.066406 C 469.449219 494.351562 469.871094 492.660156 470.378906 490.988281 C 470.886719 489.316406 471.476562 487.671875 472.144531 486.058594 C 472.8125 484.441406 473.558594 482.863281 474.382812 481.324219 C 475.207031 479.78125 476.105469 478.285156 477.074219 476.832031 C 478.046875 475.378906 479.085938 473.976562 480.195312 472.628906 C 481.304688 471.277344 482.476562 469.984375 483.710938 468.75 C 484.949219 467.511719 486.242188 466.339844 487.59375 465.230469 C 488.941406 464.125 490.34375 463.082031 491.796875 462.113281 C 493.25 461.140625 494.75 460.246094 496.289062 459.421875 C 497.832031 458.597656 499.410156 457.851562 501.023438 457.183594 C 502.636719 456.515625 504.28125 455.925781 505.953125 455.417969 C 507.625 454.910156 509.320312 454.488281 511.035156 454.144531 C 512.75 453.804688 514.476562 453.550781 516.214844 453.378906 C 517.953125 453.207031 519.695312 453.121094 521.445312 453.121094 C 523.191406 453.121094 524.933594 453.207031 526.675781 453.378906 C 528.414062 453.550781 530.140625 453.804688 531.855469 454.144531 C 533.570312 454.488281 535.261719 454.910156 536.933594 455.417969 C 538.605469 455.925781 540.25 456.515625 541.863281 457.183594 C 543.480469 457.851562 545.058594 458.597656 546.597656 459.421875 C 548.140625 460.246094 549.636719 461.140625 551.089844 462.113281 C 552.542969 463.082031 553.945312 464.125 555.296875 465.230469 C 556.648438 466.339844 557.941406 467.511719 559.175781 468.75 C 560.414062 469.984375 561.585938 471.277344 562.695312 472.628906 C 563.800781 473.976562 564.84375 475.378906 565.8125 476.832031 C 566.785156 478.285156 567.679688 479.78125 568.503906 481.324219 C 569.328125 482.863281 570.074219 484.441406 570.746094 486.058594 C 571.414062 487.671875 572 489.316406 572.507812 490.988281 C 573.015625 492.660156 573.441406 494.351562 573.78125 496.066406 C 574.121094 497.78125 574.378906 499.507812 574.550781 501.246094 C 574.71875 502.984375 574.804688 504.726562 574.804688 506.476562 Z M 574.804688 506.476562 " fill-opacity="1" fill-rule="nonzero"/><path fill="rgb(65.879822%, 65.879822%, 65.879822%)" d="M 526.1875 595.425781 C 529.175781 595.425781 532.078125 596.046875 534.816406 597.273438 C 539.980469 599.578125 543.941406 603.757812 545.960938 609.039062 C 547.984375 614.324219 547.824219 620.078125 545.515625 625.246094 L 516.167969 690.945312 C 513.984375 695.851562 510.054688 699.707031 505.105469 701.808594 L 440.453125 729.238281 C 437.8125 730.355469 435.03125 730.925781 432.1875 730.925781 C 423.667969 730.925781 416.011719 725.859375 412.683594 718.015625 C 411.222656 714.578125 410.753906 710.964844 411.132812 707.492188 L 395.890625 711.773438 C 383.613281 715.226562 375.769531 727.195312 377.511719 739.824219 C 379.25 752.449219 390.042969 761.859375 402.789062 761.859375 L 529.582031 761.859375 C 532.960938 761.859375 536.183594 761.183594 539.136719 759.988281 C 546.320312 758.289062 553.089844 754.578125 558.789062 747.695312 C 557.910156 745.449219 557.253906 743.09375 556.914062 740.625 C 555.070312 727.234375 562.132812 714.320312 573.820312 708.367188 C 580.726562 678.011719 580.34375 653.644531 574.039062 618.804688 C 568.050781 586.832031 542.109375 571.699219 522.308594 572.039062 C 502.511719 572.378906 489.878906 594.75 492.71875 616.230469 C 492.960938 622.761719 493.320312 629.972656 493.621094 637.558594 L 506.839844 607.972656 C 510.242188 600.351562 517.835938 595.425781 526.1875 595.425781 Z M 526.1875 595.425781 " fill-opacity="1" fill-rule="nonzero"/><path fill="rgb(65.879822%, 65.879822%, 65.879822%)" d="M 418.085938 715.71875 C 420.5625 721.550781 426.226562 725.054688 432.1875 725.054688 C 434.183594 725.054688 436.210938 724.660156 438.164062 723.832031 L 502.8125 696.402344 C 506.375 694.890625 509.234375 692.085938 510.8125 688.550781 L 540.160156 622.847656 C 543.609375 615.128906 540.144531 606.074219 532.421875 602.625 C 524.714844 599.179688 515.648438 602.640625 512.199219 610.363281 L 485.304688 670.566406 L 426.203125 695.644531 C 418.414062 698.949219 414.785156 707.9375 418.085938 715.71875 Z M 418.085938 715.71875 " fill-opacity="1" fill-rule="nonzero"/><g clip-path="url(#clip-0)"><path fill="rgb(65.879822%, 65.879822%, 65.879822%)" d="M 171.921875 620.320312 L 190.167969 746.046875 C 192.015625 758.753906 202.921875 767.902344 215.394531 767.898438 C 216.613281 767.898438 217.847656 767.8125 219.089844 767.632812 C 233.039062 765.609375 242.703125 752.664062 240.679688 738.71875 L 220.867188 602.191406 C 206.871094 603.660156 192.683594 604.433594 178.488281 604.433594 C 159.886719 604.433594 142.253906 603.183594 125.789062 601.144531 Z M 171.921875 620.320312 " fill-opacity="1" fill-rule="nonzero"/></g><path fill="rgb(65.879822%, 65.879822%, 65.879822%)" d="M 236.304688 592.5625 C 204.839844 549.457031 196.085938 514.027344 196.101562 484.304688 C 196.101562 476.855469 196.652344 469.765625 197.539062 463.007812 L 142.90625 421.414062 C 133.054688 413.910156 131.140625 399.792969 138.644531 389.945312 C 142.929688 384.320312 149.445312 381.09375 156.527344 381.09375 C 161.476562 381.09375 166.171875 382.683594 170.117188 385.683594 L 207.761719 414.347656 C 212.78125 389.960938 211.941406 370.960938 182.585938 354.191406 C 158.78125 340.59375 136.304688 344.058594 115.792969 357.40625 C 111.894531 361.179688 107.484375 364.609375 102.558594 367.542969 C 76.195312 390.878906 53.664062 429.289062 36.539062 465.484375 C 13.878906 513.40625 0.691406 557.4375 0.691406 557.4375 C 0.691406 557.4375 104.273438 612.09375 236.304688 592.5625 Z M 236.304688 592.5625 " fill-opacity="1" fill-rule="nonzero"/><path fill="rgb(65.879822%, 65.879822%, 65.879822%)" d="M 143.828125 754.917969 C 143.828125 750.359375 140.09375 746.628906 135.535156 746.628906 L 104.910156 746.628906 L 104.910156 600.761719 L 109.574219 600.761719 L 101.675781 597.480469 C 67.089844 591.242188 39.289062 582 21.054688 574.824219 C 18.839844 577.566406 17.503906 581.039062 17.503906 584.8125 C 17.503906 593.585938 24.683594 600.761719 33.457031 600.761719 L 84.496094 600.761719 L 84.496094 746.628906 L 53.871094 746.628906 C 49.308594 746.628906 45.578125 750.359375 45.578125 754.917969 C 45.578125 759.480469 49.308594 763.210938 53.871094 763.210938 L 135.535156 763.210938 C 140.097656 763.210938 143.828125 759.480469 143.828125 754.917969 Z M 143.828125 754.917969 " fill-opacity="1" fill-rule="nonzero"/><path fill="rgb(65.879822%, 65.879822%, 65.879822%)" d="M 140.570312 291.214844 C 140.570312 291.214844 144.085938 287.808594 148.648438 288.238281 C 149.855469 279.707031 152.714844 271.78125 156.882812 264.742188 C 135.257812 262.179688 109.457031 269.015625 91.480469 311.835938 C 71.859375 358.5625 52.96875 358.925781 40.703125 352.765625 C 28.4375 346.609375 48.324219 384.117188 91.070312 366.757812 C 133.808594 349.394531 140.570312 291.214844 140.570312 291.214844 Z M 140.570312 291.214844 " fill-opacity="1" fill-rule="nonzero"/><path fill="rgb(65.879822%, 65.879822%, 65.879822%)" d="M 154.21875 290.5 C 150.566406 322.078125 173.152344 350.605469 204.648438 354.207031 C 236.148438 357.816406 264.648438 335.140625 268.300781 303.566406 C 271.957031 271.980469 249.367188 243.460938 217.871094 239.855469 C 186.371094 236.246094 157.871094 258.917969 154.21875 290.5 Z M 154.21875 290.5 " fill-opacity="1" fill-rule="nonzero"/><path fill="rgb(65.879822%, 65.879822%, 65.879822%)" d="M 253.503906 426.511719 L 282.464844 373.136719 C 286.007812 371.964844 301.28125 368.332031 332.742188 378.886719 L 337.121094 380.351562 L 336.785156 375.75 C 336.609375 373.347656 340.863281 367.261719 345.292969 362.542969 C 347.414062 362.949219 351.367188 363.78125 354.984375 364.984375 L 343.914062 386.714844 L 293.042969 383.972656 L 273.199219 421.601562 L 310.152344 412.386719 C 311.941406 411.941406 313.773438 411.714844 315.597656 411.714844 C 325.152344 411.714844 333.527344 417.71875 336.703125 426.5625 L 368.824219 359.308594 L 362.4375 358.058594 L 360.058594 357.589844 L 358.894531 359.867188 C 352.722656 357.503906 345.054688 356.257812 344.703125 356.199219 L 343.148438 355.953125 L 342.039062 357.066406 C 340.429688 358.683594 333.65625 365.742188 331.386719 371.984375 C 294.734375 360.398438 279.578125 367.613281 278.929688 367.933594 L 278.066406 368.367188 L 245.421875 428.523438 Z M 253.503906 426.511719 " fill-opacity="1" fill-rule="nonzero"/><path fill="rgb(65.879822%, 65.879822%, 65.879822%)" d="M 321.019531 455.957031 L 264.390625 470.078125 L 315.878906 470.15625 L 322.9375 455.375 C 322.308594 455.59375 321.671875 455.792969 321.019531 455.957031 Z M 321.019531 455.957031 " fill-opacity="1" fill-rule="nonzero"/><path fill="rgb(65.879822%, 65.879822%, 65.879822%)" d="M 143.316406 393.503906 C 137.765625 400.789062 139.175781 411.195312 146.464844 416.746094 L 216.007812 469.691406 C 218.921875 471.910156 222.460938 473.078125 226.054688 473.078125 C 227.394531 473.078125 228.746094 472.917969 230.070312 472.585938 L 319.601562 450.261719 C 328.488281 448.046875 333.898438 439.042969 331.679688 430.15625 C 329.460938 421.269531 320.472656 415.863281 311.570312 418.078125 L 229.765625 438.476562 L 166.558594 390.355469 C 159.277344 384.808594 148.867188 386.214844 143.316406 393.503906 Z M 143.316406 393.503906 " fill-opacity="1" fill-rule="nonzero"/><path fill="rgb(65.879822%, 65.879822%, 65.879822%)" d="M 760.027344 506.476562 C 760.027344 508.222656 759.941406 509.964844 759.769531 511.703125 C 759.597656 513.441406 759.339844 515.167969 759 516.882812 C 758.660156 518.597656 758.234375 520.289062 757.726562 521.960938 C 757.222656 523.632812 756.632812 525.277344 755.964844 526.890625 C 755.296875 528.507812 754.550781 530.085938 753.726562 531.625 C 752.902344 533.167969 752.003906 534.664062 751.03125 536.117188 C 750.0625 537.570312 749.023438 538.972656 747.914062 540.320312 C 746.804688 541.671875 745.632812 542.964844 744.398438 544.203125 C 743.160156 545.4375 741.867188 546.609375 740.515625 547.71875 C 739.164062 548.828125 737.761719 549.867188 736.308594 550.835938 C 734.855469 551.808594 733.359375 552.703125 731.820312 553.527344 C 730.277344 554.351562 728.699219 555.097656 727.085938 555.765625 C 725.46875 556.4375 723.828125 557.023438 722.15625 557.53125 C 720.480469 558.039062 718.789062 558.460938 717.074219 558.804688 C 715.359375 559.144531 713.632812 559.398438 711.894531 559.570312 C 710.15625 559.742188 708.410156 559.828125 706.664062 559.828125 C 704.917969 559.828125 703.171875 559.742188 701.433594 559.570312 C 699.695312 559.398438 697.96875 559.144531 696.253906 558.804688 C 694.539062 558.460938 692.847656 558.039062 691.175781 557.53125 C 689.5 557.023438 687.859375 556.4375 686.242188 555.765625 C 684.628906 555.097656 683.050781 554.351562 681.507812 553.527344 C 679.96875 552.703125 678.472656 551.808594 677.019531 550.835938 C 675.566406 549.867188 674.164062 548.828125 672.8125 547.71875 C 671.460938 546.609375 670.167969 545.4375 668.933594 544.203125 C 667.695312 542.964844 666.523438 541.671875 665.414062 540.320312 C 664.304688 538.972656 663.265625 537.570312 662.296875 536.117188 C 661.324219 534.664062 660.425781 533.167969 659.601562 531.625 C 658.78125 530.085938 658.03125 528.507812 657.363281 526.890625 C 656.695312 525.277344 656.109375 523.632812 655.601562 521.960938 C 655.09375 520.289062 654.667969 518.597656 654.328125 516.882812 C 653.988281 515.167969 653.730469 513.441406 653.558594 511.703125 C 653.386719 509.964844 653.300781 508.222656 653.300781 506.476562 C 653.300781 504.726562 653.386719 502.984375 653.558594 501.246094 C 653.730469 499.507812 653.988281 497.78125 654.328125 496.066406 C 654.667969 494.351562 655.09375 492.660156 655.601562 490.988281 C 656.109375 489.316406 656.695312 487.671875 657.363281 486.058594 C 658.03125 484.441406 658.78125 482.863281 659.601562 481.324219 C 660.425781 479.78125 661.324219 478.285156 662.296875 476.832031 C 663.265625 475.378906 664.304688 473.976562 665.414062 472.628906 C 666.523438 471.277344 667.695312 469.984375 668.933594 468.75 C 670.167969 467.511719 671.460938 466.339844 672.8125 465.230469 C 674.164062 464.125 675.566406 463.082031 677.019531 462.113281 C 678.472656 461.140625 679.96875 460.246094 681.507812 459.421875 C 683.050781 458.597656 684.628906 457.851562 686.242188 457.183594 C 687.859375 456.515625 689.5 455.925781 691.175781 455.417969 C 692.847656 454.910156 694.539062 454.488281 696.253906 454.144531 C 697.96875 453.804688 699.695312 453.550781 701.433594 453.378906 C 703.171875 453.207031 704.917969 453.121094 706.664062 453.121094 C 708.410156 453.121094 710.15625 453.207031 711.894531 453.378906 C 713.632812 453.550781 715.359375 453.804688 717.074219 454.144531 C 718.789062 454.488281 720.480469 454.910156 722.15625 455.417969 C 723.828125 455.925781 725.46875 456.515625 727.085938 457.183594 C 728.699219 457.851562 730.277344 458.597656 731.820312 459.421875 C 733.359375 460.246094 734.855469 461.140625 736.308594 462.113281 C 737.761719 463.082031 739.164062 464.125 740.515625 465.230469 C 741.867188 466.339844 743.160156 467.511719 744.398438 468.75 C 745.632812 469.984375 746.804688 471.277344 747.914062 472.628906 C 749.023438 473.976562 750.0625 475.378906 751.03125 476.832031 C 752.003906 478.285156 752.902344 479.78125 753.726562 481.324219 C 754.550781 482.863281 755.296875 484.441406 755.964844 486.058594 C 756.632812 487.671875 757.222656 489.316406 757.726562 490.988281 C 758.234375 492.660156 758.660156 494.351562 759 496.066406 C 759.339844 497.78125 759.597656 499.507812 759.769531 501.246094 C 759.941406 502.984375 760.027344 504.726562 760.027344 506.476562 Z M 760.027344 506.476562 " fill-opacity="1" fill-rule="nonzero"/><path fill="rgb(65.879822%, 65.879822%, 65.879822%)" d="M 562.726562 739.824219 C 564.46875 752.449219 575.261719 761.859375 588.007812 761.859375 L 714.796875 761.859375 C 718.179688 761.859375 721.398438 761.183594 724.355469 759.988281 C 735.355469 757.386719 745.417969 750.113281 752.070312 733.84375 C 765.785156 690.074219 767.21875 662.808594 759.253906 618.808594 C 753.265625 586.835938 727.324219 571.699219 707.523438 572.039062 C 687.726562 572.378906 675.09375 594.753906 677.929688 616.230469 C 678.175781 622.761719 678.535156 629.972656 678.835938 637.558594 L 692.054688 607.976562 C 695.457031 600.355469 703.054688 595.429688 711.402344 595.429688 C 714.390625 595.429688 717.292969 596.046875 720.03125 597.277344 C 725.195312 599.578125 729.15625 603.761719 731.175781 609.042969 C 733.199219 614.324219 733.039062 620.082031 730.730469 625.25 L 701.382812 690.949219 C 699.199219 695.851562 695.269531 699.710938 690.320312 701.8125 L 625.667969 729.242188 C 623.027344 730.359375 620.246094 730.925781 617.402344 730.925781 C 608.882812 730.925781 601.226562 725.859375 597.898438 718.015625 C 596.4375 714.578125 595.96875 710.96875 596.347656 707.496094 L 581.105469 711.777344 C 568.835938 715.222656 560.988281 727.195312 562.726562 739.824219 Z M 562.726562 739.824219 " fill-opacity="1" fill-rule="nonzero"/><path fill="rgb(65.879822%, 65.879822%, 65.879822%)" d="M 603.304688 715.71875 C 605.78125 721.550781 611.445312 725.054688 617.40625 725.054688 C 619.398438 725.054688 621.429688 724.660156 623.378906 723.832031 L 688.03125 696.402344 C 691.59375 694.890625 694.453125 692.085938 696.03125 688.550781 L 725.378906 622.847656 C 728.828125 615.128906 725.363281 606.074219 717.640625 602.625 C 709.929688 599.179688 700.867188 602.640625 697.414062 610.363281 L 670.523438 670.566406 L 611.417969 695.644531 C 603.632812 698.949219 600 707.9375 603.304688 715.71875 Z M 603.304688 715.71875 " fill-opacity="1" fill-rule="nonzero"/></svg>