<?xml version="1.0" encoding="UTF-8"?><svg xmlns="http://www.w3.org/2000/svg" xmlns:xlink="http://www.w3.org/1999/xlink" width="768" zoomAndPan="magnify" viewBox="0 0 768 767.999994" height="767.999994" preserveAspectRatio="xMidYMid meet" version="1.0"><defs><clipPath id="clip-0"><path d="M 0 384 L 217 384 L 217 767.699219 L 0 767.699219 Z M 0 384 " clip-rule="nonzero"/></clipPath><clipPath id="clip-1"><path d="M 521 349 L 768 349 L 768 767.699219 L 521 767.699219 Z M 521 349 " clip-rule="nonzero"/></clipPath><clipPath id="clip-2"><path d="M 544 235.199219 L 666 235.199219 L 666 357 L 544 357 Z M 544 235.199219 " clip-rule="nonzero"/></clipPath></defs><path fill="rgb(65.879822%, 65.879822%, 65.879822%)" d="M 442.570312 447.191406 L 430.957031 456.867188 L 438.417969 465.816406 L 445.6875 459.765625 C 445.144531 458.722656 444.640625 457.664062 444.230469 456.542969 C 443.097656 453.457031 442.585938 450.300781 442.570312 447.191406 Z M 442.570312 447.191406 " fill-opacity="1" fill-rule="nonzero"/><path fill="rgb(65.879822%, 65.879822%, 65.879822%)" d="M 487.582031 413.824219 C 489.25 413.949219 490.910156 414.226562 492.523438 414.652344 L 498.085938 416.109375 L 505.859375 409.632812 L 498.394531 400.683594 L 482.488281 413.933594 C 484.171875 413.75 485.871094 413.691406 487.582031 413.824219 Z M 487.582031 413.824219 " fill-opacity="1" fill-rule="nonzero"/><path fill="rgb(65.879822%, 65.879822%, 65.879822%)" d="M 427.074219 460.101562 L 414.46875 478.183594 L 434.539062 469.046875 Z M 427.074219 460.101562 " fill-opacity="1" fill-rule="nonzero"/><path fill="rgb(65.879822%, 65.879822%, 65.879822%)" d="M 198.703125 508.109375 C 201.296875 508.109375 203.910156 507.488281 206.308594 506.207031 C 208.875 504.835938 210.914062 502.824219 212.375 500.472656 L 190.265625 505.6875 C 192.828125 507.257812 195.746094 508.109375 198.703125 508.109375 Z M 198.703125 508.109375 " fill-opacity="1" fill-rule="nonzero"/><path fill="rgb(65.879822%, 65.879822%, 65.879822%)" d="M 528.746094 527.390625 L 548.46875 527.390625 L 548.46875 513.949219 L 184.90625 513.949219 L 184.90625 527.390625 L 204.628906 527.390625 L 204.628906 551.132812 L 219.199219 551.132812 L 219.199219 765.328125 L 236.679688 765.328125 L 236.679688 734.253906 L 496.695312 734.253906 L 496.695312 765.328125 L 514.179688 765.328125 L 514.179688 551.132812 L 528.746094 551.132812 Z M 496.695312 716.785156 L 236.679688 716.785156 L 236.679688 551.132812 L 496.695312 551.132812 Z M 496.695312 716.785156 " fill-opacity="1" fill-rule="nonzero"/><g clip-path="url(#clip-0)"><path fill="rgb(65.879822%, 65.879822%, 65.879822%)" d="M 17.425781 767.828125 L 21.328125 743.703125 C 21.414062 743.703125 21.496094 743.726562 21.585938 743.726562 L 148.894531 743.726562 C 148.984375 743.726562 149.066406 743.703125 149.152344 743.703125 L 153.058594 767.828125 L 170.140625 765.148438 L 143.523438 600.589844 L 148.894531 600.589844 C 149.550781 600.589844 150.1875 600.519531 150.804688 600.394531 L 163.546875 678.273438 C 165.707031 691.453125 177.113281 700.820312 190.054688 700.816406 C 191.496094 700.816406 192.960938 700.699219 194.429688 700.460938 C 209.085938 698.0625 219.027344 684.246094 216.628906 669.59375 L 199.585938 565.453125 C 197.457031 552.457031 186.222656 542.910156 173.042969 542.910156 L 129.671875 542.910156 C 129.890625 525.921875 132.640625 508.375 136.050781 491.898438 L 97.21875 458.144531 C 92.71875 454.230469 90.015625 448.800781 89.601562 442.859375 C 89.1875 436.914062 91.113281 431.160156 95.027344 426.667969 C 99.269531 421.792969 105.410156 418.996094 111.882812 418.996094 C 117.261719 418.996094 122.464844 420.945312 126.523438 424.472656 L 172.121094 464.117188 L 207.890625 455.679688 L 196.144531 396.980469 C 194.785156 390.195312 189.34375 385.277344 182.890625 384.234375 C 178.378906 392.222656 172.15625 399.121094 164.722656 404.4375 L 172.414062 442.878906 L 143.722656 414.183594 C 138.847656 415.410156 133.75 416.066406 128.5 416.066406 C 114.988281 416.066406 102.472656 411.738281 92.242188 404.414062 C 79.449219 410.144531 67.457031 421.113281 60.597656 438.476562 C 43.5625 482.398438 39.589844 510.882812 45.023438 558.894531 C 47.035156 568.9375 50.675781 576.332031 55.363281 581.777344 L 21.585938 581.777344 C 16.40625 581.777344 12.171875 586.011719 12.171875 591.183594 C 12.171875 596.359375 16.40625 600.59375 21.585938 600.59375 L 26.957031 600.59375 L 0.339844 765.152344 Z M 126.003906 600.589844 L 146.113281 724.910156 L 24.367188 724.910156 L 44.476562 600.589844 Z M 126.003906 600.589844 " fill-opacity="1" fill-rule="nonzero"/></g><g clip-path="url(#clip-1)"><path fill="rgb(65.879822%, 65.879822%, 65.879822%)" d="M 742.652344 743.726562 C 742.742188 743.726562 742.820312 743.703125 742.910156 743.703125 L 746.8125 767.828125 L 763.898438 765.148438 L 737.277344 600.589844 L 742.652344 600.589844 C 747.828125 600.589844 752.066406 596.355469 752.066406 591.183594 C 752.066406 586.007812 747.828125 581.773438 742.652344 581.773438 L 740.078125 581.773438 C 755.011719 574.414062 767.019531 560.472656 767.765625 532.21875 C 764.785156 472.175781 755.089844 438.011719 728.105469 387.535156 C 708.261719 350.941406 673.378906 344.125 651.675781 353.550781 C 636.28125 360.230469 629.496094 378.90625 631.121094 398.167969 L 661.578125 374.425781 C 667.023438 370.183594 673.8125 368.128906 680.695312 368.652344 C 688.464844 369.238281 695.667969 373.09375 700.460938 379.234375 C 709.851562 391.269531 707.695312 408.703125 695.648438 418.089844 L 649.6875 453.921875 C 657.59375 475.210938 665.582031 498.90625 670.1875 522.621094 L 583.832031 522.621094 C 567.394531 522.621094 553.367188 534.503906 550.667969 550.707031 L 522.320312 721.089844 C 519.273438 739.394531 531.652344 756.703125 549.96875 759.746094 C 551.835938 760.058594 553.691406 760.207031 555.523438 760.207031 C 571.664062 760.207031 585.910156 748.550781 588.644531 732.113281 L 610.738281 599.335938 C 612.109375 600.113281 613.664062 600.59375 615.339844 600.59375 L 620.714844 600.59375 L 594.097656 765.152344 L 611.179688 767.828125 L 615.082031 743.703125 C 615.171875 743.707031 615.253906 743.730469 615.339844 743.730469 L 742.652344 743.730469 Z M 638.230469 600.589844 L 719.761719 600.589844 L 739.871094 724.910156 L 618.121094 724.910156 Z M 638.230469 600.589844 " fill-opacity="1" fill-rule="nonzero"/></g><path fill="rgb(65.879822%, 65.879822%, 65.879822%)" d="M 261.847656 454.023438 L 271.996094 430.390625 L 261.285156 425.796875 L 251.714844 448.089844 C 255.601562 449.128906 259.085938 451.199219 261.847656 454.023438 Z M 261.847656 454.023438 " fill-opacity="1" fill-rule="nonzero"/><path fill="rgb(65.879822%, 65.879822%, 65.879822%)" d="M 226.664062 506.4375 L 237.371094 511.03125 L 245.230469 492.722656 L 231.121094 496.050781 Z M 226.664062 506.4375 " fill-opacity="1" fill-rule="nonzero"/><path fill="rgb(65.879822%, 65.879822%, 65.879822%)" d="M 273.984375 425.753906 L 277.015625 403.921875 L 263.277344 421.160156 Z M 273.984375 425.753906 " fill-opacity="1" fill-rule="nonzero"/><path fill="rgb(65.879822%, 65.879822%, 65.879822%)" d="M 122.460938 429.140625 C 115.738281 423.292969 105.542969 424.003906 99.695312 430.726562 C 93.84375 437.445312 94.558594 447.632812 101.28125 453.480469 L 155.519531 500.628906 C 158.488281 503.210938 162.257812 504.589844 166.109375 504.589844 C 167.34375 504.589844 168.589844 504.449219 169.816406 504.160156 L 249.605469 485.34375 C 258.277344 483.296875 263.652344 474.613281 261.605469 465.941406 C 259.554688 457.273438 250.851562 451.902344 242.191406 453.945312 L 170.457031 470.867188 Z M 122.460938 429.140625 " fill-opacity="1" fill-rule="nonzero"/><path fill="rgb(65.879822%, 65.879822%, 65.879822%)" d="M 253.890625 501.273438 L 392.925781 501.273438 L 392.925781 506.199219 L 253.890625 506.199219 Z M 253.890625 501.273438 " fill-opacity="1" fill-rule="nonzero"/><path fill="rgb(65.879822%, 65.879822%, 65.879822%)" d="M 404.953125 501.273438 L 543.988281 501.273438 L 543.988281 506.199219 L 404.953125 506.199219 Z M 404.953125 501.273438 " fill-opacity="1" fill-rule="nonzero"/><path fill="rgb(65.879822%, 65.879822%, 65.879822%)" d="M 128.5 409.882812 C 159.566406 409.882812 184.738281 384.714844 184.738281 353.675781 C 184.738281 322.628906 159.566406 297.46875 128.5 297.46875 C 97.441406 297.46875 72.265625 322.628906 72.265625 353.675781 C 72.265625 384.714844 97.441406 409.882812 128.5 409.882812 Z M 155.253906 328.984375 C 159.488281 327.242188 164.335938 329.257812 166.082031 333.488281 C 167.828125 337.71875 165.808594 342.566406 161.578125 344.308594 C 157.34375 346.054688 152.496094 344.039062 150.75 339.808594 C 149.003906 335.578125 151.019531 330.730469 155.253906 328.984375 Z M 121.066406 343.078125 C 125.296875 341.332031 130.148438 343.347656 131.894531 347.578125 C 133.636719 351.808594 131.621094 356.65625 127.386719 358.402344 C 123.15625 360.144531 118.304688 358.128906 116.558594 353.898438 C 114.816406 349.667969 116.832031 344.824219 121.066406 343.078125 Z M 121.066406 343.078125 " fill-opacity="1" fill-rule="nonzero"/><path fill="rgb(65.879822%, 65.879822%, 65.879822%)" d="M 194.886719 267.308594 C 194.886719 267.75 194.84375 268.1875 194.757812 268.621094 C 194.671875 269.050781 194.542969 269.472656 194.375 269.878906 C 194.207031 270.289062 194 270.675781 193.753906 271.042969 C 193.507812 271.410156 193.230469 271.75 192.917969 272.0625 C 192.605469 272.371094 192.265625 272.652344 191.898438 272.894531 C 191.53125 273.140625 191.144531 273.347656 190.734375 273.515625 C 190.328125 273.6875 189.90625 273.8125 189.476562 273.898438 C 189.042969 273.984375 188.605469 274.027344 188.164062 274.027344 C 187.722656 274.027344 187.285156 273.984375 186.851562 273.898438 C 186.417969 273.8125 185.996094 273.6875 185.589844 273.515625 C 185.183594 273.347656 184.792969 273.140625 184.425781 272.894531 C 184.058594 272.652344 183.71875 272.371094 183.410156 272.0625 C 183.097656 271.75 182.816406 271.410156 182.574219 271.042969 C 182.328125 270.675781 182.121094 270.289062 181.949219 269.878906 C 181.78125 269.472656 181.65625 269.050781 181.566406 268.621094 C 181.480469 268.1875 181.4375 267.75 181.4375 267.308594 C 181.4375 266.867188 181.480469 266.429688 181.566406 265.996094 C 181.65625 265.566406 181.78125 265.144531 181.949219 264.738281 C 182.121094 264.328125 182.328125 263.941406 182.574219 263.574219 C 182.816406 263.207031 183.097656 262.867188 183.410156 262.558594 C 183.71875 262.246094 184.058594 261.964844 184.425781 261.722656 C 184.792969 261.476562 185.183594 261.269531 185.589844 261.101562 C 185.996094 260.929688 186.417969 260.804688 186.851562 260.71875 C 187.285156 260.632812 187.722656 260.589844 188.164062 260.589844 C 188.605469 260.589844 189.042969 260.632812 189.476562 260.71875 C 189.90625 260.804688 190.328125 260.929688 190.734375 261.101562 C 191.144531 261.269531 191.53125 261.476562 191.898438 261.722656 C 192.265625 261.964844 192.605469 262.246094 192.917969 262.558594 C 193.230469 262.867188 193.507812 263.207031 193.753906 263.574219 C 194 263.941406 194.207031 264.328125 194.375 264.738281 C 194.542969 265.144531 194.671875 265.566406 194.757812 265.996094 C 194.84375 266.429688 194.886719 266.867188 194.886719 267.308594 Z M 194.886719 267.308594 " fill-opacity="1" fill-rule="nonzero"/><path fill="rgb(65.879822%, 65.879822%, 65.879822%)" d="M 231.867188 267.308594 C 231.867188 267.75 231.824219 268.1875 231.738281 268.621094 C 231.652344 269.050781 231.523438 269.472656 231.355469 269.878906 C 231.1875 270.289062 230.980469 270.675781 230.734375 271.042969 C 230.488281 271.410156 230.210938 271.75 229.898438 272.0625 C 229.585938 272.371094 229.246094 272.652344 228.878906 272.894531 C 228.511719 273.140625 228.125 273.347656 227.71875 273.515625 C 227.308594 273.6875 226.886719 273.8125 226.457031 273.898438 C 226.023438 273.984375 225.585938 274.027344 225.144531 274.027344 C 224.703125 274.027344 224.265625 273.984375 223.832031 273.898438 C 223.398438 273.8125 222.980469 273.6875 222.570312 273.515625 C 222.164062 273.347656 221.773438 273.140625 221.410156 272.894531 C 221.042969 272.652344 220.703125 272.371094 220.390625 272.0625 C 220.078125 271.75 219.796875 271.410156 219.554688 271.042969 C 219.308594 270.675781 219.101562 270.289062 218.933594 269.878906 C 218.761719 269.472656 218.636719 269.050781 218.550781 268.621094 C 218.464844 268.1875 218.421875 267.75 218.421875 267.308594 C 218.421875 266.867188 218.464844 266.429688 218.550781 265.996094 C 218.636719 265.566406 218.761719 265.144531 218.933594 264.738281 C 219.101562 264.328125 219.308594 263.941406 219.554688 263.574219 C 219.796875 263.207031 220.078125 262.867188 220.390625 262.558594 C 220.703125 262.246094 221.042969 261.964844 221.410156 261.722656 C 221.773438 261.476562 222.164062 261.269531 222.570312 261.101562 C 222.980469 260.929688 223.398438 260.804688 223.832031 260.71875 C 224.265625 260.632812 224.703125 260.589844 225.144531 260.589844 C 225.585938 260.589844 226.023438 260.632812 226.457031 260.71875 C 226.886719 260.804688 227.308594 260.929688 227.71875 261.101562 C 228.125 261.269531 228.511719 261.476562 228.878906 261.722656 C 229.246094 261.964844 229.585938 262.246094 229.898438 262.558594 C 230.210938 262.867188 230.488281 263.207031 230.734375 263.574219 C 230.980469 263.941406 231.1875 264.328125 231.355469 264.738281 C 231.523438 265.144531 231.652344 265.566406 231.738281 265.996094 C 231.824219 266.429688 231.867188 266.867188 231.867188 267.308594 Z M 231.867188 267.308594 " fill-opacity="1" fill-rule="nonzero"/><path fill="rgb(65.879822%, 65.879822%, 65.879822%)" d="M 268.847656 267.308594 C 268.847656 267.75 268.804688 268.1875 268.71875 268.621094 C 268.632812 269.050781 268.503906 269.472656 268.335938 269.878906 C 268.167969 270.289062 267.960938 270.675781 267.714844 271.042969 C 267.46875 271.410156 267.191406 271.75 266.878906 272.0625 C 266.566406 272.371094 266.226562 272.652344 265.859375 272.894531 C 265.492188 273.140625 265.105469 273.347656 264.699219 273.515625 C 264.289062 273.6875 263.871094 273.8125 263.4375 273.898438 C 263.003906 273.984375 262.566406 274.027344 262.125 274.027344 C 261.683594 274.027344 261.246094 273.984375 260.8125 273.898438 C 260.378906 273.8125 259.960938 273.6875 259.550781 273.515625 C 259.144531 273.347656 258.757812 273.140625 258.390625 272.894531 C 258.023438 272.652344 257.683594 272.371094 257.371094 272.0625 C 257.058594 271.75 256.777344 271.410156 256.535156 271.042969 C 256.289062 270.675781 256.082031 270.289062 255.914062 269.878906 C 255.742188 269.472656 255.617188 269.050781 255.53125 268.621094 C 255.445312 268.1875 255.402344 267.75 255.402344 267.308594 C 255.402344 266.867188 255.445312 266.429688 255.53125 265.996094 C 255.617188 265.566406 255.742188 265.144531 255.914062 264.738281 C 256.082031 264.328125 256.289062 263.941406 256.535156 263.574219 C 256.777344 263.207031 257.058594 262.867188 257.371094 262.558594 C 257.683594 262.246094 258.023438 261.964844 258.390625 261.722656 C 258.757812 261.476562 259.144531 261.269531 259.550781 261.101562 C 259.960938 260.929688 260.378906 260.804688 260.8125 260.71875 C 261.246094 260.632812 261.683594 260.589844 262.125 260.589844 C 262.566406 260.589844 263.003906 260.632812 263.4375 260.71875 C 263.871094 260.804688 264.289062 260.929688 264.699219 261.101562 C 265.105469 261.269531 265.492188 261.476562 265.859375 261.722656 C 266.226562 261.964844 266.566406 262.246094 266.878906 262.558594 C 267.191406 262.867188 267.46875 263.207031 267.714844 263.574219 C 267.960938 263.941406 268.167969 264.328125 268.335938 264.738281 C 268.503906 265.144531 268.632812 265.566406 268.71875 265.996094 C 268.804688 266.429688 268.847656 266.867188 268.847656 267.308594 Z M 268.847656 267.308594 " fill-opacity="1" fill-rule="nonzero"/><path fill="rgb(65.879822%, 65.879822%, 65.879822%)" d="M 695.582031 383.03125 C 688.265625 373.664062 674.75 371.996094 665.378906 379.300781 L 581.820312 444.441406 L 490.957031 420.628906 C 486.707031 419.511719 482.21875 419.730469 478.09375 421.238281 L 462.835938 426.828125 C 451.679688 430.914062 445.949219 443.265625 450.039062 454.417969 C 454.128906 465.570312 466.484375 471.296875 477.644531 467.210938 L 486.566406 463.945312 L 581.203125 488.742188 C 582.472656 489.078125 583.753906 489.289062 585.042969 489.386719 C 590.335938 489.785156 595.636719 488.21875 599.894531 484.898438 L 691.847656 413.21875 C 701.214844 405.910156 702.886719 392.398438 695.582031 383.03125 Z M 695.582031 383.03125 " fill-opacity="1" fill-rule="nonzero"/><g clip-path="url(#clip-2)"><path fill="rgb(65.879822%, 65.879822%, 65.879822%)" d="M 665.175781 295.679688 C 665.175781 297.660156 665.078125 299.636719 664.882812 301.609375 C 664.691406 303.582031 664.398438 305.539062 664.011719 307.480469 C 663.625 309.421875 663.144531 311.34375 662.570312 313.238281 C 661.996094 315.132812 661.328125 316.996094 660.570312 318.824219 C 659.808594 320.65625 658.964844 322.445312 658.03125 324.191406 C 657.09375 325.9375 656.078125 327.636719 654.976562 329.28125 C 653.875 330.929688 652.695312 332.519531 651.4375 334.050781 C 650.183594 335.582031 648.851562 337.046875 647.449219 338.449219 C 646.050781 339.847656 644.582031 341.175781 643.050781 342.433594 C 641.519531 343.691406 639.929688 344.867188 638.28125 345.96875 C 636.632812 347.070312 634.933594 348.085938 633.1875 349.019531 C 631.441406 349.953125 629.648438 350.800781 627.820312 351.558594 C 625.988281 352.316406 624.125 352.984375 622.226562 353.558594 C 620.332031 354.132812 618.410156 354.613281 616.46875 355 C 614.523438 355.386719 612.566406 355.675781 610.59375 355.871094 C 608.621094 356.066406 606.644531 356.160156 604.660156 356.160156 C 602.679688 356.160156 600.703125 356.066406 598.730469 355.871094 C 596.757812 355.675781 594.800781 355.386719 592.855469 355 C 590.910156 354.613281 588.992188 354.132812 587.09375 353.558594 C 585.199219 352.984375 583.335938 352.316406 581.503906 351.558594 C 579.671875 350.800781 577.882812 349.953125 576.136719 349.019531 C 574.386719 348.085938 572.6875 347.070312 571.042969 345.96875 C 569.394531 344.867188 567.804688 343.691406 566.273438 342.433594 C 564.738281 341.175781 563.273438 339.847656 561.871094 338.449219 C 560.46875 337.046875 559.140625 335.582031 557.882812 334.050781 C 556.625 332.519531 555.445312 330.929688 554.34375 329.28125 C 553.246094 327.636719 552.226562 325.9375 551.292969 324.191406 C 550.359375 322.445312 549.511719 320.65625 548.753906 318.824219 C 547.996094 316.996094 547.328125 315.132812 546.753906 313.238281 C 546.175781 311.34375 545.695312 309.421875 545.308594 307.480469 C 544.921875 305.539062 544.632812 303.582031 544.4375 301.609375 C 544.246094 299.636719 544.148438 297.660156 544.148438 295.679688 C 544.148438 293.699219 544.246094 291.722656 544.4375 289.753906 C 544.632812 287.78125 544.921875 285.824219 545.308594 283.882812 C 545.695312 281.9375 546.175781 280.019531 546.753906 278.125 C 547.328125 276.230469 547.996094 274.367188 548.753906 272.535156 C 549.511719 270.707031 550.359375 268.917969 551.292969 267.171875 C 552.226562 265.421875 553.246094 263.726562 554.34375 262.078125 C 555.445312 260.433594 556.625 258.84375 557.882812 257.3125 C 559.140625 255.78125 560.46875 254.316406 561.871094 252.914062 C 563.273438 251.515625 564.738281 250.183594 566.273438 248.929688 C 567.804688 247.671875 569.394531 246.492188 571.042969 245.394531 C 572.6875 244.292969 574.386719 243.277344 576.136719 242.339844 C 577.882812 241.40625 579.671875 240.5625 581.503906 239.804688 C 583.335938 239.046875 585.199219 238.378906 587.09375 237.804688 C 588.992188 237.230469 590.910156 236.75 592.855469 236.363281 C 594.800781 235.976562 596.757812 235.6875 598.730469 235.492188 C 600.703125 235.296875 602.679688 235.199219 604.660156 235.199219 C 606.644531 235.199219 608.621094 235.296875 610.59375 235.492188 C 612.566406 235.6875 614.523438 235.976562 616.46875 236.363281 C 618.410156 236.75 620.332031 237.230469 622.226562 237.804688 C 624.125 238.378906 625.988281 239.046875 627.820312 239.804688 C 629.648438 240.5625 631.441406 241.40625 633.1875 242.339844 C 634.933594 243.277344 636.632812 244.292969 638.28125 245.394531 C 639.929688 246.492188 641.519531 247.671875 643.050781 248.929688 C 644.582031 250.183594 646.050781 251.515625 647.449219 252.914062 C 648.851562 254.316406 650.183594 255.78125 651.4375 257.3125 C 652.695312 258.84375 653.875 260.433594 654.976562 262.078125 C 656.078125 263.726562 657.09375 265.421875 658.03125 267.171875 C 658.964844 268.917969 659.808594 270.707031 660.570312 272.535156 C 661.328125 274.367188 661.996094 276.230469 662.570312 278.125 C 663.144531 280.019531 663.625 281.9375 664.011719 283.882812 C 664.398438 285.824219 664.691406 287.78125 664.882812 289.753906 C 665.078125 291.722656 665.175781 293.699219 665.175781 295.679688 Z M 665.175781 295.679688 " fill-opacity="1" fill-rule="nonzero"/></g></svg>