<?xml version="1.0" encoding="UTF-8"?><svg xmlns="http://www.w3.org/2000/svg" xmlns:xlink="http://www.w3.org/1999/xlink" width="768" zoomAndPan="magnify" viewBox="0 0 768 767.999994" height="767.999994" preserveAspectRatio="xMidYMid meet" version="1.0"><defs><clipPath id="clip-0"><path d="M 242.171875 698.480469 L 311.789062 698.480469 L 311.789062 767.949219 L 242.171875 767.949219 Z M 242.171875 698.480469 " clip-rule="nonzero"/></clipPath><clipPath id="clip-1"><path d="M 322.574219 698.480469 L 392.191406 698.480469 L 392.191406 767.949219 L 322.574219 767.949219 Z M 322.574219 698.480469 " clip-rule="nonzero"/></clipPath></defs><path fill="rgb(65.879822%, 65.879822%, 65.879822%)" d="M 98.207031 570.925781 C 126.890625 570.925781 150.144531 547.675781 150.144531 518.996094 C 150.144531 490.3125 126.890625 467.0625 98.207031 467.0625 C 98.195312 467.0625 98.183594 467.066406 98.171875 467.066406 C 98.160156 467.066406 98.148438 467.0625 98.136719 467.0625 C 69.492188 467.0625 46.273438 490.28125 46.273438 518.921875 C 46.273438 518.9375 46.273438 518.945312 46.273438 518.957031 C 46.273438 518.96875 46.273438 518.984375 46.273438 518.996094 C 46.273438 547.675781 69.527344 570.925781 98.207031 570.925781 " fill-opacity="1" fill-rule="nonzero"/><path fill="rgb(65.879822%, 65.879822%, 65.879822%)" d="M 367.132812 284.546875 C 348.519531 311.296875 355.113281 348.070312 381.863281 366.683594 C 408.617188 385.300781 445.394531 378.707031 464.007812 351.957031 C 482.625 325.207031 476.027344 288.433594 449.28125 269.816406 C 422.527344 251.203125 385.75 257.800781 367.132812 284.546875 " fill-opacity="1" fill-rule="nonzero"/><path fill="rgb(65.879822%, 65.879822%, 65.879822%)" d="M 735.644531 697.453125 L 603.628906 697.144531 L 672.351562 614.914062 C 673.375 613.6875 674.257812 612.390625 675.066406 611.070312 C 700.042969 585.898438 701.609375 545.367188 677.820312 518.378906 L 557.914062 382.332031 C 533.09375 354.179688 490.148438 351.46875 461.996094 376.28125 C 457.5625 380.1875 453.835938 384.582031 450.671875 389.257812 C 443.964844 394.476562 439.308594 402.300781 438.390625 411.421875 L 426.4375 530.960938 L 318.746094 543.191406 C 301.078125 545.199219 288.386719 561.140625 290.394531 578.808594 C 292.257812 595.234375 306.183594 607.367188 322.335938 607.367188 C 323.546875 607.367188 324.777344 607.296875 326.007812 607.15625 L 459.515625 591.996094 C 474.578125 590.285156 486.40625 578.300781 487.914062 563.214844 L 492.832031 514.042969 L 575.851562 608.234375 C 579.003906 611.808594 582.46875 614.933594 586.132812 617.683594 L 510.210938 708.53125 C 502.207031 718.109375 500.460938 731.453125 505.734375 742.769531 C 511.007812 754.082031 522.351562 761.328125 534.839844 761.355469 L 735.492188 761.828125 C 735.519531 761.828125 735.542969 761.828125 735.574219 761.828125 C 753.3125 761.828125 767.71875 747.464844 767.757812 729.714844 C 767.800781 711.9375 753.425781 697.492188 735.644531 697.453125 " fill-opacity="1" fill-rule="nonzero"/><path fill="rgb(65.879822%, 65.879822%, 65.879822%)" d="M 220.640625 753.261719 C 227.882812 741.480469 224.207031 726.0625 212.429688 718.820312 L 153.132812 682.367188 C 146.875 678.519531 139.246094 677.617188 132.261719 679.890625 L 102.71875 689.515625 L 111.761719 645.628906 L 180.097656 660.730469 C 181.921875 661.132812 183.734375 661.328125 185.527344 661.328125 C 197.015625 661.328125 207.367188 653.367188 209.949219 641.691406 C 212.933594 628.1875 204.40625 614.824219 190.90625 611.84375 L 78.238281 586.945312 C 75.132812 586.257812 72.042969 586.207031 69.078125 586.660156 C 46.570312 585.566406 26.027344 600.925781 21.339844 623.667969 L 5.378906 701.109375 C 0.195312 726.261719 16.382812 750.847656 41.535156 756.03125 C 44.703125 756.683594 47.855469 756.996094 50.96875 756.996094 C 52.542969 756.996094 54.101562 756.894531 55.644531 756.734375 C 56.570312 756.664062 57.492188 756.546875 58.421875 756.371094 C 62.589844 755.6875 66.609375 754.453125 70.386719 752.710938 L 136.765625 731.082031 L 186.199219 761.472656 C 190.289062 763.988281 194.816406 765.1875 199.289062 765.1875 C 207.699219 765.1875 215.914062 760.949219 220.640625 753.261719 " fill-opacity="1" fill-rule="nonzero"/><g clip-path="url(#clip-0)"><path fill="rgb(65.879822%, 65.879822%, 65.879822%)" d="M 294.457031 767.949219 C 303.964844 767.949219 311.675781 760.242188 311.675781 750.734375 L 311.675781 715.699219 C 311.675781 706.191406 303.964844 698.480469 294.457031 698.480469 L 259.417969 698.480469 C 249.90625 698.480469 242.199219 706.191406 242.199219 715.699219 L 242.199219 750.734375 C 242.199219 760.242188 249.90625 767.949219 259.417969 767.949219 L 294.457031 767.949219 " fill-opacity="1" fill-rule="nonzero"/></g><g clip-path="url(#clip-1)"><path fill="rgb(65.879822%, 65.879822%, 65.879822%)" d="M 322.675781 715.699219 L 322.675781 750.734375 C 322.675781 760.242188 330.386719 767.949219 339.894531 767.949219 L 374.933594 767.949219 C 384.441406 767.949219 392.152344 760.242188 392.152344 750.734375 L 392.152344 715.699219 C 392.152344 706.191406 384.441406 698.480469 374.933594 698.480469 L 339.894531 698.480469 C 330.386719 698.480469 322.675781 706.191406 322.675781 715.699219 " fill-opacity="1" fill-rule="nonzero"/></g><path fill="rgb(65.879822%, 65.879822%, 65.879822%)" d="M 334.691406 620.261719 L 299.65625 620.261719 C 290.144531 620.261719 282.4375 627.96875 282.4375 637.480469 L 282.4375 672.515625 C 282.4375 682.023438 290.144531 689.730469 299.65625 689.730469 L 334.691406 689.730469 C 344.203125 689.730469 351.914062 682.023438 351.914062 672.515625 L 351.914062 637.480469 C 351.914062 627.96875 344.203125 620.261719 334.691406 620.261719 " fill-opacity="1" fill-rule="nonzero"/></svg>