<?xml version="1.0" encoding="UTF-8"?><svg xmlns="http://www.w3.org/2000/svg" xmlns:xlink="http://www.w3.org/1999/xlink" width="768" zoomAndPan="magnify" viewBox="0 0 768 767.999994" height="767.999994" preserveAspectRatio="xMidYMid meet" version="1.0"><path fill="rgb(65.879822%, 65.879822%, 65.879822%)" d="M 195.140625 429.488281 C 194.328125 424.847656 193.480469 420.210938 192.597656 415.582031 C 183.332031 417.355469 174.066406 419.121094 164.800781 420.890625 C 164.8125 420.976562 164.828125 421.058594 164.84375 421.144531 C 171.867188 423.5 179.734375 425.589844 188.609375 427.300781 C 190.933594 427.730469 193.109375 428.492188 195.140625 429.488281 Z M 195.140625 429.488281 " fill-opacity="1" fill-rule="nonzero"/><path fill="rgb(65.879822%, 65.879822%, 65.879822%)" d="M 179.121094 477.902344 C 177.273438 477.566406 175.46875 477.207031 173.679688 476.835938 C 186.054688 572.601562 183.769531 669.78125 166.789062 765.023438 L 195.539062 765.023438 C 197.609375 753.035156 199.402344 741.019531 201.027344 728.980469 L 306.308594 728.980469 L 306.308594 765.023438 L 334.609375 765.023438 L 334.609375 665.476562 L 340.613281 665.476562 L 340.613281 637.15625 L 209.050781 637.15625 C 211.25 581.796875 208.757812 526.300781 201.542969 471.265625 C 196.898438 475.675781 190.648438 478.34375 183.867188 478.34375 C 182.28125 478.34375 180.6875 478.199219 179.121094 477.902344 Z M 207.484375 665.476562 L 306.304688 665.476562 L 306.304688 713.53125 L 202.980469 713.53125 C 204.878906 697.542969 206.371094 681.519531 207.484375 665.476562 Z M 207.484375 665.476562 " fill-opacity="1" fill-rule="nonzero"/><path fill="rgb(65.879822%, 65.879822%, 65.879822%)" d="M 402.9375 386.578125 C 402.9375 388.339844 402.851562 390.101562 402.679688 391.855469 C 402.507812 393.609375 402.25 395.351562 401.90625 397.082031 C 401.5625 398.808594 401.132812 400.519531 400.621094 402.207031 C 400.109375 403.894531 399.519531 405.550781 398.84375 407.179688 C 398.167969 408.808594 397.417969 410.402344 396.585938 411.957031 C 395.757812 413.511719 394.851562 415.019531 393.871094 416.488281 C 392.894531 417.953125 391.84375 419.367188 390.726562 420.730469 C 389.609375 422.09375 388.429688 423.398438 387.183594 424.644531 C 385.9375 425.890625 384.632812 427.074219 383.269531 428.191406 C 381.910156 429.3125 380.496094 430.359375 379.03125 431.339844 C 377.566406 432.320312 376.054688 433.226562 374.5 434.054688 C 372.949219 434.886719 371.355469 435.640625 369.730469 436.316406 C 368.101562 436.988281 366.445312 437.582031 364.757812 438.09375 C 363.070312 438.605469 361.363281 439.035156 359.636719 439.378906 C 357.910156 439.722656 356.167969 439.980469 354.414062 440.152344 C 352.660156 440.328125 350.902344 440.414062 349.140625 440.414062 C 347.378906 440.414062 345.621094 440.328125 343.867188 440.152344 C 342.113281 439.980469 340.375 439.722656 338.644531 439.378906 C 336.917969 439.035156 335.210938 438.605469 333.523438 438.09375 C 331.839844 437.582031 330.179688 436.988281 328.554688 436.316406 C 326.925781 435.640625 325.335938 434.886719 323.78125 434.054688 C 322.226562 433.226562 320.71875 432.320312 319.253906 431.339844 C 317.789062 430.359375 316.375 429.3125 315.011719 428.191406 C 313.648438 427.074219 312.347656 425.890625 311.101562 424.644531 C 309.855469 423.398438 308.671875 422.09375 307.554688 420.730469 C 306.4375 419.367188 305.386719 417.953125 304.410156 416.488281 C 303.429688 415.019531 302.527344 413.511719 301.695312 411.957031 C 300.863281 410.402344 300.113281 408.808594 299.4375 407.179688 C 298.761719 405.550781 298.171875 403.894531 297.660156 402.207031 C 297.148438 400.519531 296.71875 398.808594 296.375 397.082031 C 296.03125 395.351562 295.773438 393.609375 295.601562 391.855469 C 295.429688 390.101562 295.34375 388.339844 295.34375 386.578125 C 295.34375 384.816406 295.429688 383.054688 295.601562 381.300781 C 295.773438 379.546875 296.03125 377.804688 296.375 376.074219 C 296.71875 374.347656 297.148438 372.636719 297.660156 370.949219 C 298.171875 369.265625 298.761719 367.605469 299.4375 365.976562 C 300.113281 364.347656 300.863281 362.757812 301.695312 361.199219 C 302.527344 359.644531 303.429688 358.136719 304.410156 356.667969 C 305.386719 355.203125 306.4375 353.789062 307.554688 352.425781 C 308.671875 351.0625 309.855469 349.757812 311.101562 348.511719 C 312.347656 347.265625 313.648438 346.082031 315.011719 344.964844 C 316.375 343.84375 317.789062 342.796875 319.253906 341.816406 C 320.71875 340.835938 322.226562 339.933594 323.78125 339.101562 C 325.335938 338.269531 326.925781 337.515625 328.554688 336.84375 C 330.179688 336.167969 331.839844 335.574219 333.523438 335.0625 C 335.210938 334.550781 336.917969 334.121094 338.644531 333.777344 C 340.375 333.433594 342.113281 333.175781 343.867188 333.003906 C 345.621094 332.832031 347.378906 332.742188 349.140625 332.742188 C 350.902344 332.742188 352.660156 332.832031 354.414062 333.003906 C 356.167969 333.175781 357.910156 333.433594 359.636719 333.777344 C 361.363281 334.121094 363.070312 334.550781 364.757812 335.0625 C 366.445312 335.574219 368.101562 336.167969 369.730469 336.84375 C 371.355469 337.515625 372.949219 338.269531 374.5 339.101562 C 376.054688 339.933594 377.566406 340.835938 379.03125 341.816406 C 380.496094 342.796875 381.910156 343.84375 383.269531 344.964844 C 384.632812 346.082031 385.9375 347.265625 387.183594 348.511719 C 388.429688 349.757812 389.609375 351.0625 390.726562 352.425781 C 391.84375 353.789062 392.894531 355.203125 393.871094 356.667969 C 394.851562 358.136719 395.757812 359.644531 396.585938 361.199219 C 397.417969 362.757812 398.167969 364.347656 398.84375 365.976562 C 399.519531 367.605469 400.109375 369.265625 400.621094 370.949219 C 401.132812 372.636719 401.5625 374.347656 401.90625 376.074219 C 402.25 377.804688 402.507812 379.546875 402.679688 381.300781 C 402.851562 383.054688 402.9375 384.816406 402.9375 386.578125 Z M 402.9375 386.578125 " fill-opacity="1" fill-rule="nonzero"/><path fill="rgb(65.879822%, 65.879822%, 65.879822%)" d="M 341.308594 556.007812 L 374.226562 556.007812 L 376.078125 572.414062 L 309.015625 572.464844 C 309.550781 549.824219 314.632812 526.261719 319.449219 505.972656 L 289.390625 499.492188 C 283.34375 498.183594 278.167969 494.609375 274.808594 489.402344 C 271.457031 484.203125 270.320312 478.003906 271.628906 471.957031 C 273.910156 461.359375 283.429688 453.667969 294.25 453.667969 C 295.886719 453.667969 297.527344 453.835938 299.140625 454.183594 L 324.546875 459.664062 C 321.367188 448.816406 313.988281 440.113281 303.070312 437.804688 C 283.53125 433.679688 254.960938 443.703125 242.914062 474.234375 C 226.613281 516.300781 222.8125 543.585938 228.015625 589.570312 C 233.847656 618.765625 254.023438 624.710938 273.097656 625.359375 C 274.867188 625.730469 276.699219 625.925781 278.582031 625.925781 L 278.582031 625.917969 L 356.285156 625.859375 L 367.882812 692.53125 C 370.011719 704.8125 380.222656 713.660156 392.097656 714.578125 L 397.570312 763.101562 L 430.15625 763.101562 L 430.15625 556.007812 L 680.832031 556.007812 L 680.832031 763.101562 L 713.421875 763.101562 L 736.765625 556.007812 L 769.683594 556.007812 L 769.683594 523.394531 L 341.304688 523.394531 L 341.304688 556.007812 Z M 341.308594 556.007812 " fill-opacity="1" fill-rule="nonzero"/><path fill="rgb(65.879822%, 65.879822%, 65.879822%)" d="M 400.808594 437.824219 L 394.882812 443.726562 L 405.898438 454.800781 L 414.554688 451.648438 Z M 400.808594 437.824219 " fill-opacity="1" fill-rule="nonzero"/><path fill="rgb(65.879822%, 65.879822%, 65.879822%)" d="M 441.847656 490.953125 L 456.589844 505.773438 L 462.519531 499.871094 L 448.875 486.15625 C 446.898438 488.132812 444.539062 489.773438 441.847656 490.953125 Z M 441.847656 490.953125 " fill-opacity="1" fill-rule="nonzero"/><path fill="rgb(65.879822%, 65.879822%, 65.879822%)" d="M 276.660156 473.042969 C 274.566406 482.773438 280.75 492.363281 290.472656 494.457031 L 365.078125 510.542969 C 366.351562 510.820312 367.628906 510.957031 368.898438 510.957031 C 370.972656 510.957031 373.03125 510.589844 375.027344 509.867188 L 438.707031 486.695312 C 448.054688 483.289062 452.878906 472.949219 449.480469 463.597656 C 446.085938 454.25 435.75 449.421875 426.402344 452.816406 L 367.601562 474.21875 L 298.058594 459.21875 C 288.332031 457.125 278.753906 463.308594 276.660156 473.042969 Z M 276.660156 473.042969 " fill-opacity="1" fill-rule="nonzero"/><path fill="rgb(65.879822%, 65.879822%, 65.879822%)" d="M 402.96875 508.460938 L 517.03125 508.460938 L 517.03125 517.308594 L 402.96875 517.308594 Z M 402.96875 508.460938 " fill-opacity="1" fill-rule="nonzero"/><path fill="rgb(65.879822%, 65.879822%, 65.879822%)" d="M 594.644531 508.460938 L 708.710938 508.460938 L 708.710938 517.308594 L 594.644531 517.308594 Z M 594.644531 508.460938 " fill-opacity="1" fill-rule="nonzero"/><path fill="rgb(65.879822%, 65.879822%, 65.879822%)" d="M 594.644531 490.148438 L 708.710938 490.148438 L 708.710938 499 L 594.644531 499 Z M 594.644531 490.148438 " fill-opacity="1" fill-rule="nonzero"/><path fill="rgb(65.879822%, 65.879822%, 65.879822%)" d="M 594.644531 471.839844 L 708.710938 471.839844 L 708.710938 480.691406 L 594.644531 480.691406 Z M 594.644531 471.839844 " fill-opacity="1" fill-rule="nonzero"/><path fill="rgb(65.879822%, 65.879822%, 65.879822%)" d="M 594.644531 453.535156 L 708.710938 453.535156 L 708.710938 462.386719 L 594.644531 462.386719 Z M 594.644531 453.535156 " fill-opacity="1" fill-rule="nonzero"/><path fill="rgb(65.879822%, 65.879822%, 65.879822%)" d="M 161.800781 168.636719 C 163.648438 169.066406 165.46875 169.585938 167.261719 170.195312 C 169.058594 170.804688 170.820312 171.5 172.546875 172.285156 C 174.273438 173.066406 175.957031 173.929688 177.597656 174.878906 C 179.242188 175.828125 180.832031 176.851562 182.375 177.957031 C 183.914062 179.0625 185.398438 180.238281 186.824219 181.488281 C 188.25 182.738281 189.609375 184.054688 190.90625 185.441406 C 192.203125 186.824219 193.425781 188.269531 194.582031 189.773438 C 195.734375 191.277344 196.8125 192.835938 197.816406 194.445312 C 198.816406 196.054688 199.738281 197.710938 200.574219 199.410156 C 201.414062 201.113281 202.167969 202.851562 202.835938 204.625 C 203.503906 206.398438 204.085938 208.203125 204.574219 210.035156 C 205.066406 211.867188 205.464844 213.71875 205.777344 215.589844 C 206.085938 217.460938 206.300781 219.34375 206.425781 221.234375 C 206.550781 223.128906 206.582031 225.023438 206.519531 226.917969 C 206.460938 228.8125 206.304688 230.703125 206.058594 232.582031 C 205.8125 234.460938 205.472656 236.328125 205.042969 238.171875 C 204.613281 240.019531 204.09375 241.84375 203.484375 243.640625 C 202.878906 245.433594 202.183594 247.195312 201.398438 248.925781 C 200.617188 250.652344 199.753906 252.335938 198.804688 253.980469 C 197.859375 255.625 196.832031 257.214844 195.730469 258.757812 C 194.625 260.300781 193.449219 261.785156 192.199219 263.210938 C 190.953125 264.636719 189.636719 265.996094 188.253906 267.292969 C 186.867188 268.589844 185.425781 269.816406 183.921875 270.972656 C 182.417969 272.128906 180.863281 273.207031 179.253906 274.207031 C 177.644531 275.210938 175.988281 276.128906 174.289062 276.96875 C 172.589844 277.808594 170.851562 278.5625 169.078125 279.230469 C 167.304688 279.898438 165.503906 280.480469 163.671875 280.972656 C 161.839844 281.460938 159.992188 281.863281 158.121094 282.171875 C 156.25 282.480469 154.371094 282.699219 152.476562 282.824219 C 150.585938 282.949219 148.695312 282.980469 146.800781 282.917969 C 144.90625 282.855469 143.019531 282.703125 141.136719 282.457031 C 139.257812 282.207031 137.398438 281.871094 135.550781 281.4375 C 133.703125 281.007812 131.882812 280.488281 130.089844 279.878906 C 128.292969 279.269531 126.53125 278.574219 124.804688 277.792969 C 123.078125 277.011719 121.394531 276.144531 119.753906 275.199219 C 118.109375 274.25 116.519531 273.222656 114.976562 272.121094 C 113.4375 271.015625 111.953125 269.835938 110.527344 268.585938 C 109.101562 267.335938 107.742188 266.019531 106.445312 264.636719 C 105.148438 263.253906 103.925781 261.808594 102.769531 260.304688 C 101.617188 258.800781 100.539062 257.242188 99.535156 255.632812 C 98.535156 254.019531 97.613281 252.367188 96.777344 250.664062 C 95.9375 248.964844 95.183594 247.226562 94.515625 245.453125 C 93.847656 243.675781 93.265625 241.871094 92.777344 240.042969 C 92.285156 238.210938 91.886719 236.359375 91.574219 234.488281 C 91.265625 232.613281 91.050781 230.734375 90.925781 228.839844 C 90.800781 226.949219 90.769531 225.054688 90.832031 223.160156 C 90.890625 221.261719 91.046875 219.375 91.292969 217.496094 C 91.539062 215.613281 91.878906 213.75 92.308594 211.902344 C 92.738281 210.054688 93.257812 208.234375 93.867188 206.4375 C 94.472656 204.640625 95.167969 202.878906 95.953125 201.152344 C 96.734375 199.425781 97.597656 197.738281 98.546875 196.097656 C 99.492188 194.453125 100.519531 192.859375 101.621094 191.320312 C 102.726562 189.777344 103.902344 188.292969 105.152344 186.867188 C 106.398438 185.441406 107.714844 184.078125 109.097656 182.78125 C 110.484375 181.484375 111.925781 180.257812 113.429688 179.105469 C 114.933594 177.949219 116.488281 176.871094 118.097656 175.867188 C 119.707031 174.867188 121.363281 173.945312 123.0625 173.105469 C 124.761719 172.265625 126.5 171.511719 128.273438 170.84375 C 130.046875 170.175781 131.847656 169.597656 133.679688 169.105469 C 135.511719 168.613281 137.359375 168.214844 139.230469 167.902344 C 141.101562 167.59375 142.980469 167.378906 144.875 167.253906 C 146.765625 167.128906 148.65625 167.097656 150.550781 167.160156 C 152.445312 167.21875 154.332031 167.375 156.214844 167.621094 C 158.09375 167.867188 159.957031 168.207031 161.800781 168.636719 Z M 161.800781 168.636719 " fill-opacity="1" fill-rule="nonzero"/><path fill="rgb(65.879822%, 65.879822%, 65.879822%)" d="M 43.554688 512.359375 C 50.105469 533.953125 58.277344 569.492188 58.222656 612.140625 C 58.210938 646.171875 53.128906 684.671875 38.246094 724.910156 C 32.078125 741.578125 40.582031 760.097656 57.234375 766.265625 C 60.921875 767.628906 64.6875 768.273438 68.398438 768.273438 C 81.472656 768.277344 93.757812 760.246094 98.570312 747.257812 C 116.460938 698.902344 122.546875 652.578125 122.542969 612.140625 C 122.460938 547.660156 107.335938 498.0625 99.160156 475.855469 C 97.726562 465.183594 97.390625 454.074219 97.773438 442.863281 C 81.917969 430.210938 72.046875 416.957031 66.242188 407.191406 C 49.523438 379.375 46.910156 352.871094 46.839844 339.554688 C 46.839844 337.441406 46.910156 336.109375 46.9375 335.660156 C 47.828125 322.175781 59.089844 311.605469 72.59375 311.605469 C 73.15625 311.605469 73.726562 311.621094 74.296875 311.660156 C 88.339844 312.585938 99.105469 324.777344 98.300781 338.824219 L 98.300781 338.878906 L 98.296875 339.46875 C 98.285156 340.332031 98.222656 356.488281 106.746094 374.042969 C 108.847656 363.242188 110.992188 353.066406 112.785156 343.910156 C 113.496094 341.4375 114.042969 338.921875 114.445312 336.378906 L 240.082031 388.386719 C 242.65625 389.449219 245.324219 389.953125 247.941406 389.953125 C 256.023438 389.953125 263.691406 385.164062 266.96875 377.226562 C 271.320312 366.710938 266.320312 354.667969 255.824219 350.320312 L 95.660156 284.023438 C 93.867188 283.28125 92.03125 282.832031 90.191406 282.617188 C 89.648438 282.445312 89.105469 282.28125 88.546875 282.140625 C 66.582031 276.660156 34.742188 288.597656 21.789062 326.292969 C 4.28125 378.230469 0.519531 412.035156 7.171875 469.230469 C 12.609375 497.21875 27.320312 508.242188 43.554688 512.359375 Z M 43.554688 512.359375 " fill-opacity="1" fill-rule="nonzero"/><path fill="rgb(65.879822%, 65.879822%, 65.879822%)" d="M 93.15625 338.613281 C 93.160156 338.566406 93.160156 338.546875 93.160156 338.535156 C 93.160156 338.527344 93.160156 338.527344 93.160156 338.527344 C 93.808594 327.253906 85.242188 317.542969 73.960938 316.800781 C 62.625 316.054688 52.816406 324.652344 52.074219 336.003906 C 52.042969 336.410156 51.980469 337.621094 51.980469 339.527344 C 52.03125 348.863281 53.386719 375.808594 70.667969 404.558594 C 87.792969 433.398438 122.050781 462.269531 180.066406 472.839844 C 181.34375 473.078125 182.613281 473.195312 183.871094 473.195312 C 193.585938 473.195312 202.234375 466.277344 204.082031 456.378906 C 206.171875 445.199219 198.804688 434.4375 187.632812 432.351562 C 139.179688 423.015625 117.789062 402.425781 105.890625 383.242188 C 94.148438 363.972656 93.089844 344.335938 93.148438 339.527344 C 93.140625 339.066406 93.148438 338.761719 93.15625 338.613281 Z M 93.15625 338.613281 " fill-opacity="1" fill-rule="nonzero"/></svg>