<?xml version="1.0" encoding="UTF-8"?><svg xmlns="http://www.w3.org/2000/svg" xmlns:xlink="http://www.w3.org/1999/xlink" width="768" zoomAndPan="magnify" viewBox="0 0 768 767.999994" height="767.999994" preserveAspectRatio="xMidYMid meet" version="1.0"><path fill="rgb(65.879822%, 65.879822%, 65.879822%)" d="M 160.804688 376.765625 C 156.535156 376.765625 152.25 375.765625 148.417969 373.863281 L 49.128906 324.652344 L 22.515625 450.039062 C 18.828125 458.394531 18.476562 468.191406 22.410156 477.226562 L 73.96875 595.703125 L 16.679688 719.660156 C 8.835938 736.644531 16.234375 756.769531 33.214844 764.625 C 37.8125 766.75 42.644531 767.757812 47.402344 767.757812 C 60.195312 767.757812 72.441406 760.46875 78.164062 748.085938 L 141.832031 610.328125 C 145.886719 601.554688 146.003906 591.460938 142.140625 582.597656 L 119.195312 529.871094 L 185.96875 603.710938 L 189.671875 732.140625 C 190.203125 750.511719 205.253906 765.042969 223.503906 765.042969 C 223.835938 765.042969 224.167969 765.035156 224.5 765.027344 C 243.195312 764.488281 257.914062 748.890625 257.375 730.191406 L 253.3125 589.273438 C 253.078125 581.214844 249.984375 573.503906 244.574219 567.527344 L 166.003906 480.648438 L 197.359375 361.902344 L 173.183594 373.875 C 169.359375 375.765625 165.078125 376.765625 160.804688 376.765625 Z M 160.804688 376.765625 " fill-opacity="1" fill-rule="nonzero"/><path fill="rgb(65.879822%, 65.879822%, 65.879822%)" d="M 94.308594 196.78125 C 90.539062 230.242188 114.609375 260.425781 148.0625 264.191406 C 181.519531 267.960938 211.691406 243.890625 215.460938 210.425781 C 219.230469 176.960938 195.164062 146.78125 161.707031 143.011719 C 128.253906 139.246094 98.074219 163.316406 94.308594 196.78125 Z M 206.105469 222.863281 C 206.105469 222.863281 170.496094 270.863281 140.234375 218.699219 C 140.230469 218.699219 178.382812 233.8125 206.105469 222.863281 Z M 206.105469 222.863281 " fill-opacity="1" fill-rule="nonzero"/><path fill="rgb(65.879822%, 65.879822%, 65.879822%)" d="M 328.636719 250 C 320.183594 244.796875 309.578125 246.105469 302.613281 252.507812 C 311.992188 253.570312 320.175781 259.207031 324.441406 267.820312 C 327.75 274.5 328.253906 282.070312 325.871094 289.136719 C 323.484375 296.199219 318.492188 301.910156 311.816406 305.21875 L 210.703125 355.292969 L 247.65625 379.980469 C 251.25 382.382812 255.445312 383.632812 259.695312 383.632812 C 261.238281 383.632812 262.789062 383.46875 264.316406 383.136719 C 270.070312 381.878906 275.0625 378.335938 278.148438 373.324219 L 335.722656 279.832031 C 342.003906 269.636719 338.828125 256.28125 328.636719 250 Z M 328.636719 250 " fill-opacity="1" fill-rule="nonzero"/><path fill="rgb(65.879822%, 65.879822%, 65.879822%)" d="M 304.632812 235.472656 L 292.484375 201.207031 L 288.128906 204.457031 L 301.929688 238.367188 Z M 304.632812 235.472656 " fill-opacity="1" fill-rule="nonzero"/><path fill="rgb(65.879822%, 65.879822%, 65.879822%)" d="M 264.832031 223.257812 L 293.320312 246.230469 L 293.789062 242.921875 L 266.34375 219.082031 Z M 264.832031 223.257812 " fill-opacity="1" fill-rule="nonzero"/><path fill="rgb(65.879822%, 65.879822%, 65.879822%)" d="M 316.714844 197.066406 L 312.640625 198.527344 L 312.75 235.132812 L 315.53125 233.40625 Z M 316.714844 197.066406 " fill-opacity="1" fill-rule="nonzero"/><path fill="rgb(65.879822%, 65.879822%, 65.879822%)" d="M 49.128906 317.691406 L 151.179688 368.28125 C 154.214844 369.785156 157.507812 370.535156 160.804688 370.535156 C 164.101562 370.535156 167.394531 369.785156 170.425781 368.28125 L 309.050781 299.632812 C 319.777344 294.320312 324.167969 281.316406 318.855469 270.582031 C 313.542969 259.851562 300.535156 255.460938 289.816406 260.773438 L 160.8125 324.660156 L 104.746094 296.871094 L 114.617188 294.808594 L 160.8125 317.703125 L 201.980469 297.316406 L 193.574219 291.699219 C 190.371094 289.5625 186.808594 288.402344 183.226562 288.121094 L 80.386719 264.859375 C 80.324219 264.882812 80.246094 264.910156 80.183594 264.933594 C 72.46875 261.882812 63.347656 263.414062 57.042969 269.59375 L 43.585938 282.785156 C 38.570312 287.695312 36.246094 294.738281 37.34375 301.671875 C 37.839844 304.792969 39.03125 307.695312 40.734375 310.253906 C 42.816406 313.382812 45.667969 315.980469 49.128906 317.691406 Z M 49.128906 317.691406 " fill-opacity="1" fill-rule="nonzero"/><path fill="rgb(65.879822%, 65.879822%, 65.879822%)" d="M 350.023438 280.921875 L 381.957031 298.292969 L 383.027344 292.964844 L 350.101562 276.960938 Z M 350.023438 280.921875 " fill-opacity="1" fill-rule="nonzero"/><path fill="rgb(65.879822%, 65.879822%, 65.879822%)" d="M 387.796875 263.40625 L 351.25 265.359375 L 353.113281 268.132812 L 389.457031 267.519531 Z M 387.796875 263.40625 " fill-opacity="1" fill-rule="nonzero"/><path fill="rgb(65.879822%, 65.879822%, 65.879822%)" d="M 343.296875 289.75 L 366.695312 317.570312 L 368.75 313.757812 L 344.214844 286.601562 Z M 343.296875 289.75 " fill-opacity="1" fill-rule="nonzero"/><path fill="rgb(65.879822%, 65.879822%, 65.879822%)" d="M 559.113281 343.035156 C 559.113281 372.335938 582.859375 396.089844 612.152344 396.089844 C 641.445312 396.089844 665.195312 372.335938 665.195312 343.035156 C 665.195312 313.738281 641.445312 289.984375 612.152344 289.984375 C 582.863281 289.980469 559.113281 313.738281 559.113281 343.035156 Z M 637.058594 360.386719 C 637.058594 360.386719 604.039062 404.890625 575.980469 356.523438 C 575.980469 356.523438 611.355469 370.539062 637.058594 360.386719 Z M 637.058594 360.386719 " fill-opacity="1" fill-rule="nonzero"/><path fill="rgb(65.879822%, 65.879822%, 65.879822%)" d="M 425.074219 277.632812 L 472.253906 311.117188 L 480.410156 367.46875 C 480.988281 371.453125 483.085938 375.058594 486.261719 377.535156 L 553.144531 429.589844 L 553.144531 741.265625 C 553.144531 756.089844 565.164062 768.113281 579.996094 768.113281 C 594.8125 768.113281 606.835938 756.089844 606.835938 741.265625 L 606.835938 602.78125 L 617.476562 602.78125 L 617.476562 741.265625 C 617.476562 756.089844 629.5 768.113281 644.328125 768.113281 C 659.148438 768.113281 671.171875 756.089844 671.171875 741.265625 L 671.171875 429.589844 L 738.054688 377.535156 C 741.230469 375.058594 743.324219 371.453125 743.902344 367.46875 L 757.503906 273.464844 C 758.738281 264.949219 752.835938 257.042969 744.320312 255.8125 C 735.773438 254.574219 727.902344 260.488281 726.671875 269 L 713.96875 356.792969 L 651.839844 405.148438 L 572.476562 405.148438 L 510.347656 356.792969 L 497.648438 269.003906 C 497.488281 267.925781 497.226562 266.890625 496.871094 265.90625 C 497.675781 265.792969 498.464844 265.71875 499.289062 265.554688 C 533.410156 286.3125 582.632812 247.460938 584.761719 245.753906 L 590.035156 241.527344 L 561.828125 221.507812 C 563.386719 219.550781 564.882812 217.5625 566.3125 215.550781 L 493.976562 164.210938 C 492.550781 166.222656 491.167969 168.292969 489.835938 170.414062 L 461.628906 150.394531 L 459.382812 156.769531 C 458.480469 159.34375 438.070312 218.644531 468.921875 244.003906 C 469.71875 249.503906 471.441406 254.222656 474.128906 257.917969 C 469.941406 260.46875 467.144531 264.910156 466.71875 269.890625 L 458.804688 281.042969 L 446.886719 272.582031 L 441.777344 279.792969 L 429.648438 271.183594 Z M 467.675781 287.339844 L 468.621094 286.003906 L 468.941406 288.238281 Z M 555.175781 229.292969 L 572.828125 241.824219 C 561.558594 249.554688 535.289062 265.277344 514.007812 260.585938 C 527.949219 254.128906 542.832031 242.761719 555.175781 229.292969 Z M 495.3125 181.109375 L 499.742188 183.628906 C 492.472656 196.429688 487.195312 210.558594 484.886719 223.402344 L 479.867188 222.5 C 482.277344 209.101562 487.761719 194.402344 495.3125 181.109375 Z M 468.75 228.46875 C 457.292969 209.921875 463.457031 179.925781 467.027344 166.734375 L 484.6875 179.265625 C 476.046875 195.367188 470.238281 213.171875 468.75 228.46875 Z M 468.75 228.46875 " fill-opacity="1" fill-rule="nonzero"/><path fill="rgb(65.879822%, 65.879822%, 65.879822%)" d="M 221.132812 145.292969 L 301.972656 48.90625 L 294.496094 39.109375 L 217.445312 140.875 Z M 221.132812 145.292969 " fill-opacity="1" fill-rule="nonzero"/><path fill="rgb(65.879822%, 65.879822%, 65.879822%)" d="M 229.328125 161.078125 L 230.195312 166.765625 L 349.230469 126.113281 L 347.902344 113.855469 Z M 229.328125 161.078125 " fill-opacity="1" fill-rule="nonzero"/><path fill="rgb(65.879822%, 65.879822%, 65.879822%)" d="M 191.269531 125.613281 L 196.550781 127.886719 L 225.121094 5.367188 L 214.023438 0 Z M 191.269531 125.613281 " fill-opacity="1" fill-rule="nonzero"/><path fill="rgb(65.879822%, 65.879822%, 65.879822%)" d="M 567.882812 117.296875 L 568.535156 117.296875 C 569.742188 102.820312 574.066406 98.496094 588.539062 97.292969 L 588.539062 96.636719 C 574.066406 95.433594 569.742188 91.109375 568.535156 76.632812 L 567.882812 76.632812 C 566.679688 91.109375 562.355469 95.433594 547.878906 96.636719 L 547.878906 97.292969 C 562.355469 98.496094 566.679688 102.820312 567.882812 117.296875 Z M 567.882812 117.296875 " fill-opacity="1" fill-rule="nonzero"/><path fill="rgb(65.879822%, 65.879822%, 65.879822%)" d="M 583.996094 160.75 L 583.433594 160.75 C 582.398438 173.1875 578.683594 176.902344 566.253906 177.9375 L 566.253906 178.496094 C 578.6875 179.53125 582.398438 183.246094 583.433594 195.679688 L 583.996094 195.679688 C 585.03125 183.246094 588.746094 179.53125 601.175781 178.496094 L 601.175781 177.9375 C 588.746094 176.902344 585.035156 173.183594 583.996094 160.75 Z M 583.996094 160.75 " fill-opacity="1" fill-rule="nonzero"/><path fill="rgb(65.879822%, 65.879822%, 65.879822%)" d="M 536.101562 119.65625 L 535.351562 119.65625 C 533.96875 136.285156 529.003906 141.25 512.378906 142.632812 L 512.378906 143.382812 C 529.003906 144.769531 533.96875 149.734375 535.351562 166.359375 L 536.101562 166.359375 C 537.488281 149.734375 542.453125 144.765625 559.074219 143.382812 L 559.074219 142.632812 C 542.453125 141.25 537.488281 136.285156 536.101562 119.65625 Z M 536.101562 119.65625 " fill-opacity="1" fill-rule="nonzero"/></svg>