<?xml version="1.0" encoding="UTF-8"?>
<svg xmlns="http://www.w3.org/2000/svg" xmlns:xlink="http://www.w3.org/1999/xlink" width="810pt" height="809.999993pt" viewBox="0 0 810 809.999993" version="1.2">
<defs>
<clipPath id="clip1">
  <path d="M 6 99 L 810 99 L 810 713.34375 L 6 713.34375 Z M 6 99 "/>
</clipPath>
<clipPath id="clip2">
  <path d="M 6 99 L 810 99 L 810 713.34375 L 6 713.34375 Z M 6 99 "/>
</clipPath>
</defs>
<g id="surface1">
<g clip-path="url(#clip1)" clip-rule="nonzero">
<path style=" stroke:none;fill-rule:nonzero;fill:rgb(22.349548%,20.779419%,21.179199%);fill-opacity:1;" d="M 404.820312 99.023438 C 213.621094 99.023438 61.710938 204.253906 61.710938 372.449219 C 56.625 370.496094 51.121094 369.421875 45.382812 369.421875 C 19.140625 369.421875 0.195312 389.734375 8.929688 419.308594 C 16.707031 445.628906 31.347656 477.613281 57.589844 477.613281 C 63.390625 477.613281 68.171875 475.425781 71.402344 471.789062 C 108.507812 634.335938 246.882812 713.453125 412.019531 713.453125 C 577.15625 713.453125 715.535156 634.328125 752.628906 471.789062 C 755.859375 475.425781 760.640625 477.613281 766.441406 477.613281 C 792.691406 477.613281 807.335938 445.628906 815.109375 419.308594 C 823.835938 389.734375 804.890625 369.421875 778.648438 369.421875 C 772.898438 369.421875 767.398438 370.496094 762.308594 372.449219 C 762.308594 190.488281 596.011719 99.023438 404.820312 99.023438 Z M 404.820312 101.445312 C 502.441406 101.445312 590.894531 125.613281 653.871094 169.496094 C 723.230469 217.800781 759.882812 287.984375 759.882812 372.449219 C 759.882812 373.25 760.269531 373.992188 760.929688 374.453125 C 761.34375 374.734375 761.820312 374.867188 762.308594 374.867188 C 762.597656 374.867188 762.886719 374.824219 763.175781 374.714844 C 768.136719 372.808594 773.34375 371.851562 778.648438 371.851562 C 791.230469 371.851562 802.148438 376.800781 808.589844 385.4375 C 815.058594 394.097656 816.546875 405.878906 812.785156 418.621094 C 805.160156 444.429688 790.925781 475.191406 766.441406 475.191406 C 761.496094 475.191406 757.347656 473.457031 754.441406 470.179688 C 753.972656 469.65625 753.316406 469.367188 752.628906 469.367188 L 752.023438 469.4375 C 751.148438 469.664062 750.472656 470.371094 750.265625 471.253906 C 741.308594 510.519531 726.070312 546.015625 704.980469 576.746094 C 684.84375 606.101562 659.265625 631.273438 628.992188 651.554688 C 570.894531 690.457031 495.863281 711.023438 412.019531 711.023438 C 328.15625 711.023438 253.136719 690.464844 195.039062 651.554688 C 164.753906 631.273438 139.1875 606.109375 119.050781 576.753906 C 97.960938 546.015625 82.722656 510.519531 73.757812 471.253906 C 73.558594 470.371094 72.882812 469.664062 71.996094 469.4375 L 71.402344 469.367188 C 70.714844 469.367188 70.046875 469.65625 69.578125 470.179688 C 66.683594 473.457031 62.535156 475.191406 57.589844 475.191406 C 33.105469 475.191406 18.878906 444.429688 11.246094 418.621094 C 7.484375 405.878906 8.972656 394.097656 15.441406 385.4375 C 21.882812 376.800781 32.800781 371.851562 45.382812 371.851562 C 50.679688 371.851562 55.886719 372.808594 60.847656 374.714844 C 61.125 374.824219 61.425781 374.867188 61.710938 374.867188 C 62.199219 374.867188 62.679688 374.734375 63.085938 374.453125 C 63.742188 373.992188 64.140625 373.25 64.140625 372.449219 C 64.140625 331.902344 73.035156 294.027344 90.589844 259.882812 C 107.378906 227.214844 131.753906 198.515625 163.039062 174.589844 C 224.691406 127.421875 310.558594 101.445312 404.820312 101.445312 "/>
</g>
<path style=" stroke:none;fill-rule:nonzero;fill:rgb(22.349548%,20.779419%,21.179199%);fill-opacity:1;" d="M 756.96875 349.46875 C 756.535156 352.414062 755.859375 355.828125 756.09375 357.859375 C 756.28125 359.484375 756.515625 360.261719 756.726562 360.261719 C 757.183594 360.261719 757.519531 356.34375 756.96875 349.46875 Z M 756.238281 342.683594 C 756.5625 345.1875 756.804688 347.453125 756.96875 349.46875 C 757.273438 347.347656 757.464844 345.457031 757.085938 344.511719 C 756.824219 343.851562 756.542969 343.253906 756.238281 342.683594 Z M 434.664062 107.855469 C 335.726562 107.855469 69.96875 129.824219 63.039062 365.3125 C 63.039062 365.3125 78.339844 367.054688 103.292969 367.054688 C 191.25 367.054688 399.246094 345.476562 480.753906 150.148438 C 480.753906 150.148438 501.828125 285.71875 624.714844 315.253906 C 727.828125 340.039062 749.039062 329.523438 756.238281 342.683594 C 749.589844 292.726562 705.050781 150.761719 471.273438 109.011719 C 471.273438 109.011719 457.351562 107.855469 434.664062 107.855469 Z M 434.664062 110.277344 C 455.925781 110.277344 469.613281 111.316406 470.964844 111.414062 C 570.964844 129.300781 647.042969 167.300781 697.113281 224.367188 C 736.03125 268.746094 748.652344 313.257812 752.710938 335.882812 C 747.8125 333.246094 740.226562 332.414062 727.800781 331.035156 C 709.066406 328.964844 677.6875 325.488281 625.285156 312.886719 C 562.722656 297.855469 527.4375 254.402344 508.855469 220.59375 C 488.628906 183.792969 483.207031 150.109375 483.152344 149.769531 C 482.980469 148.691406 482.125 147.863281 481.050781 147.734375 L 480.753906 147.71875 C 479.789062 147.71875 478.902344 148.296875 478.523438 149.207031 C 443.476562 233.175781 381.238281 293.875 293.523438 329.597656 C 222.464844 358.554688 150.851562 364.625 103.292969 364.625 C 84.167969 364.625 70.625 363.585938 65.539062 363.125 C 69.171875 264.011719 119.558594 192.472656 215.320312 150.5 C 295.128906 115.5 387.003906 110.277344 434.664062 110.277344 "/>
<g clip-path="url(#clip2)" clip-rule="nonzero">
<path style=" stroke:none;fill-rule:nonzero;fill:rgb(22.349548%,20.779419%,21.179199%);fill-opacity:1;" d="M 404.820312 99.023438 C 213.621094 99.023438 61.710938 204.253906 61.710938 372.449219 C 56.625 370.496094 51.121094 369.421875 45.382812 369.421875 C 19.140625 369.421875 0.195312 389.734375 8.929688 419.308594 C 16.707031 445.628906 31.347656 477.613281 57.589844 477.613281 C 63.390625 477.613281 68.171875 475.425781 71.402344 471.789062 C 108.507812 634.335938 246.882812 713.453125 412.019531 713.453125 C 577.15625 713.453125 715.535156 634.328125 752.628906 471.789062 C 755.859375 475.425781 760.640625 477.613281 766.441406 477.613281 C 792.691406 477.613281 807.335938 445.628906 815.109375 419.308594 C 823.835938 389.734375 804.890625 369.421875 778.648438 369.421875 C 772.898438 369.421875 767.398438 370.496094 762.308594 372.449219 C 762.308594 190.488281 596.011719 99.023438 404.820312 99.023438 Z M 404.820312 112.769531 C 500.148438 112.769531 586.3125 136.210938 647.414062 178.78125 C 679.402344 201.074219 704.257812 228.234375 721.269531 259.53125 C 739.386719 292.84375 748.570312 330.835938 748.570312 372.449219 L 748.570312 392.425781 L 767.207031 385.28125 C 770.878906 383.882812 774.730469 383.167969 778.648438 383.167969 C 787.632812 383.167969 795.246094 386.464844 799.53125 392.203125 C 803.871094 398.027344 804.699219 406.046875 801.941406 415.40625 C 796.589844 433.507812 784.871094 463.867188 766.441406 463.867188 C 764.800781 463.867188 763.597656 463.460938 762.894531 462.65625 L 745.1875 442.710938 L 739.242188 468.734375 C 730.597656 506.597656 715.941406 540.789062 695.660156 570.332031 C 676.335938 598.503906 651.789062 622.667969 622.703125 642.140625 C 566.472656 679.796875 493.628906 699.707031 412.019531 699.707031 C 330.402344 699.707031 257.546875 679.796875 201.328125 642.140625 C 172.242188 622.667969 147.695312 598.515625 128.371094 570.339844 C 108.089844 540.789062 93.421875 506.597656 84.78125 468.734375 L 78.835938 442.683594 L 61.125 462.664062 C 60.25 463.660156 58.71875 463.867188 57.589844 463.867188 C 39.167969 463.867188 27.441406 433.507812 22.089844 415.40625 C 19.332031 406.046875 20.160156 398.027344 24.5 392.210938 C 28.785156 386.464844 36.398438 383.167969 45.382812 383.167969 C 49.300781 383.167969 53.132812 383.882812 56.804688 385.28125 L 75.441406 392.4375 L 75.441406 372.449219 C 75.441406 296.160156 108.109375 230.863281 169.90625 183.585938 C 229.601562 137.917969 313.027344 112.769531 404.820312 112.769531 "/>
</g>
<path style=" stroke:none;fill-rule:nonzero;fill:rgb(22.349548%,20.779419%,21.179199%);fill-opacity:1;" d="M 251.296875 428.269531 C 235.714844 428.269531 235.714844 452.457031 251.296875 452.457031 C 266.875 452.457031 266.875 428.269531 251.296875 428.269531 "/>
<path style=" stroke:none;fill-rule:nonzero;fill:rgb(22.349548%,20.779419%,21.179199%);fill-opacity:1;" d="M 572.734375 428.269531 C 557.15625 428.269531 557.15625 452.457031 572.734375 452.457031 C 588.304688 452.457031 588.304688 428.269531 572.734375 428.269531 "/>
<path style=" stroke:none;fill-rule:nonzero;fill:rgb(22.349548%,20.779419%,21.179199%);fill-opacity:1;" d="M 527.683594 546.703125 L 530.179688 547.355469 L 527.683594 546.683594 L 527.683594 546.703125 L 530.179688 547.355469 L 527.683594 546.683594 C 527.683594 546.683594 527.628906 546.902344 527.492188 547.335938 C 526.445312 550.570312 521.015625 565.273438 504.308594 579.140625 C 487.574219 592.988281 459.480469 606.273438 412.109375 606.300781 L 411.921875 606.300781 C 386.460938 606.300781 366.5625 602.433594 351.007812 596.734375 C 327.699219 588.171875 314.101562 575.5 306.207031 565.039062 C 302.277344 559.808594 299.785156 555.121094 298.289062 551.796875 C 297.539062 550.125 297.042969 548.800781 296.746094 547.921875 C 296.59375 547.480469 296.484375 547.144531 296.421875 546.9375 L 296.359375 546.722656 L 296.347656 546.695312 L 294.707031 547.128906 L 296.359375 546.703125 L 296.347656 546.695312 L 294.707031 547.128906 L 296.359375 546.703125 C 295.71875 544.253906 293.21875 542.785156 290.773438 543.425781 C 288.328125 544.058594 286.859375 546.558594 287.5 549.007812 C 287.644531 549.558594 292.035156 566.167969 309.945312 582.734375 C 318.882812 591.007812 331.199219 599.226562 347.859375 605.332031 C 364.53125 611.457031 385.542969 615.46875 411.921875 615.46875 L 412.109375 615.46875 C 438.488281 615.46875 459.5 611.457031 476.171875 605.332031 C 501.179688 596.175781 516.34375 582.253906 525.128906 570.558594 C 533.933594 558.851562 536.433594 549.429688 536.542969 549.007812 C 537.171875 546.558594 535.703125 544.058594 533.257812 543.425781 C 530.8125 542.785156 528.3125 544.253906 527.683594 546.703125 "/>
<path style=" stroke:none;fill-rule:nonzero;fill:rgb(22.349548%,20.779419%,21.179199%);fill-opacity:1;" d="M 50.527344 403.257812 C 50.554688 403.691406 50.804688 409.226562 54.34375 415.847656 C 56.109375 419.15625 58.71875 422.714844 62.507812 425.894531 C 66.285156 429.082031 71.230469 431.871094 77.519531 433.699219 C 79.945312 434.402344 82.488281 433.011719 83.191406 430.582031 C 83.894531 428.152344 82.507812 425.605469 80.082031 424.898438 C 74.929688 423.390625 71.203125 421.242188 68.398438 418.882812 C 64.203125 415.351562 62.027344 411.289062 60.875 408.0625 C 60.304688 406.464844 60 405.082031 59.835938 404.144531 C 59.753906 403.671875 59.710938 403.3125 59.691406 403.085938 L 59.675781 402.871094 L 59.59375 402.871094 L 59.675781 402.871094 L 59.59375 402.871094 L 59.675781 402.871094 C 59.566406 400.339844 57.429688 398.378906 54.902344 398.488281 C 52.375 398.597656 50.417969 400.726562 50.527344 403.257812 "/>
<path style=" stroke:none;fill-rule:nonzero;fill:rgb(22.349548%,20.779419%,21.179199%);fill-opacity:1;" d="M 56.328125 439.703125 C 56.316406 439.613281 56.300781 439.261719 56.300781 438.71875 C 56.292969 437.210938 56.480469 434.222656 57.519531 431.140625 C 58.5625 428.042969 60.351562 424.945312 63.597656 422.605469 C 65.644531 421.125 66.117188 418.261719 64.636719 416.210938 C 63.15625 414.152344 60.296875 413.691406 58.25 415.164062 C 53.105469 418.867188 50.292969 423.84375 48.839844 428.234375 C 47.367188 432.640625 47.152344 436.542969 47.144531 438.71875 C 47.144531 439.777344 47.199219 440.4375 47.214844 440.554688 C 47.441406 443.074219 49.667969 444.925781 52.195312 444.691406 C 54.703125 444.453125 56.5625 442.222656 56.328125 439.703125 "/>
<path style=" stroke:none;fill-rule:nonzero;fill:rgb(22.349548%,20.779419%,21.179199%);fill-opacity:1;" d="M 764.367188 402.871094 L 765.871094 402.933594 L 764.367188 402.84375 L 764.367188 402.871094 L 765.871094 402.933594 L 764.367188 402.84375 C 764.367188 402.976562 764.050781 407.257812 761.378906 411.972656 C 760.042969 414.339844 758.148438 416.832031 755.371094 419.101562 C 752.601562 421.367188 748.941406 423.445312 743.949219 424.898438 C 741.523438 425.605469 740.125 428.152344 740.839844 430.582031 C 741.542969 433.011719 744.085938 434.402344 746.511719 433.699219 C 752.800781 431.871094 757.746094 429.082031 761.523438 425.894531 C 767.214844 421.113281 770.222656 415.515625 771.773438 411.152344 C 773.332031 406.769531 773.496094 403.582031 773.503906 403.257812 C 773.613281 400.726562 771.65625 398.597656 769.128906 398.488281 C 766.613281 398.378906 764.472656 400.339844 764.367188 402.871094 "/>
<path style=" stroke:none;fill-rule:nonzero;fill:rgb(22.349548%,20.779419%,21.179199%);fill-opacity:1;" d="M 776.824219 440.535156 C 776.832031 440.425781 776.886719 439.777344 776.886719 438.726562 C 776.886719 436.550781 776.671875 432.648438 775.199219 428.234375 C 773.738281 423.851562 770.925781 418.867188 765.78125 415.164062 C 763.734375 413.679688 760.875 414.152344 759.394531 416.210938 C 757.914062 418.261719 758.386719 421.125 760.433594 422.605469 C 763.679688 424.945312 765.476562 428.042969 766.523438 431.148438 C 767.558594 434.230469 767.738281 437.21875 767.738281 438.726562 C 767.738281 439.089844 767.730469 439.371094 767.722656 439.542969 L 767.714844 439.714844 C 767.488281 442.242188 769.335938 444.464844 771.855469 444.691406 C 774.371094 444.914062 776.597656 443.054688 776.824219 440.542969 "/>
<path style=" stroke:none;fill-rule:nonzero;fill:rgb(22.349548%,20.779419%,21.179199%);fill-opacity:1;" d="M 473.417969 101.210938 L 473.347656 101.273438 C 471.605469 102.816406 439.472656 131.007812 385.742188 158.753906 C 332 186.511719 256.726562 213.800781 168.632812 213.789062 C 154.191406 213.789062 139.394531 213.058594 124.285156 211.46875 C 121.769531 211.207031 119.523438 213.042969 119.261719 215.550781 C 118.988281 218.070312 120.820312 220.320312 123.335938 220.59375 C 138.765625 222.199219 153.875 222.957031 168.632812 222.957031 C 260.074219 222.949219 337.71875 194.226562 392.523438 165.558594 C 447.320312 136.871094 479.320312 108.210938 479.527344 108.027344 C 481.402344 106.339844 481.566406 103.449219 479.878906 101.5625 C 478.191406 99.671875 475.304688 99.519531 473.417969 101.210938 "/>
<path style=" stroke:none;fill-rule:nonzero;fill:rgb(22.349548%,20.779419%,21.179199%);fill-opacity:1;" d="M 457.234375 97.964844 L 456.957031 98.109375 C 453.988281 99.609375 427.230469 112.886719 387.652344 125.757812 C 348.078125 138.648438 295.679688 151.105469 241.535156 151.097656 C 226.171875 151.097656 210.664062 150.09375 195.265625 147.824219 C 192.757812 147.457031 190.4375 149.191406 190.066406 151.691406 C 189.699219 154.195312 191.429688 156.523438 193.929688 156.894531 C 209.816406 159.234375 225.773438 160.265625 241.535156 160.265625 C 298.875 160.253906 353.734375 146.714844 394.328125 133.210938 C 434.925781 119.699219 461.25 106.203125 461.402344 106.121094 C 463.648438 104.976562 464.542969 102.210938 463.398438 99.960938 C 462.242188 97.703125 459.480469 96.820312 457.234375 97.964844 "/>
<path style=" stroke:none;fill-rule:nonzero;fill:rgb(22.349548%,20.779419%,21.179199%);fill-opacity:1;" d="M 500.339844 114.351562 C 500.484375 114.523438 520.042969 139.15625 551.390625 163.894531 C 567.0625 176.261719 585.691406 188.671875 606.375 198.019531 C 627.050781 207.367188 649.832031 213.671875 673.703125 213.671875 C 682.550781 213.671875 691.554688 212.804688 700.640625 210.910156 C 703.109375 210.386719 704.699219 207.957031 704.183594 205.480469 C 703.660156 203.007812 701.234375 201.417969 698.761719 201.929688 C 690.320312 203.703125 681.957031 204.515625 673.703125 204.515625 C 651.453125 204.515625 629.9375 198.617188 610.144531 189.664062 C 580.449219 176.25 554.683594 155.964844 536.433594 139.019531 C 527.292969 130.554688 520.042969 122.921875 515.078125 117.429688 C 512.597656 114.6875 510.6875 112.472656 509.40625 110.957031 C 508.765625 110.195312 508.285156 109.609375 507.960938 109.222656 L 507.609375 108.777344 L 507.5 108.652344 C 505.921875 106.664062 503.046875 106.339844 501.070312 107.921875 C 499.09375 109.492188 498.761719 112.375 500.339844 114.351562 "/>
<path style=" stroke:none;fill-rule:nonzero;fill:rgb(22.349548%,20.779419%,21.179199%);fill-opacity:1;" d="M 486.300781 109.925781 C 495.167969 153.507812 515.917969 186.429688 541.898438 210.972656 C 580.890625 247.816406 631.410156 266.007812 672.121094 275.140625 C 712.84375 284.261719 743.871094 284.28125 744.09375 284.28125 C 746.621094 284.28125 748.667969 282.230469 748.667969 279.703125 C 748.679688 277.171875 746.628906 275.121094 744.105469 275.121094 L 743.96875 275.121094 C 740.964844 275.113281 686.648438 274.398438 629.316406 253.011719 C 600.648438 242.332031 571.253906 226.519531 547.023438 203.203125 C 522.800781 179.882812 503.660156 149.152344 495.269531 108.09375 C 494.761719 105.609375 492.335938 104.007812 489.863281 104.515625 C 487.394531 105.03125 485.789062 107.449219 486.300781 109.925781 "/>
<path style=" stroke:none;fill-rule:nonzero;fill:rgb(22.349548%,20.779419%,21.179199%);fill-opacity:1;" d="M 756.046875 331.574219 L 755.839844 331.574219 C 755.6875 331.574219 755.472656 331.574219 755.171875 331.574219 C 746.882812 331.59375 679.257812 330.617188 614.351562 302.707031 C 581.890625 288.761719 550.164062 268.15625 526.601562 237.78125 C 503.046875 207.394531 487.464844 167.238281 487.4375 113.347656 C 487.4375 110.945312 487.472656 108.527344 487.539062 106.078125 C 487.601562 103.757812 485.933594 101.769531 483.632812 101.425781 C 481.339844 101.089844 479.15625 102.5 478.542969 104.75 C 478.316406 105.554688 465.632812 150.046875 413.445312 194.324219 C 387.335938 216.472656 351.332031 238.601562 301.898438 255.230469 C 252.46875 271.859375 189.582031 282.972656 109.789062 282.972656 C 98.84375 282.972656 87.578125 282.753906 75.992188 282.328125 C 73.46875 282.238281 71.339844 284.207031 71.25 286.738281 C 71.160156 289.265625 73.125 291.398438 75.652344 291.488281 C 87.351562 291.921875 98.726562 292.140625 109.789062 292.140625 C 191.070312 292.140625 255.328125 280.722656 306 263.515625 C 382.023438 237.71875 427.429688 198.84375 453.714844 166.296875 C 480.023438 133.761719 487.25 107.621094 487.375 107.171875 L 482.964844 105.960938 L 478.382812 105.84375 C 478.316406 108.363281 478.289062 110.875 478.289062 113.347656 C 478.261719 169.007812 494.566406 211.46875 519.375 243.410156 C 537.964844 267.363281 561.261719 285.402344 585.84375 298.976562 C 622.722656 319.335938 662.542969 329.734375 694.386719 335.089844 C 726.242188 340.4375 750.140625 340.734375 755.171875 340.742188 C 755.796875 340.742188 756.128906 340.734375 756.136719 340.734375 C 758.671875 340.707031 760.695312 338.640625 760.667969 336.101562 C 760.640625 333.570312 758.574219 331.546875 756.046875 331.574219 "/>
<path style=" stroke:none;fill-rule:nonzero;fill:rgb(22.349548%,20.779419%,21.179199%);fill-opacity:1;" d="M 42.191406 331.152344 C 42.308594 330.988281 43.109375 329.921875 43.941406 328.207031 C 44.753906 326.5 45.671875 324.132812 45.691406 321.195312 C 45.691406 319.679688 45.410156 318.007812 44.671875 316.375 C 43.578125 313.90625 41.441406 311.75 38.601562 310.292969 C 35.742188 308.8125 32.175781 307.882812 27.578125 307.429688 C 26.65625 307.351562 25.746094 307.304688 24.84375 307.304688 C 18.023438 307.296875 11.871094 309.832031 7.449219 314.023438 C 3.027344 318.199219 0.3125 324.078125 0.324219 330.480469 C 0.3125 334.699219 1.503906 339.109375 3.96875 343.289062 C 7.667969 349.566406 14.125 355.320312 23.679688 359.9375 C 33.257812 364.554688 45.96875 368.085938 62.550781 369.875 L 62.625 369.882812 C 62.742188 369.890625 76.320312 371.128906 98.609375 371.128906 C 145.042969 371.109375 229.246094 365.789062 308.4375 332.460938 C 348.023438 315.785156 386.371094 292.074219 417.9375 258.4375 C 449.511719 224.800781 474.230469 181.21875 486.554688 125.21875 C 487.105469 122.75 485.542969 120.304688 483.070312 119.761719 C 480.609375 119.210938 478.164062 120.773438 477.625 123.25 C 465.617188 177.707031 441.761719 219.644531 411.269531 252.160156 C 365.542969 300.910156 304.648438 328.433594 246.453125 343.695312 C 188.28125 358.972656 132.898438 361.96875 98.609375 361.960938 C 87.632812 361.960938 78.816406 361.664062 72.765625 361.355469 C 69.734375 361.203125 67.386719 361.046875 65.816406 360.941406 C 65.03125 360.875 64.429688 360.832031 64.03125 360.804688 L 63.589844 360.769531 L 63.453125 360.75 L 63.039062 365.3125 L 63.527344 360.757812 C 42.460938 358.5 28.640625 353.289062 20.414062 347.472656 C 16.289062 344.5625 13.546875 341.527344 11.851562 338.640625 C 10.15625 335.75 9.480469 333.003906 9.46875 330.480469 C 9.480469 326.671875 11.039062 323.257812 13.738281 320.683594 C 16.445312 318.125 20.269531 316.472656 24.84375 316.464844 C 25.445312 316.464844 26.0625 316.492188 26.691406 316.554688 C 31.796875 317.03125 34.441406 318.261719 35.46875 319.121094 C 36.003906 319.554688 36.199219 319.867188 36.335938 320.15625 C 36.460938 320.445312 36.535156 320.761719 36.535156 321.195312 C 36.550781 322.019531 36.183594 323.257812 35.703125 324.214844 C 35.46875 324.683594 35.234375 325.089844 35.074219 325.351562 L 34.882812 325.632812 L 34.847656 325.675781 L 36.199219 326.660156 L 34.867188 325.660156 L 34.847656 325.675781 L 36.199219 326.660156 L 34.867188 325.660156 C 33.351562 327.683594 33.765625 330.554688 35.785156 332.070312 C 37.804688 333.589844 40.675781 333.183594 42.191406 331.152344 "/>
<path style=" stroke:none;fill-rule:nonzero;fill:rgb(22.349548%,20.779419%,21.179199%);fill-opacity:1;" d="M 70.210938 258.484375 C 70.175781 258.050781 70.085938 254.996094 68.027344 251.464844 C 66.992188 249.722656 65.402344 247.871094 63.128906 246.460938 C 60.855469 245.050781 57.960938 244.140625 54.566406 243.96875 L 54.578125 243.96875 C 54.152344 243.941406 53.71875 243.933594 53.285156 243.933594 C 47.875 243.933594 42.957031 245.738281 39.320312 248.855469 C 35.6875 251.960938 33.324219 256.503906 33.332031 261.519531 C 33.324219 264.78125 34.332031 268.140625 36.316406 271.238281 C 39.292969 275.890625 44.335938 279.972656 51.617188 283.261719 C 58.925781 286.539062 68.53125 289.050781 81.019531 290.394531 C 83.535156 290.667969 85.789062 288.851562 86.0625 286.332031 C 86.332031 283.820312 84.511719 281.5625 82 281.292969 C 66.296875 279.609375 56.046875 275.953125 50.074219 272.042969 C 47.089844 270.082031 45.167969 268.085938 44.023438 266.296875 C 42.886719 264.5 42.488281 262.917969 42.480469 261.519531 C 42.488281 259.386719 43.425781 257.4375 45.277344 255.820312 C 47.132812 254.21875 49.914062 253.089844 53.285156 253.089844 C 53.539062 253.089844 53.800781 253.101562 54.082031 253.117188 L 54.089844 253.117188 C 56.171875 253.234375 57.4375 253.722656 58.3125 254.257812 C 58.96875 254.671875 59.441406 255.132812 59.820312 255.636719 C 60.378906 256.386719 60.730469 257.273438 60.902344 257.949219 C 60.980469 258.285156 61.035156 258.566406 61.054688 258.726562 L 61.074219 258.882812 L 61.117188 258.882812 L 61.074219 258.882812 L 61.117188 258.882812 L 61.074219 258.882812 L 64.003906 258.710938 L 61.0625 258.816406 L 61.074219 258.882812 L 64.003906 258.710938 L 61.0625 258.816406 C 61.164062 261.347656 63.28125 263.324219 65.808594 263.234375 C 68.335938 263.136719 70.308594 261.011719 70.210938 258.484375 "/>
<path style=" stroke:none;fill-rule:nonzero;fill:rgb(22.349548%,20.779419%,21.179199%);fill-opacity:1;" d="M 117.484375 191.019531 C 117.445312 190.59375 117.355469 187.53125 115.289062 184.011719 C 114.261719 182.265625 112.664062 180.414062 110.390625 179.015625 C 108.117188 177.605469 105.222656 176.683594 101.832031 176.511719 L 101.839844 176.511719 C 101.390625 176.496094 100.9375 176.476562 100.476562 176.476562 C 95.117188 176.476562 90.257812 178.140625 86.585938 181.082031 C 84.753906 182.546875 83.21875 184.355469 82.144531 186.429688 C 81.0625 188.5 80.441406 190.855469 80.449219 193.296875 C 80.441406 196.464844 81.488281 199.71875 83.492188 202.652344 C 86.503906 207.078125 91.511719 210.882812 98.738281 213.988281 C 105.980469 217.085938 115.523438 219.492188 127.9375 220.828125 C 130.445312 221.097656 132.703125 219.28125 132.972656 216.761719 C 133.242188 214.25 131.429688 211.992188 128.914062 211.722656 C 113.25 210.042969 103.003906 206.554688 97.050781 202.863281 C 94.0625 201.019531 92.167969 199.140625 91.058594 197.503906 C 89.957031 195.859375 89.605469 194.488281 89.597656 193.296875 C 89.605469 192.375 89.824219 191.515625 90.257812 190.660156 C 90.914062 189.394531 92.132812 188.136719 93.882812 187.191406 C 95.632812 186.25 97.886719 185.644531 100.476562 185.644531 C 100.75 185.644531 101.035156 185.65625 101.34375 185.671875 L 101.351562 185.671875 C 103.445312 185.78125 104.699219 186.277344 105.582031 186.808594 C 106.242188 187.21875 106.703125 187.675781 107.082031 188.183594 C 107.648438 188.933594 107.992188 189.820312 108.164062 190.496094 C 108.253906 190.828125 108.300781 191.109375 108.316406 191.273438 L 108.335938 191.425781 L 108.390625 191.417969 L 108.335938 191.425781 L 108.390625 191.417969 L 108.335938 191.425781 L 111.257812 191.253906 L 108.335938 191.363281 L 108.335938 191.425781 L 111.257812 191.253906 L 108.335938 191.363281 C 108.425781 193.890625 110.554688 195.859375 113.082031 195.769531 C 115.605469 195.679688 117.574219 193.546875 117.484375 191.019531 "/>
<path style=" stroke:none;fill-rule:nonzero;fill:rgb(22.349548%,20.779419%,21.179199%);fill-opacity:1;" d="M 764.457031 341.78125 C 766.054688 341.828125 767.59375 341.855469 769.09375 341.855469 C 784.734375 341.835938 795.605469 339.335938 803.03125 335.089844 C 806.730469 332.964844 809.5625 330.355469 811.457031 327.394531 C 813.359375 324.429688 814.273438 321.144531 814.261719 317.964844 C 814.261719 315.152344 813.578125 312.460938 812.421875 310.023438 C 810.671875 306.367188 807.875 303.265625 804.410156 301.027344 C 800.957031 298.785156 796.789062 297.414062 792.324219 297.414062 C 791.960938 297.414062 791.554688 297.414062 791.125 297.449219 L 791.4375 302.019531 L 791.195312 297.441406 C 787.804688 297.613281 784.90625 298.523438 782.632812 299.941406 C 780.929688 300.992188 779.601562 302.300781 778.609375 303.621094 C 777.132812 305.605469 776.390625 307.601562 776.003906 309.121094 C 775.605469 310.636719 775.5625 311.703125 775.542969 311.949219 C 775.453125 314.476562 777.429688 316.609375 779.953125 316.699219 C 782.480469 316.789062 784.601562 314.820312 784.691406 312.289062 L 782.941406 312.21875 L 784.691406 312.355469 L 784.691406 312.289062 L 782.941406 312.21875 L 784.691406 312.355469 C 784.683594 312.28125 784.890625 310.628906 785.765625 309.363281 C 786.199219 308.722656 786.746094 308.136719 787.613281 307.640625 C 788.480469 307.140625 789.714844 306.699219 791.671875 306.601562 L 791.753906 306.589844 C 791.90625 306.582031 792.097656 306.574219 792.324219 306.574219 C 795.734375 306.5625 799.007812 308.007812 801.390625 310.242188 C 802.582031 311.351562 803.527344 312.632812 804.160156 313.960938 C 804.789062 315.296875 805.105469 316.652344 805.105469 317.964844 C 805.097656 319.453125 804.726562 320.90625 803.753906 322.441406 C 802.292969 324.730469 799.289062 327.304688 793.703125 329.308594 C 788.136719 331.3125 780.082031 332.695312 769.09375 332.6875 C 767.695312 332.6875 766.234375 332.667969 764.734375 332.621094 C 762.210938 332.542969 760.097656 334.539062 760.027344 337.066406 C 759.945312 339.597656 761.929688 341.710938 764.464844 341.78125 "/>
<path style=" stroke:none;fill-rule:nonzero;fill:rgb(22.349548%,20.779419%,21.179199%);fill-opacity:1;" d="M 762.398438 255.203125 L 760.667969 255.140625 L 762.398438 255.269531 L 762.398438 255.203125 L 760.667969 255.140625 L 762.398438 255.269531 C 762.390625 255.195312 762.597656 253.542969 763.472656 252.269531 C 763.914062 251.617188 764.464844 251.039062 765.332031 250.535156 C 766.199219 250.046875 767.425781 249.605469 769.382812 249.496094 C 769.625 249.488281 769.84375 249.476562 770.03125 249.476562 C 773.441406 249.46875 776.726562 250.914062 779.105469 253.144531 C 780.296875 254.257812 781.246094 255.539062 781.867188 256.867188 C 782.507812 258.203125 782.824219 259.558594 782.824219 260.867188 C 782.816406 262.359375 782.4375 263.8125 781.460938 265.347656 C 780.007812 267.632812 777.015625 270.199219 771.429688 272.214844 C 765.863281 274.21875 757.808594 275.589844 746.835938 275.589844 C 745.421875 275.589844 743.949219 275.5625 742.445312 275.519531 C 739.917969 275.445312 737.808594 277.441406 737.734375 279.972656 C 737.664062 282.5 739.648438 284.613281 742.183594 284.6875 C 743.78125 284.734375 745.332031 284.75 746.835938 284.75 C 762.460938 284.734375 773.332031 282.230469 780.75 277.996094 C 784.449219 275.871094 787.269531 273.261719 789.175781 270.296875 C 791.070312 267.335938 791.980469 264.046875 791.972656 260.867188 C 791.972656 258.058594 791.292969 255.367188 790.132812 252.929688 C 788.390625 249.269531 785.585938 246.171875 782.128906 243.921875 C 778.664062 241.691406 774.496094 240.308594 770.03125 240.308594 C 769.632812 240.308594 769.253906 240.328125 768.894531 240.347656 C 765.511719 240.519531 762.617188 241.429688 760.34375 242.847656 C 758.636719 243.894531 757.3125 245.207031 756.328125 246.523438 C 754.839844 248.519531 754.109375 250.515625 753.710938 252.027344 C 753.316406 253.550781 753.261719 254.617188 753.25 254.863281 C 753.160156 257.390625 755.128906 259.511719 757.652344 259.613281 C 760.179688 259.703125 762.308594 257.734375 762.398438 255.203125 "/>
<path style=" stroke:none;fill-rule:nonzero;fill:rgb(22.349548%,20.779419%,21.179199%);fill-opacity:1;" d="M 711.601562 179.9375 L 709.804688 179.875 L 711.601562 180.007812 L 711.601562 179.9375 L 709.804688 179.875 L 711.601562 180.007812 C 711.589844 179.9375 711.796875 178.285156 712.671875 177.019531 C 713.105469 176.367188 713.65625 175.789062 714.523438 175.292969 C 715.390625 174.796875 716.625 174.355469 718.582031 174.246094 C 718.816406 174.238281 719.035156 174.238281 719.230469 174.238281 C 722.640625 174.226562 725.925781 175.664062 728.308594 177.894531 C 729.488281 179.007812 730.4375 180.296875 731.066406 181.617188 C 731.699219 182.945312 732.015625 184.300781 732.015625 185.609375 C 732.015625 187.109375 731.636719 188.5625 730.664062 190.097656 C 729.199219 192.382812 726.207031 194.949219 720.613281 196.964844 C 715.046875 198.96875 706.992188 200.339844 696.003906 200.339844 C 694.59375 200.339844 693.144531 200.3125 691.636719 200.269531 C 689.109375 200.195312 687 202.191406 686.9375 204.722656 C 686.863281 207.25 688.847656 209.363281 691.375 209.4375 C 692.960938 209.480469 694.503906 209.5 696.003906 209.5 C 711.644531 209.480469 722.515625 206.980469 729.941406 202.742188 C 733.640625 200.613281 736.472656 198.011719 738.367188 195.039062 C 740.269531 192.085938 741.179688 188.789062 741.171875 185.609375 C 741.171875 182.808594 740.488281 180.109375 739.332031 177.679688 C 737.582031 174.019531 734.785156 170.921875 731.328125 168.683594 C 727.867188 166.441406 723.699219 165.070312 719.230469 165.070312 C 718.84375 165.070312 718.464844 165.078125 718.105469 165.097656 C 714.710938 165.269531 711.816406 166.179688 709.542969 167.589844 C 707.839844 168.644531 706.511719 169.945312 705.527344 171.273438 C 704.039062 173.261719 703.308594 175.257812 702.914062 176.773438 C 702.515625 178.292969 702.46875 179.359375 702.453125 179.601562 C 702.363281 182.132812 704.339844 184.261719 706.863281 184.355469 C 709.390625 184.445312 711.511719 182.476562 711.601562 179.945312 "/>
<path style=" stroke:none;fill-rule:nonzero;fill:rgb(22.349548%,20.779419%,21.179199%);fill-opacity:1;" d="M 195.796875 127.800781 C 195.75 127.375 195.660156 124.324219 193.605469 120.792969 C 192.566406 119.046875 190.980469 117.195312 188.695312 115.796875 C 186.433594 114.386719 183.535156 113.464844 180.144531 113.292969 L 180.152344 113.292969 C 179.703125 113.277344 179.25 113.257812 178.78125 113.257812 C 173.433594 113.257812 168.570312 114.921875 164.898438 117.863281 C 163.066406 119.328125 161.535156 121.136719 160.453125 123.210938 C 159.367188 125.28125 158.753906 127.636719 158.753906 130.078125 C 158.746094 133.246094 159.800781 136.5 161.796875 139.433594 C 164.808594 143.859375 169.816406 147.664062 177.050781 150.769531 C 184.292969 153.867188 193.832031 156.261719 206.242188 157.609375 C 208.761719 157.878906 211.015625 156.054688 211.285156 153.542969 C 211.558594 151.023438 209.742188 148.765625 207.226562 148.496094 C 191.566406 146.824219 181.308594 143.335938 175.355469 139.632812 C 172.378906 137.789062 170.472656 135.921875 169.375 134.285156 C 168.265625 132.640625 167.910156 131.269531 167.910156 130.078125 C 167.910156 129.15625 168.128906 128.296875 168.570312 127.441406 C 169.230469 126.175781 170.4375 124.917969 172.195312 123.972656 C 173.945312 123.03125 176.203125 122.425781 178.78125 122.425781 C 179.0625 122.425781 179.351562 122.433594 179.65625 122.445312 L 179.667969 122.445312 C 181.75 122.5625 183.011719 123.058594 183.890625 123.589844 C 184.546875 124.007812 185.015625 124.457031 185.394531 124.964844 C 185.953125 125.714844 186.304688 126.597656 186.476562 127.277344 C 186.566406 127.609375 186.613281 127.890625 186.632812 128.054688 L 186.648438 128.207031 L 186.75 128.199219 L 186.648438 128.207031 L 186.75 128.199219 L 186.648438 128.207031 L 189.582031 128.035156 L 186.648438 128.144531 L 186.648438 128.207031 L 189.582031 128.035156 L 186.648438 128.144531 C 186.738281 130.671875 188.859375 132.652344 191.386719 132.550781 C 193.910156 132.460938 195.886719 130.339844 195.796875 127.808594 "/>
</g>
</svg>
