<?xml version="1.0" encoding="UTF-8"?>
<svg xmlns="http://www.w3.org/2000/svg" xmlns:xlink="http://www.w3.org/1999/xlink" width="810pt" height="809.999993pt" viewBox="0 0 810 809.999993" version="1.2">
<g id="surface1">
<path style=" stroke:none;fill-rule:nonzero;fill:rgb(22.349548%,20.779419%,21.179199%);fill-opacity:1;" d="M 271.964844 26.777344 C 220.269531 39.882812 172.148438 64.25 132.738281 100.410156 C 94.9375 135.089844 67.4375 179.363281 48.441406 226.734375 C 27.660156 278.53125 17.429688 333.980469 14.929688 389.585938 C 12.679688 439.554688 17.335938 490.191406 31.472656 538.265625 C 43.953125 580.730469 64.359375 620.46875 91.847656 655.148438 C 118.863281 689.238281 152.945312 717.363281 190.410156 739.273438 C 231.175781 763.113281 276.148438 779.40625 322.050781 790.085938 C 373.726562 802.125 429.007812 809.582031 481.984375 803.808594 C 533.457031 798.199219 582.632812 779.339844 624.871094 749.429688 C 666.632812 719.835938 700.640625 680.414062 726.914062 636.675781 C 754.414062 590.90625 773.328125 540.019531 784.648438 487.921875 C 792.09375 453.636719 796.953125 418.367188 795.324219 383.226562 C 792.476562 322.027344 775.082031 261.070312 747.421875 206.566406 C 714.734375 142.152344 664.824219 86.609375 601.324219 51.546875 C 519.242188 6.222656 422.96875 0.210938 331.84375 14.46875 C 311.703125 17.617188 291.738281 21.832031 271.964844 26.777344 C 264.640625 28.605469 267.75 39.910156 275.082031 38.074219 C 370.054688 14.347656 473.8125 8.304688 565.742188 47.246094 C 633.617188 76.007812 688.367188 127.71875 725.53125 190.933594 C 756.945312 244.386719 776.792969 305.71875 782.507812 367.488281 C 785.269531 397.261719 783.386719 426.421875 778.75 455.929688 C 770.398438 509.046875 753.957031 561.066406 729.105469 608.777344 C 705.339844 654.410156 673.402344 695.835938 633.394531 728.351562 C 593.496094 760.78125 545.554688 782.085938 494.859375 790.339844 C 441.828125 798.976562 386.152344 791.894531 333.988281 780.753906 C 287.621094 770.863281 242.375 755.105469 200.988281 731.828125 C 163.09375 710.53125 129.171875 682.644531 101.738281 648.863281 C 74.011719 614.726562 54.207031 574.632812 41.988281 532.496094 C 27.941406 484.042969 24.273438 433.195312 26.96875 382.984375 C 29.945312 327.523438 41.464844 272.171875 63.394531 221.011719 C 82.082031 177.367188 108.992188 137.460938 144.378906 105.65625 C 181.4375 72.34375 227.011719 50.273438 275.082031 38.074219 C 282.402344 36.21875 279.296875 24.914062 271.964844 26.777344 "/>
<path style=" stroke:none;fill-rule:nonzero;fill:rgb(22.349548%,20.779419%,21.179199%);fill-opacity:1;" d="M 75.632812 589.011719 C 78.121094 559.0625 100.292969 538.546875 124.519531 523.726562 C 130.472656 520.082031 136.644531 516.777344 142.851562 513.589844 C 146.523438 511.707031 147.824219 510.3125 149.742188 506.660156 C 151.699219 502.910156 153.910156 499.296875 156.195312 495.746094 C 164.292969 483.144531 174.527344 472.0625 185.230469 461.65625 C 206.792969 440.679688 231.027344 422.628906 251.46875 400.472656 C 266.027344 384.6875 278.210938 366.234375 289.097656 347.761719 C 298.011719 332.621094 307.039062 315.507812 307.996094 297.613281 C 308.894531 280.910156 297.589844 269.742188 281.824219 266.707031 C 270.820312 264.589844 257.433594 264.574219 246.644531 267.644531 C 235.324219 270.867188 225.296875 278.382812 214.828125 283.535156 C 206.765625 287.503906 192.757812 292.761719 188.125 281.480469 C 183.601562 270.492188 186.222656 256.628906 186.8125 245.144531 C 187.515625 231.316406 186.589844 218.699219 176.765625 208.1875 C 167.664062 198.445312 153.976562 193.667969 141.15625 191.539062 C 113.789062 187.007812 81.933594 192.46875 59.769531 209.796875 C 53.8125 214.445312 62.175781 222.679688 68.046875 218.089844 C 85.96875 204.074219 111.980469 200.335938 134.023438 202.339844 C 144.734375 203.316406 155.464844 206.519531 164.304688 212.75 C 173.535156 219.25 175.371094 228.402344 175.296875 239.082031 C 175.164062 257.960938 167.167969 295.101562 194.21875 299.664062 C 205.914062 301.640625 217.523438 295.535156 227.488281 290.15625 C 238.300781 284.328125 247.421875 278.492188 259.902344 277.527344 C 273.320312 276.480469 295.148438 276.734375 296.269531 294.308594 C 297.339844 310.851562 286.984375 328.132812 278.988281 341.839844 C 268.03125 360.605469 255.570312 378.972656 240.707031 394.84375 C 220.15625 416.800781 195.820312 434.796875 174.398438 455.867188 C 163.441406 466.640625 153.433594 478.40625 145.109375 491.34375 C 143.152344 494.394531 141.351562 497.554688 139.621094 500.738281 C 137.886719 503.953125 133.910156 505.019531 130.753906 506.695312 C 124.085938 510.257812 117.578125 514.097656 111.277344 518.265625 C 86.15625 534.855469 66.492188 558.050781 63.917969 589.011719 C 63.289062 596.542969 75.003906 596.488281 75.632812 589.011719 "/>
<path style=" stroke:none;fill-rule:nonzero;fill:rgb(22.349548%,20.779419%,21.179199%);fill-opacity:1;" d="M 239.292969 37.289062 C 225.035156 49.324219 210.765625 64.847656 208.648438 84.242188 C 207.054688 98.828125 213.65625 111.949219 222.9375 122.742188 C 232.09375 133.394531 244.023438 141.648438 255.746094 149.214844 C 260.8125 152.484375 265.972656 155.597656 271.035156 158.855469 C 274.714844 161.226562 276.964844 162.367188 279.425781 165.339844 C 279.828125 162.265625 280.222656 159.203125 280.617188 156.128906 C 267.480469 161.808594 256.328125 173.824219 266.449219 187.792969 C 276.375 201.488281 294.285156 209.5 309.164062 216.402344 C 349.925781 235.308594 398.914062 254.859375 444.1875 243.964844 C 455.382812 241.265625 464.625 234.800781 472.914062 227.046875 C 481.125 219.363281 489.09375 211.410156 499.925781 207.511719 C 504.617188 205.828125 510.273438 206.707031 515.085938 207.25 C 521.789062 208.007812 528.429688 209.3125 535.125 210.191406 C 547.953125 211.886719 558.664062 210.808594 568.664062 202.078125 C 589.476562 183.914062 575.648438 156.046875 571.171875 134.125 C 568.953125 123.304688 573.46875 115.539062 580.113281 107.324219 C 586.761719 99.097656 593.214844 91.199219 596.191406 80.847656 C 598.421875 73.101562 597.941406 64.960938 596.746094 57.09375 C 595.613281 49.644531 584.320312 52.820312 585.441406 60.210938 C 587.335938 72.625 584.308594 82.890625 576.882812 92.792969 C 570.722656 101.019531 563.980469 108.101562 560.21875 117.863281 C 556.171875 128.363281 560.488281 140.792969 563.429688 151.042969 C 566.613281 162.164062 570.5625 174.144531 566.464844 185.535156 C 561.695312 198.746094 548.449219 199.945312 536.648438 198.660156 C 524.675781 197.347656 512.210938 193.394531 500.113281 195.464844 C 477.21875 199.382812 466.433594 223.746094 445.582031 231.308594 C 432.773438 235.953125 417.949219 235.792969 404.578125 234.445312 C 390.738281 233.050781 375.738281 230.15625 362.667969 225.300781 C 349.25 220.320312 335.824219 215.390625 322.6875 209.695312 C 308.144531 203.382812 292.414062 196.515625 280.457031 185.855469 C 278.5 184.121094 276.757812 182.304688 275.398438 180.160156 C 274.546875 178.828125 274.566406 178.78125 274.210938 177.582031 C 273.949219 176.710938 274.003906 175.933594 273.96875 176.222656 C 274.640625 171.660156 281.597656 168.382812 286.523438 166.246094 C 290.277344 164.636719 289.867188 159.625 287.714844 157.046875 C 282.367188 150.628906 273.367188 146.472656 266.410156 142.105469 C 255.445312 135.230469 244.652344 128.015625 235.390625 118.902344 C 227.019531 110.65625 220.089844 100.324219 220.089844 88.203125 C 220.101562 70.609375 235.195312 56.035156 247.582031 45.570312 C 253.359375 40.6875 245.023438 32.445312 239.292969 37.289062 "/>
<path style=" stroke:none;fill-rule:nonzero;fill:rgb(22.349548%,20.779419%,21.179199%);fill-opacity:1;" d="M 674.039062 121.460938 C 666.34375 136.355469 663.910156 152.203125 663.769531 168.824219 C 663.636719 185.835938 665.199219 202.875 661.980469 219.71875 C 656.734375 247.101562 631.578125 256.066406 609.542969 267.476562 C 594.308594 275.363281 578.851562 282.539062 562.707031 288.394531 C 549.582031 293.164062 535.515625 295.160156 523.90625 303.308594 C 512.21875 311.507812 502.714844 322.777344 495.046875 334.71875 C 490.367188 342.007812 483.90625 352.171875 484.335938 361.269531 C 484.859375 372.171875 492.875 382.09375 499.382812 390.195312 C 509.121094 402.320312 520.375 413.234375 531.640625 423.902344 C 553.617188 444.707031 577.625 463.667969 598.449219 485.65625 C 599.929688 487.21875 601.359375 488.8125 602.726562 490.472656 C 603.71875 491.679688 602.550781 490.160156 603.644531 491.6875 C 604.121094 492.355469 604.554688 493.046875 604.945312 493.769531 C 605.855469 495.40625 604.742188 492.917969 605.097656 494.097656 C 605.285156 494.675781 605.078125 493.121094 605.199219 492.511719 C 605.347656 491.734375 606.585938 490.359375 606.988281 490.125 C 607.671875 489.722656 608.4375 489.730469 607.894531 489.757812 C 607.210938 489.789062 606.527344 489.722656 605.847656 489.648438 C 607.671875 489.84375 604.777344 489.402344 604.300781 489.300781 C 601.59375 488.710938 598.953125 487.867188 596.332031 487.003906 C 584.027344 482.910156 572.128906 477.757812 559.757812 473.804688 C 535.300781 465.984375 507.792969 459.199219 481.976562 463.070312 C 470.292969 464.832031 460.636719 472.550781 449.671875 476.558594 C 435.167969 481.851562 420.816406 485.992188 408.800781 496.109375 C 389.417969 512.429688 376.976562 541.964844 386.105469 566.6875 C 391.011719 579.960938 402.285156 591.34375 412.574219 600.664062 C 423.371094 610.445312 435.496094 618.691406 447.371094 627.066406 C 459.503906 635.636719 471.339844 644.527344 481.628906 655.300781 C 492.136719 666.296875 498.15625 679.976562 507.351562 691.898438 C 517.4375 704.988281 531.761719 710.148438 547.371094 713.847656 C 554.320312 715.488281 561.6875 716.480469 567.894531 720.210938 C 572.464844 722.972656 575.546875 728.21875 579.105469 732.078125 C 588.484375 742.226562 602.289062 749.035156 616.023438 744.0625 C 627.925781 739.742188 634.394531 726.984375 638.871094 716.003906 C 648.984375 691.160156 649.5625 663.167969 653.167969 636.917969 C 654.273438 628.882812 655.078125 622.644531 653.691406 614.613281 C 652.128906 605.574219 649.636719 596.683594 647.308594 587.824219 C 642.4375 569.320312 635.695312 549.742188 635.660156 530.414062 C 635.660156 527.753906 635.828125 525.984375 636.71875 523.550781 C 636.941406 522.949219 636.828125 523.316406 637.363281 523.324219 C 636.136719 523.316406 638.992188 523.847656 638.515625 523.644531 C 639.871094 524.242188 641.117188 525.085938 642.324219 525.949219 C 645.21875 528 647.699219 530.820312 650.089844 533.421875 C 662.4375 546.921875 672.15625 562.621094 683.984375 576.570312 C 694.144531 588.5625 707.992188 599.953125 723.046875 587.402344 C 727.222656 583.925781 730.03125 580.140625 735.324219 578.0625 C 740.980469 575.839844 747.328125 575.054688 752.476562 571.664062 C 755.671875 569.566406 757.84375 565.226562 759.894531 562.117188 C 762.234375 558.558594 764.648438 554.96875 766.636719 551.203125 C 770.164062 544.523438 760.050781 538.601562 756.523438 545.28125 C 754.527344 549.058594 752.101562 552.628906 749.769531 556.195312 C 746.316406 561.515625 744.941406 562.78125 738.742188 564.65625 C 732.382812 566.574219 726.175781 568.691406 721.015625 573.050781 C 716.691406 576.710938 714.078125 581.253906 707.804688 581.367188 C 706.726562 581.386719 704.265625 579.933594 702.242188 578.453125 C 699.058594 576.113281 696.335938 572.898438 693.722656 569.96875 C 687 562.386719 681.082031 554.097656 675.011719 546.003906 C 669.058594 538.058594 663.09375 530.042969 656.230469 522.847656 C 651.398438 517.777344 645.246094 512.25 637.925781 511.652344 C 620.488281 510.21875 623.824219 535.464844 625.40625 545.703125 C 628.550781 566.125 634.984375 585.949219 639.863281 605.988281 C 641.417969 612.402344 643.441406 619.269531 643.09375 625.929688 C 643 627.890625 643.609375 623.019531 642.90625 627.046875 C 642.671875 628.375 642.476562 629.695312 642.269531 631.027344 C 641.828125 633.902344 641.464844 636.789062 641.089844 639.675781 C 640.210938 646.4375 639.488281 653.21875 638.691406 660.003906 C 637.074219 673.8125 635.117188 687.617188 631.484375 701.0625 C 628.496094 712.144531 623.691406 726.703125 613.035156 732.652344 C 599.964844 739.9375 587.933594 724.246094 580.59375 715.882812 C 571.144531 705.109375 555.917969 704.132812 542.933594 700.648438 C 535.21875 698.570312 527.230469 695.675781 521.320312 690.128906 C 515.589844 684.742188 511.621094 677.6875 507.632812 671 C 499.953125 658.148438 490.851562 647.066406 479.625 637.136719 C 457.574219 617.632812 430.851562 604.121094 410.710938 582.378906 C 400.84375 571.71875 394.007812 560.582031 394.878906 545.6875 C 395.65625 532.449219 402.707031 519.578125 411.414062 509.898438 C 422.03125 498.097656 436.28125 493.628906 450.863281 488.542969 C 458.597656 485.84375 466.152344 482.703125 473.230469 478.5625 C 476.789062 476.484375 480.019531 475.3125 484.101562 474.546875 C 494.53125 472.578125 505.917969 473.832031 516.304688 475.378906 C 532.136719 477.738281 547.660156 482.066406 562.820312 487.125 C 573.765625 490.769531 584.328125 495.484375 595.320312 498.988281 C 599.367188 500.277344 603.890625 501.664062 608.1875 501.46875 C 618.410156 501 617.726562 491.042969 613.035156 484.785156 C 606.210938 475.660156 597.398438 467.980469 589.039062 460.304688 C 564.851562 438.113281 539.535156 416.980469 517.203125 392.867188 C 512.699219 388.003906 508.308594 382.992188 504.394531 377.632812 C 502.78125 375.441406 501.285156 373.164062 499.890625 370.824219 C 498.664062 368.761719 497.425781 366.121094 497.03125 365.0625 C 496.707031 364.152344 496.441406 363.226562 496.226562 362.289062 C 495.863281 360.742188 496.132812 362.84375 496.039062 360.867188 C 495.964844 359.328125 496.085938 359.5625 496.050781 359.714844 C 496.621094 356.828125 498.042969 353.960938 499.261719 351.308594 C 505.402344 337.96875 514.90625 326.054688 525.964844 316.472656 C 534.007812 309.492188 542.363281 307.132812 552.324219 304.171875 C 565.441406 300.285156 578.1875 295.167969 590.695312 289.679688 C 601.464844 284.9375 611.773438 279.347656 622.308594 274.136719 C 631.042969 269.820312 639.902344 265.707031 647.980469 260.21875 C 666.613281 247.550781 673.5625 228.84375 675.359375 207.035156 C 677.589844 180.09375 671.164062 152.484375 684.160156 127.378906 C 687.625 120.671875 677.511719 114.75 674.039062 121.460938 "/>
<path style=" stroke:none;fill-rule:nonzero;fill:rgb(22.349548%,20.779419%,21.179199%);fill-opacity:1;" d="M 68.722656 599.382812 C 78.589844 602.464844 86.839844 608.714844 95.695312 613.828125 C 105.191406 619.328125 115.386719 622.398438 126.371094 622.550781 C 137.496094 622.691406 147.785156 621.136719 155.371094 631.082031 C 161.820312 639.5625 162.234375 650.578125 169.976562 658.417969 C 175.558594 664.066406 182.582031 665.371094 189.707031 667.730469 C 189.136719 667.542969 188.75 667.347656 188.515625 666.785156 C 189.164062 668.359375 189.378906 670.148438 189.660156 671.816406 C 190.726562 678.277344 190.847656 684.351562 189.707031 690.804688 C 187.964844 700.59375 187.890625 709.230469 189.21875 719.03125 C 190.238281 726.535156 191.109375 736.210938 196.128906 742.273438 C 200.960938 748.097656 209.199219 739.75 204.414062 733.980469 C 203.703125 733.117188 202.738281 728.125 202.289062 726.082031 C 201.25 721.410156 200.558594 716.648438 200.042969 711.882812 C 198.855469 700.800781 202.738281 690.335938 202.328125 679.300781 C 202.054688 672.285156 201.496094 661.875 195.136719 657.453125 C 193.160156 656.078125 190.34375 655.816406 188.078125 655.234375 C 183.386719 654.027344 178.957031 651.597656 176.027344 647.65625 C 173.367188 644.066406 172.234375 639.523438 170.6875 635.394531 C 168.675781 630.015625 165.886719 625.359375 162.148438 621.003906 C 154.695312 612.300781 143.804688 610.566406 132.992188 610.726562 C 120.734375 610.914062 110.921875 609.097656 100.210938 602.90625 C 90.867188 597.5 82.261719 591.335938 71.839844 588.085938 C 64.601562 585.828125 61.53125 597.144531 68.722656 599.382812 "/>
<path style=" stroke:none;fill-rule:nonzero;fill:rgb(22.349548%,20.779419%,21.179199%);fill-opacity:1;" d="M 72.449219 247.082031 C 79.347656 240.664062 90.125 238.820312 98.898438 236.320312 C 106.15625 234.25 103.066406 222.941406 95.789062 225.011719 C 84.835938 228.140625 72.746094 230.8125 64.171875 238.792969 C 58.628906 243.953125 66.921875 252.214844 72.449219 247.082031 "/>
<path style=" stroke:none;fill-rule:nonzero;fill:rgb(22.349548%,20.779419%,21.179199%);fill-opacity:1;" d="M 121.792969 242.632812 C 123.113281 242.632812 124.425781 242.652344 125.734375 242.753906 C 124.789062 242.679688 126.878906 243 126.792969 242.980469 C 126.632812 242.953125 128.476562 243.578125 128.027344 243.363281 C 130.921875 244.703125 134.3125 244.207031 136.035156 241.265625 C 137.53125 238.707031 136.832031 234.585938 133.9375 233.246094 C 130.003906 231.417969 126.101562 230.914062 121.792969 230.914062 C 118.601562 230.914062 115.941406 233.582031 115.941406 236.777344 C 115.941406 239.972656 118.601562 242.632812 121.792969 242.632812 "/>
<path style=" stroke:none;fill-rule:nonzero;fill:rgb(22.349548%,20.779419%,21.179199%);fill-opacity:1;" d="M 145.773438 258.089844 C 146.671875 259.917969 146.972656 260.75 147.738281 262.679688 C 148.5625 264.730469 149.394531 266.792969 150.359375 268.777344 C 151.757812 271.65625 155.78125 272.40625 158.375 270.886719 C 161.277344 269.183594 161.878906 265.742188 160.472656 262.867188 C 159.023438 259.871094 157.644531 255.757812 155.894531 252.179688 C 154.488281 249.304688 150.472656 248.554688 147.878906 250.070312 C 144.976562 251.777344 144.378906 255.222656 145.773438 258.089844 "/>
<path style=" stroke:none;fill-rule:nonzero;fill:rgb(22.349548%,20.779419%,21.179199%);fill-opacity:1;" d="M 258.265625 53.730469 C 243.613281 67.097656 228.734375 102.3125 251.824219 114.9375 C 258.453125 118.5625 264.359375 108.4375 257.730469 104.8125 C 242.46875 96.476562 257.882812 69.925781 266.550781 62.019531 C 272.140625 56.914062 263.835938 48.640625 258.265625 53.730469 "/>
<path style=" stroke:none;fill-rule:nonzero;fill:rgb(22.349548%,20.779419%,21.179199%);fill-opacity:1;" d="M 265.914062 130.835938 C 268.070312 133.019531 270.464844 134.929688 273.210938 136.335938 C 276.046875 137.789062 279.539062 137.105469 281.222656 134.226562 C 282.769531 131.59375 281.964844 127.660156 279.117188 126.207031 C 278.480469 125.890625 277.863281 125.542969 277.253906 125.179688 C 276.890625 124.953125 275.167969 123.671875 276.671875 124.839844 C 275.785156 124.148438 274.988281 123.351562 274.203125 122.546875 C 271.953125 120.269531 268.164062 120.296875 265.914062 122.546875 C 263.640625 124.8125 263.675781 128.558594 265.914062 130.835938 "/>
<path style=" stroke:none;fill-rule:nonzero;fill:rgb(22.349548%,20.779419%,21.179199%);fill-opacity:1;" d="M 288.648438 158.808594 C 288.648438 159.820312 288.648438 160.832031 288.648438 161.84375 C 288.648438 165.039062 291.316406 167.707031 294.511719 167.707031 C 297.703125 167.707031 300.371094 165.039062 300.371094 161.84375 C 300.371094 160.832031 300.371094 159.820312 300.371094 158.808594 C 300.371094 155.613281 297.703125 152.953125 294.511719 152.953125 C 291.316406 152.953125 288.648438 155.613281 288.648438 158.808594 "/>
<path style=" stroke:none;fill-rule:nonzero;fill:rgb(22.349548%,20.779419%,21.179199%);fill-opacity:1;" d="M 687.765625 192.410156 C 681.726562 225.359375 672.328125 261.285156 644.957031 283.113281 C 639.046875 287.824219 647.402344 296.058594 653.242188 291.402344 C 682.082031 268.394531 692.691406 230.296875 699.066406 195.523438 C 700.417969 188.140625 689.125 184.984375 687.765625 192.410156 "/>
<path style=" stroke:none;fill-rule:nonzero;fill:rgb(22.349548%,20.779419%,21.179199%);fill-opacity:1;" d="M 609.320312 296.890625 C 604.273438 298.570312 599.207031 300.160156 594.046875 301.472656 C 586.726562 303.328125 589.835938 314.636719 597.15625 312.769531 C 602.316406 311.460938 607.390625 309.875 612.4375 308.199219 C 619.574219 305.820312 616.511719 294.503906 609.320312 296.890625 "/>
<path style=" stroke:none;fill-rule:nonzero;fill:rgb(22.349548%,20.779419%,21.179199%);fill-opacity:1;" d="M 545.601562 321.324219 C 542.316406 324.707031 539.722656 328.667969 536.425781 332.039062 C 531.144531 337.457031 539.421875 345.746094 544.710938 340.332031 C 548 336.957031 550.601562 332.988281 553.886719 329.613281 C 559.148438 324.191406 550.871094 315.890625 545.601562 321.324219 "/>
<path style=" stroke:none;fill-rule:nonzero;fill:rgb(22.349548%,20.779419%,21.179199%);fill-opacity:1;" d="M 527.070312 363.714844 C 526.03125 388.539062 550.640625 403.910156 567.007812 418.339844 C 572.652344 423.3125 580.96875 415.050781 575.285156 410.046875 C 561.78125 398.140625 537.921875 384.3125 538.785156 363.714844 C 539.101562 356.152344 527.390625 356.183594 527.070312 363.714844 "/>
<path style=" stroke:none;fill-rule:nonzero;fill:rgb(22.349548%,20.779419%,21.179199%);fill-opacity:1;" d="M 620.519531 649.613281 C 616.15625 670.230469 612.886719 691.367188 601.238281 709.378906 C 597.117188 715.75 607.257812 721.625 611.351562 715.300781 C 623.570312 696.40625 627.242188 674.355469 631.820312 652.734375 C 633.382812 645.359375 622.089844 642.222656 620.519531 649.613281 "/>
<path style=" stroke:none;fill-rule:nonzero;fill:rgb(22.349548%,20.779419%,21.179199%);fill-opacity:1;" d="M 584.871094 695.984375 C 584.589844 696.070312 582.335938 696.480469 583.65625 696.351562 C 583.328125 696.378906 583 696.378906 582.660156 696.359375 C 584.027344 696.398438 582.867188 696.367188 582.457031 696.246094 C 583.1875 696.585938 583.269531 696.613281 582.707031 696.3125 C 582.175781 695.957031 582.242188 696.023438 582.90625 696.492188 L 582.335938 695.882812 C 583.289062 696.96875 582.484375 695.945312 582.316406 695.628906 C 580.816406 692.808594 576.96875 691.957031 574.300781 693.519531 C 571.464844 695.179688 570.703125 698.71875 572.203125 701.539062 C 575.320312 707.402344 581.894531 709.164062 587.980469 707.28125 C 591.03125 706.34375 592.941406 703.226562 592.070312 700.078125 C 591.25 697.070312 587.925781 695.039062 584.871094 695.984375 "/>
<path style=" stroke:none;fill-rule:nonzero;fill:rgb(22.349548%,20.779419%,21.179199%);fill-opacity:1;" d="M 548.25 676.117188 C 543.308594 674.757812 540.273438 670.992188 537.988281 666.558594 C 534.523438 659.832031 524.410156 665.765625 527.867188 672.472656 C 531.519531 679.554688 537.324219 685.269531 545.132812 687.421875 C 552.425781 689.425781 555.515625 678.121094 548.25 676.117188 "/>
<path style=" stroke:none;fill-rule:nonzero;fill:rgb(22.349548%,20.779419%,21.179199%);fill-opacity:1;" d="M 119.199219 172.4375 C 130.949219 147.765625 150.652344 124.457031 175.191406 111.867188 C 181.914062 108.417969 175.988281 98.300781 169.273438 101.738281 C 143.140625 115.15625 121.613281 140.203125 109.085938 166.527344 C 105.855469 173.3125 115.949219 179.257812 119.199219 172.4375 "/>
<path style=" stroke:none;fill-rule:nonzero;fill:rgb(22.349548%,20.779419%,21.179199%);fill-opacity:1;" d="M 185.867188 102.6875 C 188.929688 101.160156 191.992188 99.632812 195.050781 98.105469 C 197.910156 96.679688 198.683594 92.699219 197.148438 90.085938 C 195.457031 87.199219 192 86.554688 189.136719 87.988281 C 186.074219 89.515625 183.019531 91.042969 179.949219 92.570312 C 177.09375 93.984375 176.324219 97.972656 177.851562 100.585938 C 179.546875 103.472656 183.011719 104.109375 185.867188 102.6875 "/>
<path style=" stroke:none;fill-rule:nonzero;fill:rgb(22.349548%,20.779419%,21.179199%);fill-opacity:1;" d="M 344.960938 57.410156 C 402.761719 44.398438 460.890625 57.671875 517.625 69.625 C 524.992188 71.179688 528.128906 59.882812 520.742188 58.328125 C 461.835938 45.917969 401.824219 32.605469 341.84375 46.113281 C 334.472656 47.769531 337.601562 59.070312 344.960938 57.410156 "/>
<path style=" stroke:none;fill-rule:nonzero;fill:rgb(22.349548%,20.779419%,21.179199%);fill-opacity:1;" d="M 536.425781 71.199219 C 538.605469 73.34375 540.964844 75.292969 543.71875 76.671875 C 546.574219 78.105469 550.039062 77.457031 551.734375 74.574219 C 553.269531 71.949219 552.484375 67.988281 549.628906 66.554688 C 548.992188 66.234375 548.382812 65.898438 547.773438 65.523438 C 547.398438 65.296875 545.695312 64.015625 547.191406 65.195312 C 546.3125 64.503906 545.507812 63.695312 544.710938 62.910156 C 542.4375 60.671875 538.699219 60.632812 536.425781 62.910156 C 534.1875 65.148438 534.148438 68.953125 536.425781 71.199219 "/>
<path style=" stroke:none;fill-rule:nonzero;fill:rgb(22.349548%,20.779419%,21.179199%);fill-opacity:1;" d="M 263.890625 742.457031 C 322.640625 751.695312 377.984375 777.523438 438.175781 777.824219 C 445.730469 777.859375 445.730469 766.140625 438.175781 766.105469 C 379.121094 765.804688 324.671875 740.230469 267.011719 731.160156 C 259.621094 730 256.449219 741.289062 263.890625 742.457031 "/>
<path style=" stroke:none;fill-rule:nonzero;fill:rgb(22.349548%,20.779419%,21.179199%);fill-opacity:1;" d="M 468.746094 773.242188 C 480.9375 771.808594 493.230469 771.621094 505.421875 770.179688 C 512.828125 769.296875 512.914062 757.558594 505.421875 758.449219 C 493.230469 759.902344 480.9375 760.089844 468.746094 761.523438 C 461.339844 762.394531 461.253906 774.121094 468.746094 773.242188 "/>
<path style=" stroke:none;fill-rule:nonzero;fill:rgb(22.349548%,20.779419%,21.179199%);fill-opacity:1;" d="M 552.699219 752.539062 C 553.242188 752.277344 553.777344 752.003906 554.320312 751.742188 C 554.691406 751.574219 555.058594 751.40625 555.433594 751.238281 C 554.984375 751.441406 555.097656 751.40625 555.769531 751.144531 C 557.492188 750.515625 558.824219 750.320312 560.441406 750.289062 C 567.988281 750.140625 568 738.421875 560.441406 738.5625 C 555.460938 738.664062 551.199219 740.238281 546.789062 742.421875 C 543.925781 743.835938 543.15625 747.828125 544.683594 750.441406 C 546.378906 753.335938 549.832031 753.953125 552.699219 752.539062 "/>
</g>
</svg>
