<?xml version="1.0" encoding="UTF-8"?>
<svg xmlns="http://www.w3.org/2000/svg" xmlns:xlink="http://www.w3.org/1999/xlink" width="810pt" height="809.999993pt" viewBox="0 0 810 809.999993" version="1.2">
<defs>
<clipPath id="clip1">
  <path d="M 81.507812 0.136719 L 728.523438 0.136719 L 728.523438 810 L 81.507812 810 Z M 81.507812 0.136719 "/>
</clipPath>
</defs>
<g id="surface1">
<g clip-path="url(#clip1)" clip-rule="nonzero">
<path style=" stroke:none;fill-rule:evenodd;fill:rgb(13.729858%,12.159729%,12.548828%);fill-opacity:1;" d="M 133.503906 561.296875 C 139.433594 564.296875 139.335938 585.054688 141.238281 595.375 C 150.921875 647.9375 167.328125 706.015625 176.835938 756.488281 C 176.554688 757.808594 177.429688 757.949219 178.382812 758.039062 C 177.039062 762.613281 176.0625 754.445312 172.1875 756.488281 C 152.226562 697.757812 137.347656 618.550781 133.503906 561.296875 Z M 667.421875 237.515625 C 668.800781 238.203125 670.191406 238.871094 670.519531 240.617188 C 716.160156 309.378906 711.769531 450.644531 707.660156 550.453125 C 706.125 587.875 706.003906 626.550781 699.921875 658.890625 C 695.242188 658.195312 695.941406 644.730469 695.28125 637.199219 C 689.960938 576.863281 683.609375 512.824219 684.445312 451.304688 C 685.433594 378.800781 678.34375 305.664062 667.421875 242.167969 C 667.421875 240.617188 667.421875 239.066406 667.421875 237.515625 Z M 662.78125 183.296875 C 670.070312 190.085938 668.574219 197.800781 673.613281 208.082031 C 665.160156 201.34375 665.265625 194.1875 662.78125 183.296875 Z M 283.617188 147.667969 C 283.886719 152.167969 278.179688 158.605469 282.070312 161.609375 C 267.117188 167.085938 258.269531 184.132812 240.285156 181.746094 C 235.085938 184.5 240.84375 190.203125 237.191406 195.691406 C 192.554688 230.671875 164.007812 286.023438 148.976562 345.957031 C 159.566406 276.726562 168.152344 178.597656 237.191406 153.863281 C 241.671875 156.613281 251.0625 154.433594 254.214844 158.507812 C 244.101562 143.027344 219.839844 153.652344 209.332031 161.609375 C 183.484375 181.179688 165.984375 219.246094 156.71875 259.207031 C 143.597656 315.75 148.855469 379.566406 133.503906 431.160156 C 132.496094 434.542969 129.351562 439.765625 131.953125 434.261719 C 134.714844 359.433594 146.191406 264.292969 172.1875 198.785156 C 180.15625 178.722656 192.164062 153.761719 204.6875 144.570312 C 221.511719 132.214844 259.445312 140.519531 283.617188 147.667969 Z M 213.972656 243.710938 C 223.511719 275.488281 219.875 311.019531 224.808594 347.507812 C 233.375 319.382812 225.855469 265.554688 221.714844 235.964844 C 227.449219 229.585938 234.601562 217.183594 241.832031 217.375 C 240.046875 255.945312 235.371094 293.960938 244.925781 335.117188 C 246.324219 308.382812 246.367188 269.042969 248.027344 232.871094 C 248.320312 226.386719 245.847656 216.386719 248.027344 209.632812 C 251.988281 197.328125 271.070312 192.15625 282.070312 184.847656 C 287.996094 226.167969 273.460938 287.535156 289.808594 316.523438 C 295.042969 310.417969 288.964844 299.796875 288.261719 291.738281 C 284.558594 249.332031 294.425781 203.894531 289.808594 177.101562 C 301.519531 169.71875 312.859375 161.957031 330.042969 160.058594 C 336.890625 200.417969 329.640625 290.324219 340.878906 335.117188 C 342.355469 283.125 343.015625 223.871094 336.234375 160.058594 C 343.125 152.078125 338.441406 150.8125 340.878906 138.367188 C 420.058594 98.644531 505.039062 153.488281 548.257812 204.984375 C 572.347656 233.683594 599.859375 280.859375 603.972656 313.425781 C 607.800781 343.824219 601.726562 372.671875 596.234375 401.730469 C 584.128906 465.804688 571.773438 509.273438 529.683594 541.152344 C 499.136719 564.296875 452.972656 580.738281 416.710938 587.632812 C 365.191406 597.421875 309.460938 587.605469 268.140625 561.296875 C 260.609375 556.5 254.449219 546.65625 246.476562 541.152344 C 236.085938 533.984375 223.867188 530.617188 213.972656 522.5625 C 183.417969 497.683594 162.105469 441.203125 156.71875 392.4375 C 155.8125 384.285156 155.851562 375.808594 156.71875 367.648438 C 161.9375 318.214844 183.390625 278.339844 213.972656 243.710938 Z M 139.691406 756.488281 C 124.746094 679.742188 117.632812 595.886719 110.285156 510.167969 C 104.984375 448.28125 96.792969 386.894531 101 335.117188 C 103.285156 306.953125 110.121094 281.476562 116.480469 260.757812 C 118.710938 253.460938 118.871094 245.46875 121.121094 239.066406 C 123.445312 232.4375 130.1875 227.019531 133.503906 218.925781 C 141.199219 200.15625 146.46875 179.191406 156.71875 164.707031 C 178.386719 134.070312 246.839844 113.960938 289.808594 130.621094 C 298.226562 133.886719 311.980469 137.492188 311.472656 150.761719 C 298.589844 157.5625 289.292969 143.695312 278.972656 139.917969 C 259.085938 132.648438 223.792969 128.285156 204.6875 138.367188 C 173.125 155.035156 154.847656 221.359375 145.882812 262.304688 C 135.476562 309.8125 129.875 370.703125 125.761719 418.769531 C 114.871094 546.171875 139.886719 656.164062 161.355469 744.101562 C 161.074219 745.414062 161.957031 745.554688 162.90625 745.644531 C 156.042969 745.035156 147.003906 752.699219 139.691406 756.488281 Z M 619.445312 110.484375 C 623.332031 108.390625 628.359375 115.519531 631.828125 119.777344 C 643.375 133.972656 654.535156 155.511719 661.234375 174 C 656.917969 172.035156 653.582031 170.183594 648.851562 172.453125 C 641.144531 149.703125 631.335938 129.054688 619.445312 110.484375 Z M 401.234375 107.390625 C 441.933594 83.242188 498.015625 89.539062 529.683594 121.328125 C 568.597656 160.386719 595.328125 227.066406 614.804688 277.796875 C 594.679688 257.664062 580.179688 231.890625 563.730469 208.082031 C 521.0625 149.65625 444.417969 100.421875 361 119.777344 C 358.988281 114.082031 366.558594 110.578125 370.28125 107.390625 C 409.753906 73.566406 501.925781 18.066406 568.375 59.363281 C 578.359375 65.566406 590.328125 77.394531 597.78125 87.25 C 660.941406 170.789062 680.09375 321.667969 678.257812 463.695312 C 655.738281 344.011719 633.402344 192.570312 568.375 105.839844 C 554.679688 87.574219 533.679688 70.339844 508.019531 70.210938 C 520.964844 80.257812 539.257812 83.339844 551.351562 94.992188 C 582.3125 124.824219 608.914062 189.523438 624.089844 237.515625 C 641.933594 293.949219 653.207031 354.105469 659.6875 401.730469 C 627.796875 288.027344 595.78125 174.457031 520.398438 104.289062 C 492.144531 84.1875 423.386719 75.507812 401.234375 107.390625 Z M 334.6875 125.980469 C 342.652344 102.5625 357.972656 85.863281 371.832031 67.109375 C 388.324219 44.78125 420.195312 13.390625 460.042969 14.4375 C 491.792969 15.269531 533.6875 34.453125 559.085938 46.96875 C 558.789062 48.726562 557.550781 47.832031 557.546875 46.96875 C 501.996094 26.910156 448.304688 48.890625 405.878906 73.304688 C 393.121094 80.640625 379.515625 89.046875 368.738281 98.09375 C 357.195312 107.777344 349.109375 122.195312 334.6875 125.980469 Z M 207.785156 810.707031 C 203.015625 807.804688 211.699219 805.480469 212.429688 802.964844 C 193.703125 767.140625 187.320312 727.34375 176.835938 679.035156 C 161.394531 607.875 140.988281 523.527344 152.074219 443.558594 C 158.972656 492.9375 187.75 520.414062 213.972656 550.453125 C 264.972656 585.8125 329.988281 607.738281 405.878906 603.121094 C 481.84375 598.5 540.1875 553.589844 580.753906 510.167969 C 607.429688 468.625 617.671875 399.691406 622.542969 345.957031 C 649.667969 421.230469 673.300781 519.246094 676.707031 617.058594 C 678.03125 654.996094 674.742188 693.207031 676.707031 728.605469 C 677.308594 739.394531 671.199219 768.667969 684.445312 770.433594 C 697.804688 772.210938 693.40625 707.355469 699.921875 702.269531 C 705.972656 716.449219 695.039062 732.527344 706.113281 739.449219 C 713.351562 731.480469 707.832031 718.792969 718.496094 713.113281 C 716.925781 606.628906 731.992188 498.160156 727.78125 401.730469 C 725.238281 343.59375 705.6875 291.089844 699.921875 231.320312 C 689.667969 196.378906 675.894531 159.640625 658.136719 125.980469 C 641.378906 94.210938 622.710938 59.550781 596.234375 39.222656 C 573.246094 21.574219 533.675781 11.316406 498.734375 6.691406 C 477.34375 3.859375 462.554688 -1.257812 443.019531 0.492188 C 420.457031 2.515625 397.375 14.851562 382.664062 26.828125 C 371.328125 36.058594 365.199219 50.941406 356.355469 62.457031 C 345.476562 76.628906 341.945312 78.375 334.6875 91.894531 C 328.136719 104.09375 320.921875 115.015625 314.570312 127.527344 C 299.863281 119.625 283.9375 112.105469 268.140625 110.484375 C 219.320312 105.476562 154.929688 133.210938 139.691406 158.507812 C 131.742188 171.703125 117.160156 196.121094 110.285156 212.730469 C 104.042969 227.808594 102.546875 247.140625 97.90625 262.304688 C 96.066406 268.308594 91.5 272.667969 90.167969 277.796875 C 84.125 301.074219 83.480469 333.113281 82.429688 358.351562 C 80.554688 403.421875 81.265625 451.058594 87.074219 497.777344 C 92.773438 543.609375 99.894531 589.335938 105.644531 631.007812 C 111.535156 673.710938 112.554688 709.617188 118.023438 740.992188 C 119.609375 750.089844 122.949219 781.800781 138.144531 779.730469 C 148.003906 778.382812 145.523438 764.800781 156.71875 762.683594 C 177.039062 774.359375 186.320312 805.339844 207.785156 810.707031 Z M 526.589844 429.617188 C 518.824219 450.316406 483.320312 498.839844 461.59375 511.71875 C 404.542969 545.542969 338.070312 517.789062 300.640625 480.738281 C 295.445312 475.59375 287.914062 461.746094 277.429688 468.34375 C 304.527344 499.703125 338.914062 528.5625 387.304688 534.957031 C 470.007812 545.886719 505.722656 480.328125 535.878906 431.160156 C 532.71875 430.707031 532.84375 426.972656 529.683594 426.515625 C 529.359375 428.253906 527.972656 428.925781 526.589844 429.617188 Z M 286.714844 370.746094 C 291.507812 369.871094 298.484375 371.167969 299.09375 366.097656 C 295.503906 355.304688 276.378906 358.222656 286.714844 370.746094 Z M 460.042969 366.097656 C 465.691406 367.105469 468.289062 365.054688 470.878906 363 C 469.738281 357.429688 467.816406 352.644531 460.042969 353.707031 C 456.75 359.203125 457.695312 360.867188 460.042969 366.097656 Z M 515.753906 186.390625 C 509.171875 204.707031 512.734375 242.539062 515.753906 268.5 C 518.238281 289.78125 521.050781 310.507812 526.589844 319.625 C 530.367188 277.363281 513.289062 229.171875 520.398438 186.390625 C 518.851562 186.390625 517.308594 186.390625 515.753906 186.390625 Z M 477.066406 311.878906 C 487.625 301.9375 480.613281 281.90625 480.164062 262.304688 C 479.304688 224.839844 483.582031 180.164062 480.164062 153.863281 C 479.828125 152.652344 478.867188 152.058594 477.066406 152.3125 C 470.257812 210.335938 472.726562 262.402344 477.066406 311.878906 Z M 419.808594 150.761719 C 416.566406 178.984375 422.300781 211.386719 421.351562 239.066406 C 420.933594 251.421875 421.351562 265.105469 421.351562 277.796875 C 421.351562 289.140625 417.449219 303.609375 425.996094 311.878906 C 433.566406 262.042969 423.796875 195.742188 427.542969 147.667969 C 425.5625 147.578125 425.398438 145.679688 422.90625 146.113281 C 422.757812 148.558594 418.960938 147.328125 419.808594 150.761719 Z M 387.304688 139.917969 C 390.941406 177.6875 387.808594 233.726562 390.402344 279.347656 C 391.308594 295.257812 395.480469 303.6875 391.949219 313.425781 C 382.902344 308.277344 384.960938 295.214844 384.210938 285.539062 C 381.628906 252.253906 384.15625 184.808594 379.570312 144.570312 C 380.101562 142.53125 382.296875 142.128906 382.664062 139.917969 C 384.214844 139.917969 385.753906 139.917969 387.304688 139.917969 "/>
</g>
</g>
</svg>
