<?xml version="1.0" encoding="UTF-8"?>
<svg xmlns="http://www.w3.org/2000/svg" xmlns:xlink="http://www.w3.org/1999/xlink" viewBox="0 0 810 809.999993" version="1.2">
<g id="surface1">
<path style=" stroke:none;fill-rule:nonzero;fill:rgb(13.729858%,12.159729%,12.548828%);fill-opacity:1;" d="M 286.644531 213.871094 C 235.324219 239.863281 188.964844 275.003906 150.316406 317.617188 C 112.445312 359.371094 82.660156 409.84375 72.144531 465.695312 C 61.699219 521.160156 74.957031 577.757812 105.988281 624.460938 C 132.4375 664.253906 170.734375 694.5 213.277344 715.507812 C 299.613281 758.15625 404.300781 763.632812 497.488281 744.109375 C 578.753906 727.074219 661.570312 689.707031 714.761719 623.933594 C 755.515625 573.539062 772.394531 508.476562 763.484375 444.519531 C 754.460938 379.765625 720.195312 319.84375 673.742188 274.589844 C 620.742188 222.957031 552.015625 190.074219 479.160156 178.402344 C 448.125 173.425781 416.539062 172.652344 385.234375 175.0625 C 377 175.695312 368.796875 176.617188 360.625 177.734375 C 351.566406 178.964844 342.789062 181.75 333.914062 183.941406 C 312.957031 189.101562 290.816406 194.039062 272.136719 205.308594 C 263.5 210.519531 270.179688 224.894531 278.929688 219.609375 C 302.132812 205.605469 329.878906 201.996094 355.554688 194.714844 C 365.746094 191.832031 377.457031 191.597656 387.992188 190.761719 C 398.210938 189.945312 408.449219 189.601562 418.691406 189.617188 C 457.667969 189.699219 496.546875 195.753906 533.546875 208.042969 C 599.433594 229.9375 658.058594 271.867188 698.605469 328.34375 C 734.550781 378.410156 754.617188 440.492188 748.34375 501.847656 C 741.597656 567.808594 702.867188 624.1875 649.015625 662.898438 C 613.96875 688.101562 573.390625 705.609375 532.183594 717.933594 C 486.558594 731.574219 439.078125 738.484375 391.445312 738.230469 C 297.828125 737.71875 196.664062 709.882812 133.886719 636.316406 C 98.765625 595.171875 80.050781 542.40625 84.339844 488.214844 C 88.777344 432.101562 116.929688 380.6875 152.335938 338.089844 C 190.566406 292.109375 239.671875 254.003906 292.617188 226.457031 C 300.550781 222.335938 294.683594 209.800781 286.644531 213.871094 "/>
<path style=" stroke:none;fill-rule:nonzero;fill:rgb(13.729858%,12.159729%,12.548828%);fill-opacity:1;" d="M 235.191406 750.640625 C 235.972656 750.640625 236.097656 749.429688 235.304688 749.429688 C 234.53125 749.429688 234.410156 750.640625 235.191406 750.640625 "/>
<path style=" stroke:none;fill-rule:nonzero;fill:rgb(13.729858%,12.159729%,12.548828%);fill-opacity:1;" d="M 398.511719 473.921875 L 398.089844 474.152344 C 394.925781 475.828125 394.195312 478.90625 395.25 482.132812 C 402.21875 503.5 426.019531 518.496094 448.136719 517.792969 C 475.019531 516.933594 490.574219 493.917969 489.746094 468.316406 C 489.617188 464.15625 487.390625 460.414062 482.859375 459.992188 C 479 459.621094 474.546875 462.707031 474.527344 466.882812 C 474.492188 477.226562 473.335938 487.292969 466.515625 495.511719 C 462.027344 500.925781 454.398438 503.597656 447.644531 503.816406 C 429.421875 504.40625 413.984375 492.785156 406.066406 476.988281 C 404.878906 474.609375 402.28125 473.175781 399.617188 473.660156 C 399.238281 473.703125 398.871094 473.789062 398.511719 473.921875 "/>
<path style=" stroke:none;fill-rule:nonzero;fill:rgb(13.729858%,12.159729%,12.548828%);fill-opacity:1;" d="M 533.871094 383.492188 C 539.8125 402.742188 544.90625 422.28125 551.453125 441.339844 C 554.738281 450.902344 569.273438 444.117188 565.75 434.542969 C 559.070312 416.402344 555.046875 396.789062 546.050781 379.605469 C 542.832031 373.460938 531.640625 376.265625 533.871094 383.492188 "/>
<path style=" stroke:none;fill-rule:nonzero;fill:rgb(13.729858%,12.159729%,12.548828%);fill-opacity:1;" d="M 311.113281 422.695312 C 311.183594 423.953125 311.21875 423.660156 311.226562 421.816406 C 310.78125 422.78125 310.472656 425.042969 310.761719 426.050781 C 311.246094 427.722656 311.726562 429.402344 312.203125 431.070312 C 313.433594 435.441406 315.074219 439.683594 316.542969 443.976562 C 319.171875 451.640625 321.753906 459.402344 323.363281 467.355469 C 325.445312 477.640625 341.785156 474.667969 339.34375 464.535156 C 337.226562 455.734375 334.011719 447.164062 330.8125 438.71875 C 329.292969 434.683594 327.867188 430.542969 325.980469 426.675781 C 325.207031 425.09375 324.425781 423.511719 323.644531 421.9375 C 322.976562 420.574219 321.980469 419.6875 320.777344 418.835938 C 316.640625 415.898438 322.050781 420.601562 320.277344 418.386719 C 316.738281 413.984375 310.746094 417.84375 311.113281 422.695312 "/>
<path style=" stroke:none;fill-rule:nonzero;fill:rgb(13.729858%,12.159729%,12.548828%);fill-opacity:1;" d="M 752.519531 441.574219 C 758.203125 435.921875 763.617188 430.140625 770.8125 426.386719 C 778.640625 422.289062 787.25 422.050781 795.773438 423.671875 C 794.09375 422.492188 792.417969 421.324219 790.738281 420.144531 C 796.257812 434.339844 798.761719 450.566406 794.210938 465.378906 C 792.179688 471.996094 788.5 477.878906 783.410156 482.554688 C 780.457031 485.269531 777.09375 487.285156 773.507812 489.023438 C 769.238281 491.082031 764.703125 491.449219 761.648438 495.324219 C 759.308594 498.289062 761.058594 502.746094 764.363281 504.019531 C 771.039062 506.585938 780.019531 501.003906 785.582031 497.410156 C 791.511719 493.566406 796.492188 488.574219 800.378906 482.675781 C 808.265625 470.679688 810.058594 455.980469 808.890625 441.972656 C 808.3125 434.972656 806.625 428.074219 804.402344 421.429688 C 803.25 417.984375 802.335938 413.070312 798.515625 411.644531 C 794.402344 410.117188 789.164062 410.230469 784.859375 410.414062 C 768.527344 411.117188 753.433594 420.769531 744.488281 434.253906 C 741.167969 439.273438 747.96875 446.101562 752.519531 441.574219 "/>
<path style=" stroke:none;fill-rule:nonzero;fill:rgb(13.729858%,12.159729%,12.548828%);fill-opacity:1;" d="M 54.097656 483.230469 C 41.402344 476.085938 23.953125 474.40625 12.257812 484.539062 C 2.460938 493.023438 0.0546875 506.886719 1.414062 519.171875 C 2.890625 532.472656 9.839844 545.128906 20.3125 553.410156 C 33.125 563.535156 49.851562 563.378906 64.660156 558.429688 C 69.71875 556.742188 75.210938 554.542969 78.734375 550.449219 C 82.601562 545.964844 77.414062 539.863281 72.417969 540.542969 C 68.042969 541.140625 63.867188 543.953125 59.710938 545.472656 C 56.503906 546.640625 53.085938 547.300781 49.703125 547.714844 C 43.859375 548.433594 38.535156 547.398438 33.195312 544.902344 C 24.839844 540.992188 18.734375 531.046875 16.589844 522.363281 C 15.191406 516.675781 15.070312 513.558594 15.746094 508.152344 C 16.273438 504.019531 17.574219 500.519531 20.410156 496.933594 L 23.625 494.175781 C 26.550781 492.398438 26.683594 492.476562 29.898438 491.933594 C 34.988281 491.070312 42.128906 492.996094 48.191406 494.527344 C 54.695312 496.171875 60.960938 487.097656 54.097656 483.230469 "/>
<path style=" stroke:none;fill-rule:nonzero;fill:rgb(13.729858%,12.159729%,12.548828%);fill-opacity:1;" d="M 218.621094 399.277344 C 219.410156 399.320312 220.183594 399.285156 220.976562 399.234375 C 220.15625 398.933594 219.332031 398.644531 218.515625 398.347656 L 218.929688 398.882812 C 220.597656 401.070312 224.3125 401.957031 226.746094 400.5625 C 237.0625 394.652344 245.796875 386.101562 255.234375 378.910156 C 260.652344 374.78125 266.25 370.921875 272.191406 367.5625 C 278.394531 364.039062 284.84375 361.640625 290.789062 357.648438 C 294.929688 354.871094 292.152344 348.242188 287.714844 347.863281 C 273.339844 346.644531 259.386719 357.875 248.484375 366.078125 C 238.566406 373.53125 229.347656 381.863281 219.683594 389.636719 C 217.363281 391.507812 216.828125 394.8125 218.003906 397.449219 L 218.144531 397.773438 C 218.367188 396.730469 218.59375 395.683594 218.8125 394.636719 C 218.402344 395.058594 217.988281 395.453125 217.539062 395.824219 C 216.257812 396.886719 216.914062 399.179688 218.621094 399.277344 "/>
<path style=" stroke:none;fill-rule:nonzero;fill:rgb(13.729858%,12.159729%,12.548828%);fill-opacity:1;" d="M 533.960938 321.566406 C 532.757812 321.566406 531.550781 321.566406 530.347656 321.566406 C 529.839844 321.566406 529.742188 322.328125 530.269531 322.375 C 531.464844 322.460938 532.660156 322.550781 533.855469 322.644531 C 534.558594 322.699219 534.644531 321.566406 533.960938 321.566406 "/>
<path style=" stroke:none;fill-rule:nonzero;fill:rgb(13.729858%,12.159729%,12.548828%);fill-opacity:1;" d="M 538.582031 328.402344 C 552.824219 327.382812 567.171875 326.328125 581.363281 328.5625 C 587.855469 329.589844 594.214844 331.8125 599.785156 335.296875 C 606.191406 339.292969 609.804688 345.007812 614.238281 350.871094 C 618.828125 356.9375 628.183594 350.441406 625.160156 343.8125 C 618.386719 328.921875 602.34375 319.648438 586.941406 316.433594 C 570.351562 312.976562 553.132812 314.65625 536.394531 316.011719 C 528.285156 316.667969 530.59375 328.976562 538.582031 328.402344 "/>
<path style=" stroke:none;fill-rule:nonzero;fill:rgb(13.729858%,12.159729%,12.548828%);fill-opacity:1;" d="M 304.988281 226.441406 C 359.007812 223.988281 412.988281 220.671875 467.007812 218.132812 C 474.273438 217.789062 473.386719 206.285156 466.507812 205.632812 C 417.144531 200.914062 367.425781 195.753906 317.929688 201.738281 C 312.21875 202.425781 312.5625 211.707031 318.335938 211.875 C 388.90625 213.929688 459.441406 216.648438 529.996094 219.222656 C 536.5 219.460938 537.472656 209.394531 530.945312 209.140625 C 485.273438 207.347656 438.558594 198.988281 393.203125 208.316406 C 388.433594 209.300781 387.992188 215.664062 392.367188 217.527344 C 460.515625 246.507812 536.535156 237.382812 607.886719 251.015625 C 614.820312 252.34375 615.523438 241.75 608.90625 240.257812 C 553.246094 227.707031 498.304688 212.277344 442.785156 199.171875 C 442.496094 202.40625 442.203125 205.632812 441.914062 208.867188 C 465.917969 205.335938 489.359375 207.339844 512.636719 214 C 534.792969 220.355469 556.117188 229.234375 578.488281 234.921875 C 583.9375 236.300781 587.503906 229.921875 583.039062 226.238281 C 561.601562 208.550781 537.464844 194.972656 510.648438 187.394531 C 485.441406 180.265625 459.335938 179.078125 433.347656 181.292969 C 406.648438 183.5625 380.382812 189.792969 354.691406 197.222656 C 328.773438 204.710938 303.644531 214.6875 277.777344 222.246094 C 279.359375 224.734375 280.949219 227.230469 282.53125 229.71875 C 298.304688 206.046875 316.148438 183.660156 338.851562 166.28125 C 357.375 152.101562 378.769531 142.574219 401.523438 137.722656 C 448.988281 127.605469 498.101562 140.023438 542.296875 157.429688 C 563.253906 165.683594 583.628906 175.429688 603.546875 185.917969 C 610.390625 189.523438 616.882812 180.933594 610.558594 175.886719 C 577.1875 149.324219 531.753906 136.816406 489.933594 133.046875 C 448.144531 129.285156 399.320312 134.8125 367.898438 165.488281 C 364.4375 168.875 361.265625 172.582031 358.382812 176.46875 C 355.703125 180.082031 359.140625 186.355469 363.832031 185.03125 C 394.160156 176.433594 423.894531 165.242188 454.953125 159.441406 C 486.136719 153.625 518.511719 156.058594 548.160156 167.625 C 607.027344 190.601562 653.742188 236.160156 704.457031 272.367188 C 707.980469 274.882812 711.546875 277.34375 715.125 279.769531 C 717.058594 276.09375 718.980469 272.410156 720.914062 268.71875 C 648.761719 240.265625 579.832031 180.828125 497.339844 199.675781 C 489.457031 201.46875 491.609375 213.871094 499.527344 212.058594 C 578.53125 194.011719 647.300781 253.425781 716.546875 280.515625 C 723.214844 283.136719 728.257812 273.476562 722.335938 269.46875 C 670.453125 234.4375 624.660156 190.199219 567.550781 163.285156 C 538.714844 149.695312 507.230469 143.425781 475.40625 145.617188 C 445.269531 147.691406 416.347656 157.972656 387.660156 166.703125 C 379.109375 169.304688 370.542969 171.828125 361.925781 174.210938 C 363.742188 177.066406 365.5625 179.914062 367.371094 182.769531 C 393.667969 147.832031 442.589844 141.589844 483.226562 144.386719 C 524.847656 147.242188 570.457031 159.425781 603.546875 185.917969 C 605.882812 182.578125 608.222656 179.238281 610.558594 175.886719 C 564.683594 151.574219 515.914062 129.917969 463.976562 123.191406 C 416.855469 117.082031 370.429688 127.351562 332.316406 156.277344 C 308.496094 174.359375 289.339844 198.320312 274.683594 224.226562 C 272.277344 228.46875 276.039062 233.023438 280.667969 231.300781 C 304.867188 222.28125 329.925781 214.757812 354.746094 207.664062 C 379.410156 200.613281 404.527344 194.925781 430.078125 192.351562 C 455.078125 189.820312 480.835938 190.882812 505.265625 197.011719 C 531.851562 203.671875 556.339844 216.859375 577.371094 234.332031 C 578.894531 231.441406 580.402344 228.539062 581.925781 225.648438 C 559.042969 219.8125 537.21875 210.730469 514.550781 204.199219 C 490.152344 197.167969 465.320312 195.269531 440.167969 198.9375 C 435.472656 199.621094 434.289062 207.445312 439.289062 208.632812 C 495.667969 222.019531 551.332031 238.324219 607.886719 251.015625 C 608.222656 247.429688 608.5625 243.84375 608.90625 240.257812 C 573.382812 233.507812 537.097656 232.335938 501.144531 229.429688 C 465.425781 226.527344 429 222.605469 395.691406 208.542969 C 395.417969 211.609375 395.136719 214.6875 394.863281 217.753906 C 439.585938 208.445312 485.011719 217.605469 529.996094 219.222656 C 530.3125 215.867188 530.628906 212.507812 530.945312 209.140625 C 460.390625 206.792969 389.839844 204.597656 319.300781 201.679688 C 319.441406 205.054688 319.574219 208.4375 319.714844 211.8125 C 368.144531 206.558594 417.191406 212.59375 465.3125 218.203125 C 465.714844 214.019531 466.113281 209.816406 466.507812 205.632812 C 411.945312 207.664062 357.363281 210.273438 302.941406 214.847656 C 295.28125 215.488281 297.609375 226.773438 304.988281 226.441406 "/>
<path style=" stroke:none;fill-rule:nonzero;fill:rgb(13.729858%,12.159729%,12.548828%);fill-opacity:1;" d="M 270.054688 219.679688 C 249.46875 258.539062 216.230469 291.152344 183.253906 319.550781 C 148.953125 349.09375 108.21875 378.613281 63.128906 388.175781 C 65.183594 392.542969 67.234375 396.914062 69.28125 401.28125 C 106.945312 376.773438 140.105469 345.324219 168.925781 310.972656 C 197.964844 276.347656 222.714844 237.445312 239.769531 195.507812 C 242.816406 188 231.753906 182.269531 227.292969 188.96875 C 206.40625 220.277344 187.972656 254.375 161.835938 281.753906 C 134.808594 310.078125 99.875 324.863281 61.558594 330.742188 C 62.410156 335.578125 63.261719 340.417969 64.113281 345.261719 C 107.34375 334.714844 142.917969 304.074219 169.726562 269.660156 C 181.832031 254.109375 190.039062 236.679688 198.367188 218.925781 C 205.476562 203.796875 213.261719 186.109375 227.519531 176.34375 C 223.988281 175.582031 220.457031 174.824219 216.925781 174.058594 C 229.777344 198.960938 225.175781 226.835938 220.851562 253.300781 C 219.464844 261.8125 232.210938 262.621094 233.933594 254.542969 C 241.832031 217.429688 250.136719 179.992188 266.101562 145.378906 C 282.09375 110.71875 307.441406 82.53125 339.28125 61.6875 C 345.820312 57.40625 338.667969 46.570312 331.882812 50.234375 C 259.140625 89.597656 244.242188 181.445312 256.277344 256.40625 C 257.515625 264.148438 270.554688 263.980469 270.34375 255.84375 C 268.949219 202.96875 289.621094 143.410156 333.921875 111.773438 C 330.980469 108.300781 328.035156 104.828125 325.082031 101.359375 C 307.679688 113.8125 294.875 131.804688 285.167969 150.652344 C 275.34375 169.734375 269.125 192.253906 272.382812 213.78125 C 273.703125 222.5 287.152344 220.109375 285.835938 211.410156 C 282.980469 192.589844 288.847656 173.628906 296.914062 156.796875 C 305.296875 139.304688 318 122.972656 333.921875 111.773438 C 341.128906 106.710938 332.253906 96.339844 325.082031 101.359375 C 277.691406 134.609375 254.636719 198.179688 256.199219 254.507812 C 260.882812 254.3125 265.574219 254.128906 270.265625 253.945312 C 259.167969 185.503906 270.722656 98.992188 337.789062 62.65625 C 335.320312 58.839844 332.859375 55.027344 330.390625 51.203125 C 296.863281 73.175781 271.109375 103.105469 253.914062 139.277344 C 236.878906 175.113281 228.863281 214.695312 220.851562 253.300781 C 225.21875 253.714844 229.566406 254.128906 233.933594 254.542969 C 238.484375 225.683594 242.898438 195.382812 229.269531 168.195312 C 227.144531 163.960938 222.328125 163.414062 218.683594 165.921875 C 204.238281 175.816406 195.917969 191.289062 188.351562 206.652344 C 180.109375 223.398438 173.152344 240.898438 161.976562 255.984375 C 137.222656 289.367188 102.914062 320.730469 61.558594 330.742188 C 52.382812 332.957031 54.652344 346.695312 64.113281 345.261719 C 104.582031 339.117188 141.519531 323.367188 170.261719 293.675781 C 197.789062 265.246094 217.101562 229.824219 238.925781 197.117188 C 234.761719 194.9375 230.605469 192.757812 226.449219 190.578125 C 210.054688 230.90625 186.234375 267.867188 158.601562 301.375 C 130.828125 335.058594 98.273438 365.550781 61.214844 388.78125 C 54.484375 393 56.8125 404.746094 65.738281 402.953125 C 87.652344 398.53125 108.34375 388.816406 127.585938 377.6875 C 150.308594 364.546875 171.5 348.769531 191.425781 331.71875 C 210.703125 315.226562 228.566406 297.128906 244.988281 277.800781 C 258.710938 261.636719 271.382812 244.363281 280.984375 225.410156 C 284.175781 219.117188 273.351562 213.457031 270.054688 219.679688 "/>
<path style=" stroke:none;fill-rule:nonzero;fill:rgb(13.729858%,12.159729%,12.548828%);fill-opacity:1;" d="M 370.859375 618.191406 C 378.382812 617.832031 386.269531 620.453125 393.644531 621.648438 C 402.367188 623.0625 411.382812 623.984375 420.195312 624.804688 C 437.425781 626.410156 455.113281 625.390625 472.121094 622.359375 C 488.859375 619.371094 505.238281 613.78125 520.351562 606.027344 C 527.765625 602.230469 534.828125 597.703125 541.59375 592.851562 C 548.605469 587.824219 557.015625 581.847656 561.863281 574.613281 C 566.882812 567.121094 557.71875 560.242188 550.953125 564.671875 C 544.484375 568.90625 539.019531 575.023438 532.738281 579.648438 C 526.183594 584.484375 519.128906 588.554688 511.84375 592.191406 C 497.328125 599.433594 481.75 603.953125 465.761719 606.46875 C 449.402344 609.042969 432.839844 608.867188 416.390625 607.292969 C 408.183594 606.511719 399.835938 605.753906 391.699219 604.445312 C 383.75 603.160156 376.121094 601.570312 368.023438 602.070312 C 363.558594 602.351562 360.675781 607.539062 361.386719 611.554688 C 362.230469 616.363281 366.40625 618.414062 370.859375 618.191406 "/>
<path style=" stroke:none;fill-rule:nonzero;fill:rgb(13.729858%,12.159729%,12.548828%);fill-opacity:1;" d="M 284.984375 377.785156 C 246.148438 392.0625 244.828125 444.90625 256.523438 477.535156 C 262.902344 495.316406 274.800781 512.007812 291.097656 521.898438 C 309.503906 533.070312 333.332031 534.574219 351.882812 522.917969 C 369.945312 511.570312 380.242188 490.992188 381.957031 470.089844 C 383.742188 448.265625 373.855469 429.671875 360.316406 413.351562 C 346.214844 396.324219 327.339844 381.347656 305.382812 376.582031 C 284.929688 372.132812 254.644531 385.238281 261.03125 410.300781 C 262.367188 415.546875 270.25 415.6875 270.792969 409.914062 C 271.953125 397.519531 281.820312 390.433594 293.539062 389.109375 C 303.898438 387.9375 314.636719 392.886719 323.203125 398.160156 C 341.621094 409.507812 358.578125 428.101562 366.308594 448.492188 C 373.890625 468.472656 365.457031 494.175781 349.90625 507.871094 C 334.1875 521.714844 311.507812 520.078125 294.894531 508.898438 C 274.578125 495.246094 263.941406 470.308594 261.621094 446.636719 C 259.140625 421.359375 268.710938 398.582031 287.847656 382.226562 C 290.261719 380.167969 287.722656 376.785156 284.984375 377.785156 "/>
<path style=" stroke:none;fill-rule:nonzero;fill:rgb(13.729858%,12.159729%,12.548828%);fill-opacity:1;" d="M 549.265625 344.59375 C 537.4375 341.175781 523.960938 342.800781 512.6875 347.539062 C 500.125 352.8125 491.089844 365.128906 485.636719 377.152344 C 473.710938 403.398438 486.945312 432.300781 506.1875 450.953125 C 523.433594 467.664062 545.179688 476.558594 569.261719 475.242188 C 591.738281 474.011719 611.261719 460.226562 618.527344 438.769531 C 628.351562 409.78125 612.140625 375.800781 591.527344 355.582031 C 580.472656 344.746094 566.714844 336.9375 550.875 337.449219 C 533.878906 337.992188 516.710938 346.703125 509.480469 362.613281 C 507.363281 367.273438 514.21875 372.328125 517.835938 368.46875 C 526.765625 358.964844 537.703125 351.171875 551.191406 350.730469 C 562.910156 350.351562 573.050781 356.398438 581.328125 364.242188 C 597.933594 379.949219 610.839844 405.105469 607.492188 428.433594 C 604.355469 450.242188 584.277344 462.257812 563.648438 462.257812 C 538.878906 462.257812 517.984375 447.964844 503.882812 428.3125 C 492.367188 412.25 490.089844 392.027344 500.34375 374.804688 C 505.414062 366.296875 512.371094 359.777344 521.421875 355.757812 C 530.058594 351.917969 539.609375 352.367188 548.710938 350.679688 C 551.664062 350.140625 552.394531 345.5 549.265625 344.59375 "/>
<path style=" stroke:none;fill-rule:nonzero;fill:rgb(13.729858%,12.159729%,12.548828%);fill-opacity:1;" d="M 372.652344 452.167969 C 390.761719 442.726562 408.246094 432.996094 428.042969 427.398438 C 438.609375 424.398438 449.671875 422.34375 460.671875 422.183594 C 465.59375 422.105469 470.523438 422.535156 475.363281 423.425781 C 479.679688 424.214844 484.007812 427.238281 488.429688 426.332031 C 491.890625 425.628906 494.457031 421.605469 492.601562 418.246094 C 487.972656 409.835938 471.683594 409.640625 463.265625 409.613281 C 451.140625 409.570312 439.101562 411.75 427.445312 414.976562 C 415.554688 418.265625 403.816406 422.84375 392.976562 428.742188 C 383.828125 433.707031 375.09375 439.527344 369.585938 448.546875 C 368.382812 450.523438 370.339844 453.371094 372.652344 452.167969 "/>
<path style=" stroke:none;fill-rule:nonzero;fill:rgb(13.729858%,12.159729%,12.548828%);fill-opacity:1;" d="M 613.5 416.691406 C 617.078125 417.683594 620.734375 416.402344 624.316406 415.910156 C 628.9375 415.265625 633.527344 414.644531 638.191406 414.328125 C 648.015625 413.675781 657.90625 414.457031 667.730469 414.667969 C 693.449219 415.230469 718.972656 415.960938 744.347656 420.59375 C 752.84375 422.140625 753.960938 408.886719 745.613281 407.304688 C 719.914062 402.433594 693.660156 401.914062 667.589844 401.96875 C 657.082031 401.992188 646.601562 401.6875 636.109375 402.496094 C 628.972656 403.039062 614.320312 404.515625 611.78125 412.929688 C 611.347656 414.351562 611.902344 416.25 613.5 416.691406 "/>
<path style=" stroke:none;fill-rule:nonzero;fill:rgb(13.729858%,12.159729%,12.548828%);fill-opacity:1;" d="M 256.03125 459.753906 C 249.125 460.308594 242.253906 462.398438 235.523438 463.980469 C 227.847656 465.78125 220.175781 467.644531 212.480469 469.429688 C 196.644531 473.097656 180.734375 476.460938 164.742188 479.441406 C 133.875 485.199219 102.261719 489.523438 70.800781 488.601562 C 62.550781 488.363281 61.433594 501.304688 69.585938 501.3125 C 101.640625 501.363281 133.367188 497.691406 164.867188 491.90625 C 180.875 488.972656 196.769531 485.4375 212.609375 481.65625 C 220.308594 479.828125 228.003906 477.957031 235.664062 475.953125 C 243.414062 473.929688 251.648438 472.277344 258.992188 469.007812 C 264.351562 466.617188 261.277344 459.324219 256.03125 459.753906 "/>
</g>
</svg>
