<?xml version="1.0" encoding="UTF-8"?>
<svg xmlns="http://www.w3.org/2000/svg" xmlns:xlink="http://www.w3.org/1999/xlink" width="810pt" height="809.999993pt" viewBox="0 0 810 809.999993" version="1.2">
<g id="surface1">
<path style=" stroke:none;fill-rule:nonzero;fill:rgb(13.729858%,12.159729%,12.548828%);fill-opacity:1;" d="M 288.898438 214.878906 C 301.496094 369.363281 321.035156 523.941406 302.414062 678.808594 C 302.011719 682.203125 311.851562 688.984375 311.863281 688.898438 C 330.492188 534.019531 310.945312 379.445312 298.34375 224.96875 C 298.035156 221.164062 288.949219 215.511719 288.898438 214.878906 "/>
<path style=" stroke:none;fill-rule:nonzero;fill:rgb(13.729858%,12.159729%,12.548828%);fill-opacity:1;" d="M 303.542969 688.316406 C 350.554688 720.542969 389.621094 763.039062 426.941406 805.6875 C 430.496094 809.757812 436.800781 805.886719 439.113281 802.320312 C 462.292969 766.5625 484.949219 728.589844 519.496094 702.484375 C 527.121094 696.722656 517.792969 692.515625 511.90625 696.953125 C 475.535156 724.433594 451.585938 764.269531 427.191406 801.925781 C 431.242188 800.796875 435.304688 799.679688 439.363281 798.558594 C 401.511719 755.300781 362.023438 712.070312 314.335938 679.390625 C 309.574219 676.121094 298.164062 684.628906 303.542969 688.316406 "/>
<path style=" stroke:none;fill-rule:nonzero;fill:rgb(13.729858%,12.159729%,12.548828%);fill-opacity:1;" d="M 524.703125 703.023438 C 501.164062 535.679688 556.851562 367.679688 529.390625 200.53125 C 528.789062 196.898438 517.75 188.800781 518.589844 193.90625 C 546.042969 360.984375 490.355469 529.027344 513.902344 696.394531 C 514.417969 700.046875 525.433594 708.203125 524.703125 703.023438 "/>
<path style=" stroke:none;fill-rule:nonzero;fill:rgb(13.729858%,12.159729%,12.548828%);fill-opacity:1;" d="M 285.058594 221.839844 C 366.484375 219.726562 448.949219 216.015625 529.382812 202.386719 C 538.792969 200.796875 532.660156 192.496094 525.296875 193.742188 C 446.128906 207.160156 364.917969 210.671875 284.769531 212.75 C 275.980469 212.980469 276.289062 222.070312 285.058594 221.839844 "/>
<path style=" stroke:none;fill-rule:nonzero;fill:rgb(13.729858%,12.159729%,12.548828%);fill-opacity:1;" d="M 292.519531 212.167969 C 288.03125 211.09375 283.601562 210.578125 279.011719 210.238281 C 271.902344 209.722656 271.636719 200.019531 278.660156 199.257812 C 283.671875 198.710938 290.5 193.214844 283.6875 189.347656 C 279.054688 186.714844 272.878906 183.335938 271.027344 177.90625 C 268.980469 171.863281 282.601562 169.324219 285.90625 168.527344 C 289.042969 167.773438 295.21875 162.722656 290.351562 159.625 C 286.402344 157.121094 276.964844 151.582031 283.929688 147.808594 C 294.378906 142.140625 307.699219 140.851562 319.261719 139.226562 C 348.050781 135.179688 377.242188 134.34375 406.257812 133.035156 C 429.8125 131.972656 453.214844 127.304688 476.667969 124.902344 C 489.925781 123.542969 503.453125 122.234375 516.789062 123.082031 C 518.972656 123.21875 523 124.929688 522.519531 123.558594 C 522.570312 123.714844 515.820312 128.578125 513.859375 129.792969 C 507.710938 133.617188 513.78125 140.25 519.394531 138.488281 C 520.6875 138.078125 524.371094 144.621094 525.15625 145.902344 C 529.0625 152.230469 525.019531 161.59375 522.554688 167.621094 C 520.515625 172.605469 526.1875 174.734375 530.21875 173.964844 L 530.597656 173.898438 C 528.40625 173.480469 526.210938 173.066406 524.011719 172.65625 C 526.691406 174.566406 528.574219 177.890625 530.441406 180.542969 C 533.835938 185.347656 528.753906 192.382812 522.964844 192.265625 C 514.90625 192.09375 511.898438 202.617188 521.304688 202.816406 C 531.726562 203.039062 548.550781 193.28125 546.007812 180.542969 C 544.578125 173.382812 536.140625 162.292969 528.078125 163.832031 C 530.632812 165.953125 533.191406 168.066406 535.746094 170.179688 C 539.917969 159.976562 543.402344 148.957031 537.175781 138.847656 C 532.851562 131.820312 525.953125 125.628906 517.25 128.355469 C 519.101562 131.257812 520.945312 134.15625 522.785156 137.054688 C 528.035156 133.796875 542.632812 124.425781 534.304688 116.976562 C 527.273438 110.675781 513.457031 112.144531 504.867188 112.402344 C 475.527344 113.273438 446.566406 118.636719 417.453125 121.875 C 389.554688 124.980469 361.21875 124.296875 333.242188 127.175781 C 318.132812 128.734375 302.746094 130.519531 288.175781 134.984375 C 280.355469 137.378906 268.332031 141.472656 267.035156 151.007812 C 266.035156 158.351562 274.042969 163.9375 279.328125 167.289062 C 280.808594 164.328125 282.285156 161.363281 283.765625 158.394531 C 274.496094 160.609375 260.792969 164.183594 257.425781 174.539062 C 253.691406 186.03125 267.054688 193.921875 275.292969 198.601562 C 276.964844 195.300781 278.644531 192 280.320312 188.699219 C 271.492188 189.664062 256.699219 196.777344 259.164062 208.160156 C 262.273438 222.523438 275.910156 219.675781 287.292969 222.414062 C 294.328125 224.097656 301.660156 214.367188 292.519531 212.167969 "/>
<path style=" stroke:none;fill-rule:nonzero;fill:rgb(13.729858%,12.159729%,12.548828%);fill-opacity:1;" d="M 281.761719 196.726562 C 315.726562 194.4375 349.5 189.621094 383.34375 186.117188 C 433.964844 180.882812 484.761719 177.796875 535.660156 177.644531 C 538.28125 177.632812 531.402344 166.535156 527.351562 166.550781 C 477.488281 166.707031 427.765625 169.714844 378.167969 174.710938 C 343.273438 178.214844 308.460938 183.277344 273.453125 185.636719 C 270.589844 185.824219 277.796875 196.992188 281.761719 196.726562 "/>
<path style=" stroke:none;fill-rule:nonzero;fill:rgb(13.729858%,12.159729%,12.548828%);fill-opacity:1;" d="M 288.578125 167.269531 C 329.910156 162.976562 371.453125 160.890625 412.851562 157.386719 C 449.402344 154.28125 489.285156 152.625 524.035156 139.804688 C 528.933594 138.003906 520.679688 126.519531 516.710938 127.988281 C 482.878906 140.464844 444.21875 142.167969 408.636719 145.296875 C 366.210938 149.015625 323.628906 151.050781 281.265625 155.445312 C 276.722656 155.914062 284.039062 167.742188 288.578125 167.269531 "/>
<path style=" stroke:none;fill-rule:nonzero;fill:rgb(13.729858%,12.159729%,12.548828%);fill-opacity:1;" d="M 318.449219 689.691406 C 341.199219 673.480469 372.953125 688.855469 388.320312 708.332031 C 389.167969 709.410156 399.703125 717.25 399.539062 713.128906 C 398.976562 699.003906 406.265625 688.964844 419.789062 684.972656 C 432.074219 681.347656 449.734375 683.921875 456.871094 695.53125 C 457.675781 696.847656 467.417969 705.578125 468.582031 702.046875 C 473.882812 686.050781 500.199219 672.609375 514.210938 686.851562 C 516.902344 689.589844 529.003906 694.011719 522.5625 687.460938 C 504.832031 669.4375 466.441406 664.757812 456.761719 693.96875 C 460.667969 696.140625 464.570312 698.3125 468.476562 700.484375 C 458.695312 684.578125 440.425781 675.300781 421.964844 674.632812 C 402.351562 673.917969 386.597656 686.136719 387.402344 706.398438 C 391.144531 708 394.890625 709.597656 398.625 711.195312 C 379.316406 686.726562 336.539062 660.296875 306.621094 681.613281 C 304.792969 682.910156 314.886719 692.230469 318.449219 689.691406 "/>
<path style=" stroke:none;fill-rule:nonzero;fill:rgb(13.729858%,12.159729%,12.548828%);fill-opacity:1;" d="M 394.625 700.335938 C 398.933594 673.539062 398.015625 645.640625 397.683594 618.601562 C 397.175781 577.917969 395.371094 537.246094 393.382812 496.605469 C 389.457031 416.117188 383.601562 335.707031 380.449219 255.1875 C 379.976562 243.242188 379.574219 231.289062 379.675781 219.34375 C 379.726562 213.035156 366.355469 208.046875 366.296875 215.007812 C 365.714844 283.277344 372.335938 351.9375 376.164062 420.058594 C 380.652344 500.007812 386.476562 580.585938 384.035156 660.707031 C 383.683594 672.480469 383.121094 684.347656 381.246094 696.003906 C 380.242188 702.234375 393.476562 707.460938 394.625 700.335938 "/>
<path style=" stroke:none;fill-rule:nonzero;fill:rgb(13.729858%,12.159729%,12.548828%);fill-opacity:1;" d="M 463.371094 690.070312 C 461.882812 672.574219 463.253906 654.582031 463.800781 637.082031 C 464.828125 604.324219 466.3125 571.582031 467.820312 538.84375 C 471.375 462.121094 475.449219 385.414062 479.3125 308.695312 C 481.027344 274.589844 483.714844 240.285156 483.742188 206.117188 C 483.75 198.558594 469.730469 195.898438 469.71875 204.0625 C 469.6875 254.625 465.359375 305.4375 462.78125 355.90625 C 458.867188 432.585938 454.832031 509.265625 451.621094 585.972656 C 450.214844 619.507812 446.488281 654.472656 449.351562 688.015625 C 449.992188 695.480469 464.058594 698.097656 463.371094 690.070312 "/>
<path style=" stroke:none;fill-rule:nonzero;fill:rgb(13.729858%,12.159729%,12.548828%);fill-opacity:1;" d="M 385.277344 749.871094 L 385.304688 751.300781 L 460.273438 750.066406 L 432.863281 799.6875 L 386.339844 748.894531 L 385.277344 749.871094 L 385.304688 751.300781 L 385.277344 749.871094 L 384.226562 750.828125 L 433.4375 804.558594 L 465.171875 747.125 L 382.074219 748.484375 L 384.226562 750.828125 L 385.277344 749.871094 "/>
<path style=" stroke:none;fill-rule:nonzero;fill:rgb(13.729858%,12.159729%,12.548828%);fill-opacity:1;" d="M 288.769531 143.398438 C 291.046875 112.417969 271.292969 62.433594 300.476562 39.714844 C 310.355469 32.027344 323.554688 28.640625 335.425781 25.570312 C 352.574219 21.132812 370.1875 18.40625 387.753906 16.292969 C 416.0625 12.890625 450.671875 8.195312 477.996094 18.867188 C 514.914062 33.285156 508.144531 85.828125 511.734375 117.445312 C 512.660156 125.628906 517.355469 119.386719 516.753906 114.105469 C 512.941406 80.457031 518.648438 32.429688 486.183594 10.828125 C 473.53125 2.417969 456.914062 1.382812 442.207031 0.9375 C 423.019531 0.355469 403.730469 1.867188 384.679688 4.058594 C 365.714844 6.238281 346.777344 9.46875 328.359375 14.523438 C 315.707031 17.996094 301.324219 22.59375 292.355469 32.761719 C 280.289062 46.425781 278.816406 64.65625 279.242188 82.140625 C 279.75 102.65625 283.441406 123.082031 285.402344 143.484375 C 285.746094 147.039062 288.511719 146.886719 288.769531 143.398438 "/>
</g>
</svg>
