<?xml version="1.0" encoding="UTF-8"?><svg xmlns="http://www.w3.org/2000/svg" xmlns:xlink="http://www.w3.org/1999/xlink" width="768pt" zoomAndPan="magnify" viewBox="0 0 768 767.999994" height="767.999994pt" preserveAspectRatio="xMidYMid meet" version="1.2"><defs><clipPath xml:id="clip1" id="clip1"><path d="M 375 255 L 582.710938 255 L 582.710938 768 L 375 768 Z M 375 255 "/></clipPath><clipPath xml:id="clip2" id="clip2"><path d="M 185.28125 263 L 197 263 L 197 275 L 185.28125 275 Z M 185.28125 263 "/></clipPath></defs><g xml:id="surface1" id="surface1"><path style=" stroke:none;fill-rule:nonzero;fill:rgb(7.058716%,6.269836%,5.879211%);fill-opacity:1;" d="M 505.003906 171.449219 L 493.792969 216.160156 L 450.59375 232.273438 L 489.664062 256.753906 L 491.644531 302.800781 L 527.003906 273.222656 L 571.421875 285.570312 L 554.203125 242.8125 L 579.671875 204.386719 L 533.679688 207.539062 L 505.003906 171.449219 "/><path style=" stroke:none;fill-rule:nonzero;fill:rgb(7.058716%,6.269836%,5.879211%);fill-opacity:1;" d="M 349.289062 51.214844 L 341.050781 84.058594 L 309.320312 95.894531 L 338.023438 113.871094 L 339.480469 147.707031 L 365.445312 125.96875 L 398.074219 135.042969 L 385.425781 103.632812 L 404.136719 75.40625 L 370.351562 77.726562 L 349.289062 51.214844 "/><path style=" stroke:none;fill-rule:nonzero;fill:rgb(7.058716%,6.269836%,5.879211%);fill-opacity:1;" d="M 275.984375 314.722656 L 266.867188 351.097656 L 231.730469 364.207031 L 263.511719 384.113281 L 265.121094 421.578125 L 293.878906 397.515625 L 330.015625 407.558594 L 316.007812 372.773438 L 336.726562 341.519531 L 299.316406 344.082031 L 275.984375 314.722656 "/><path style=" stroke:none;fill-rule:nonzero;fill:rgb(7.058716%,6.269836%,5.879211%);fill-opacity:1;" d="M 250.523438 207.796875 L 244.324219 232.515625 L 220.445312 241.425781 L 242.042969 254.960938 L 243.136719 280.417969 L 262.683594 264.0625 L 287.242188 270.886719 L 277.714844 247.246094 L 291.804688 226.011719 L 266.375 227.75 L 250.523438 207.796875 "/><path style=" stroke:none;fill-rule:nonzero;fill:rgb(7.058716%,6.269836%,5.879211%);fill-opacity:1;" d="M 461.699219 80.179688 L 457.089844 98.589844 L 439.296875 105.230469 L 455.382812 115.304688 L 456.203125 134.273438 L 470.761719 122.089844 L 489.058594 127.171875 L 481.960938 109.5625 L 492.457031 93.738281 L 473.515625 95.042969 L 461.699219 80.179688 "/><g clip-rule="nonzero" clip-path="url(#clip1)"><path style=" stroke:none;fill-rule:nonzero;fill:rgb(7.058716%,6.269836%,5.879211%);fill-opacity:1;" d="M 396.058594 259.804688 L 582.796875 758.023438 L 555.902344 767.832031 L 375.285156 261 L 381.539062 255.773438 L 396.058594 259.804688 "/></g><path style=" stroke:none;fill-rule:nonzero;fill:rgb(7.058716%,6.269836%,5.879211%);fill-opacity:1;" d="M 367.710938 191.792969 L 361.722656 215.671875 L 338.660156 224.28125 L 359.523438 237.351562 L 360.574219 261.945312 L 379.460938 246.144531 L 403.183594 252.742188 L 393.988281 229.90625 L 407.589844 209.386719 L 383.023438 211.070312 L 367.710938 191.792969 "/><path style=" stroke:none;fill-rule:nonzero;fill:rgb(7.058716%,6.269836%,5.879211%);fill-opacity:1;" d="M 246.449219 121.679688 L 241.832031 140.09375 L 224.046875 146.730469 L 240.132812 156.8125 L 240.949219 175.773438 L 255.511719 163.589844 L 273.796875 168.679688 L 266.710938 151.070312 L 277.195312 135.246094 L 258.253906 136.546875 L 246.449219 121.679688 "/><path style=" stroke:none;fill-rule:nonzero;fill:rgb(7.058716%,6.269836%,5.879211%);fill-opacity:1;" d="M 283.128906 0.332031 L 279.683594 14.070312 L 266.40625 19.027344 L 278.410156 26.550781 L 279.023438 40.707031 L 289.882812 31.609375 L 303.539062 35.40625 L 298.246094 22.265625 L 306.074219 10.453125 L 291.9375 11.421875 L 283.128906 0.332031 "/><path style=" stroke:none;fill-rule:nonzero;fill:rgb(7.058716%,6.269836%,5.879211%);fill-opacity:1;" d="M 445.976562 164.621094 C 445.976562 161.648438 448.382812 159.242188 451.355469 159.242188 C 454.320312 159.242188 456.738281 161.648438 456.738281 164.621094 C 456.738281 167.59375 454.320312 170 451.355469 170 C 448.382812 170 445.976562 167.59375 445.976562 164.621094 "/><path style=" stroke:none;fill-rule:nonzero;fill:rgb(7.058716%,6.269836%,5.879211%);fill-opacity:1;" d="M 429.566406 250.457031 C 429.566406 247.484375 431.984375 245.074219 434.957031 245.074219 C 437.921875 245.074219 440.335938 247.484375 440.335938 250.457031 C 440.335938 253.421875 437.921875 255.835938 434.957031 255.835938 C 431.984375 255.835938 429.566406 253.421875 429.566406 250.457031 "/><path style=" stroke:none;fill-rule:nonzero;fill:rgb(7.058716%,6.269836%,5.879211%);fill-opacity:1;" d="M 310.414062 186.660156 C 310.414062 183.683594 312.820312 181.277344 315.796875 181.277344 C 318.769531 181.277344 321.175781 183.683594 321.175781 186.660156 C 321.175781 189.632812 318.769531 192.039062 315.796875 192.039062 C 312.820312 192.039062 310.414062 189.632812 310.414062 186.660156 "/><path style=" stroke:none;fill-rule:nonzero;fill:rgb(7.058716%,6.269836%,5.879211%);fill-opacity:1;" d="M 259.417969 93.652344 C 259.417969 90.679688 261.828125 88.273438 264.800781 88.273438 C 267.773438 88.273438 270.179688 90.679688 270.179688 93.652344 C 270.179688 96.625 267.773438 99.03125 264.800781 99.03125 C 261.828125 99.03125 259.417969 96.625 259.417969 93.652344 "/><path style=" stroke:none;fill-rule:nonzero;fill:rgb(7.058716%,6.269836%,5.879211%);fill-opacity:1;" d="M 320.914062 307.84375 C 320.914062 304.871094 323.332031 302.464844 326.304688 302.464844 C 329.277344 302.464844 331.683594 304.871094 331.683594 307.84375 C 331.683594 310.816406 329.277344 313.222656 326.304688 313.222656 C 323.332031 313.222656 320.914062 310.816406 320.914062 307.84375 "/><path style=" stroke:none;fill-rule:nonzero;fill:rgb(7.058716%,6.269836%,5.879211%);fill-opacity:1;" d="M 549.238281 176.664062 C 549.238281 173.699219 551.65625 171.28125 554.621094 171.28125 C 557.59375 171.28125 560.007812 173.699219 560.007812 176.664062 C 560.007812 179.636719 557.59375 182.042969 554.621094 182.042969 C 551.65625 182.042969 549.238281 179.636719 549.238281 176.664062 "/><path style=" stroke:none;fill-rule:nonzero;fill:rgb(7.058716%,6.269836%,5.879211%);fill-opacity:1;" d="M 429.316406 34.210938 C 429.316406 31.238281 431.722656 28.832031 434.695312 28.832031 C 437.667969 28.832031 440.078125 31.238281 440.078125 34.210938 C 440.078125 37.183594 437.667969 39.589844 434.695312 39.589844 C 431.722656 39.589844 429.316406 37.183594 429.316406 34.210938 "/><path style=" stroke:none;fill-rule:nonzero;fill:rgb(7.058716%,6.269836%,5.879211%);fill-opacity:1;" d="M 199.710938 192.039062 C 199.710938 189.066406 202.117188 186.660156 205.089844 186.660156 C 208.0625 186.660156 210.46875 189.066406 210.46875 192.039062 C 210.46875 195.011719 208.0625 197.417969 205.089844 197.417969 C 202.117188 197.417969 199.710938 195.011719 199.710938 192.039062 "/><path style=" stroke:none;fill-rule:nonzero;fill:rgb(7.058716%,6.269836%,5.879211%);fill-opacity:1;" d="M 378.0625 168.46875 C 378.0625 165.496094 380.476562 163.089844 383.449219 163.089844 C 386.414062 163.089844 388.832031 165.496094 388.832031 168.46875 C 388.832031 171.441406 386.414062 173.847656 383.449219 173.847656 C 380.476562 173.847656 378.0625 171.441406 378.0625 168.46875 "/><path style=" stroke:none;fill-rule:nonzero;fill:rgb(7.058716%,6.269836%,5.879211%);fill-opacity:1;" d="M 363.714844 341.660156 C 363.714844 338.695312 366.121094 336.28125 369.09375 336.28125 C 372.066406 336.28125 374.476562 338.695312 374.476562 341.660156 C 374.476562 344.632812 372.066406 347.039062 369.09375 347.039062 C 366.121094 347.039062 363.714844 344.632812 363.714844 341.660156 "/><path style=" stroke:none;fill-rule:nonzero;fill:rgb(7.058716%,6.269836%,5.879211%);fill-opacity:1;" d="M 463.140625 294.519531 C 463.140625 291.546875 465.546875 289.140625 468.519531 289.140625 C 471.492188 289.140625 473.898438 291.546875 473.898438 294.519531 C 473.898438 297.492188 471.492188 299.898438 468.519531 299.898438 C 465.546875 299.898438 463.140625 297.492188 463.140625 294.519531 "/><path style=" stroke:none;fill-rule:nonzero;fill:rgb(7.058716%,6.269836%,5.879211%);fill-opacity:1;" d="M 374.984375 31.136719 C 374.984375 28.164062 377.402344 25.757812 380.375 25.757812 C 383.339844 25.757812 385.753906 28.164062 385.753906 31.136719 C 385.753906 34.109375 383.339844 36.515625 380.375 36.515625 C 377.402344 36.515625 374.984375 34.109375 374.984375 31.136719 "/><path style=" stroke:none;fill-rule:nonzero;fill:rgb(7.058716%,6.269836%,5.879211%);fill-opacity:1;" d="M 531.816406 79.308594 C 531.816406 76.335938 534.222656 73.929688 537.199219 73.929688 C 540.171875 73.929688 542.578125 76.335938 542.578125 79.308594 C 542.578125 82.28125 540.171875 84.6875 537.199219 84.6875 C 534.222656 84.6875 531.816406 82.28125 531.816406 79.308594 "/><path style=" stroke:none;fill-rule:nonzero;fill:rgb(7.058716%,6.269836%,5.879211%);fill-opacity:1;" d="M 295.035156 148.996094 C 295.035156 146.023438 297.445312 143.617188 300.417969 143.617188 C 303.390625 143.617188 305.796875 146.023438 305.796875 148.996094 C 305.796875 151.96875 303.390625 154.375 300.417969 154.375 C 297.445312 154.375 295.035156 151.96875 295.035156 148.996094 "/><path style=" stroke:none;fill-rule:nonzero;fill:rgb(7.058716%,6.269836%,5.879211%);fill-opacity:1;" d="M 209.957031 329.367188 C 209.957031 326.394531 212.375 323.980469 215.339844 323.980469 C 218.3125 323.980469 220.726562 326.394531 220.726562 329.367188 C 220.726562 332.332031 218.3125 334.746094 215.339844 334.746094 C 212.375 334.746094 209.957031 332.332031 209.957031 329.367188 "/><g clip-rule="nonzero" clip-path="url(#clip2)"><path style=" stroke:none;fill-rule:nonzero;fill:rgb(7.058716%,6.269836%,5.879211%);fill-opacity:1;" d="M 185.363281 268.898438 C 185.363281 265.925781 187.769531 263.519531 190.742188 263.519531 C 193.714844 263.519531 196.121094 265.925781 196.121094 268.898438 C 196.121094 271.871094 193.714844 274.277344 190.742188 274.277344 C 187.769531 274.277344 185.363281 271.871094 185.363281 268.898438 "/></g></g></svg>